<svg width="246" height="161" viewBox="0 0 246 161" fill="none" xmlns="http://www.w3.org/2000/svg">
<path d="M187.349 117.872L172.109 116.857L170.587 139.716L185.826 140.731L187.349 117.872Z" fill="#4E4E4E"/>
<path d="M185.891 140.762C193.135 141.896 197.466 147.1 197.15 151.857C196.811 156.984 192.164 160.857 182.869 160.235C175.375 159.733 169.593 155.762 169.844 150.678L185.16 151.693L185.891 140.751V140.762Z" fill="#4E4E4E"/>
<path d="M169.846 150.593C169.846 150.593 169.846 150.527 169.857 150.494V150.669C169.857 150.669 169.846 150.626 169.846 150.593Z" fill="#4E4E4E"/>
<path d="M169.855 150.482L171.743 122.184L187.059 123.198L185.892 140.751C185.336 140.664 184.768 140.598 184.179 140.555C174.983 139.977 170.259 145.366 169.855 150.471V150.482Z" fill="#4E4E4E"/>
<path d="M169.857 150.483C170.249 145.378 174.984 139.999 184.18 140.567C184.77 140.599 185.337 140.676 185.893 140.763L185.162 151.705L169.846 150.69C169.846 150.69 169.846 150.669 169.846 150.658V150.483H169.857Z" fill="#4E4E4E"/>
<path d="M120.387 137.456L135.289 140.801L140.306 118.447L125.404 115.103L120.387 137.456Z" fill="#4E4E4E"/>
<path d="M120.338 137.489C113.073 136.518 107.444 140.281 106.396 144.94C105.273 149.958 108.633 154.987 117.72 157.027C125.051 158.675 131.728 156.504 132.917 151.562L117.938 148.202L120.338 137.5V137.489Z" fill="#4E4E4E"/>
<path d="M132.94 151.454C132.94 151.454 132.94 151.388 132.962 151.355L132.918 151.531C132.918 151.531 132.929 151.487 132.94 151.465V151.454Z" fill="#4E4E4E"/>
<path d="M132.96 151.355L139.167 123.678L124.189 120.318L120.338 137.49C120.894 137.566 121.462 137.653 122.029 137.795C131.007 139.846 134.018 146.359 132.949 151.366L132.96 151.355Z" fill="#4E4E4E"/>
<path d="M132.96 151.356C134.029 146.349 131.019 139.847 122.04 137.785C121.462 137.654 120.906 137.556 120.349 137.479L117.949 148.181L132.928 151.542V151.52L132.971 151.345L132.96 151.356Z" fill="#4E4E4E"/>
<path d="M149.551 145.628L141.184 138.242C141.086 138.155 140.987 138.068 140.878 137.991C93.0848 100.692 61.8516 75.5248 61.8516 44.6843C61.8407 19.4949 83.9428 0 112.492 0C126.183 0 139.886 4.97462 149.878 13.2984C152.202 15.2293 155.649 15.2293 157.973 13.2984C167.966 4.97462 181.668 0 195.359 0C223.898 0 246 19.4949 246 44.6843C246 75.5248 214.767 100.682 166.973 137.991C166.875 138.068 166.766 138.155 166.668 138.242L158.3 145.628C155.813 147.831 152.049 147.831 149.551 145.628Z" fill="#A7A7A7"/>
<path d="M128.694 76.3648C133.195 76.3648 136.843 72.9458 136.843 68.7283C136.843 64.5108 133.195 61.0918 128.694 61.0918C124.193 61.0918 120.545 64.5108 120.545 68.7283C120.545 72.9458 124.193 76.3648 128.694 76.3648Z" fill="#7A7A7A"/>
<path d="M181.638 76.3648C186.138 76.3648 189.787 72.9458 189.787 68.7283C189.787 64.5108 186.138 61.0918 181.638 61.0918C177.137 61.0918 173.488 64.5108 173.488 68.7283C173.488 72.9458 177.137 76.3648 181.638 76.3648Z" fill="#7A7A7A"/>
<path d="M162.633 65.6846C159.251 70.3428 152.738 71.3683 148.08 67.9864" stroke="#022222" stroke-width="2" stroke-linecap="round" stroke-linejoin="round"/>
<path d="M140.497 62.6515C148.341 62.6515 154.701 56.3118 154.701 48.4913C154.701 40.6708 148.341 34.3311 140.497 34.3311C132.652 34.3311 126.293 40.6708 126.293 48.4913C126.293 56.3118 132.652 62.6515 140.497 62.6515Z" fill="white"/>
<path d="M168.034 62.6515C175.879 62.6515 182.238 56.3118 182.238 48.4913C182.238 40.6708 175.879 34.3311 168.034 34.3311C160.189 34.3311 153.83 40.6708 153.83 48.4913C153.83 56.3118 160.189 62.6515 168.034 62.6515Z" fill="white"/>
<path d="M134.792 56.4003C139.492 56.4003 143.302 52.6052 143.302 47.9238C143.302 43.2423 139.492 39.4473 134.792 39.4473C130.093 39.4473 126.283 43.2423 126.283 47.9238C126.283 52.6052 130.093 56.4003 134.792 56.4003Z" fill="#022222"/>
<path d="M148.648 27.2734L132.35 28.9753" stroke="#022222" stroke-width="2" stroke-linecap="round" stroke-linejoin="round"/>
<path d="M176.095 31.5392L161.771 30.252" stroke="#022222" stroke-width="2" stroke-linecap="round" stroke-linejoin="round"/>
<path d="M173.488 43.0693C173.488 43.0693 164.259 43.3421 159.109 48.4912C159.109 48.4912 168.6 48.9494 173.019 52.6259" stroke="#022222" stroke-width="2" stroke-linecap="round" stroke-linejoin="round"/>
<path d="M234.624 93.5001C237.313 86.789 234.733 79.4407 228.861 77.0872C222.989 74.7337 216.048 78.2663 213.358 84.9774C210.669 91.6885 213.249 99.0368 219.121 101.39C224.993 103.744 231.934 100.211 234.624 93.5001Z" fill="#4E4E4E"/>
<path d="M18.5859 83.706L66.4449 62.6729L64.3285 104.728C64.2521 106.332 65.4412 107.706 67.034 107.859L77.8778 108.906C79.5796 109.07 81.0742 107.794 81.1724 106.081L83.627 63.0875C83.627 63.0875 99.249 70.5712 104.518 54.6219C109.787 38.6726 87.3252 38.5635 84.3579 37.5816C81.3906 36.5998 23.4951 4.4502 23.4951 4.4502" fill="#E0E0E0"/>
<path d="M17.42 54.1967V54.1422C17.6709 54.2076 17.9109 54.2949 18.1618 54.3058C21.4237 54.4258 24.2492 49.8439 24.4674 44.0729C24.6855 38.3019 22.22 33.5128 18.9582 33.3928L36.3912 30.4473C34.3293 15.2179 27.991 4.17777 20.0709 3.87231C9.85985 3.49049 0.892436 21.0762 0.0633319 43.1566C-0.776681 65.2369 6.83798 83.4445 17.0491 83.8372C24.5219 84.1208 31.3075 74.7716 34.7439 61.0914L17.42 54.2076V54.1967Z" fill="#7A7A7A"/>
<path d="M24.4681 44.0731C24.2499 49.8441 21.4244 54.426 18.1626 54.306C17.9116 54.306 17.6716 54.2078 17.4316 54.1424V54.1969L34.7446 61.0806C36.0101 56.0624 36.8283 50.4768 37.0574 44.5422C37.2429 39.5894 36.9919 34.8439 36.3919 30.4365L18.9589 33.382C22.2208 33.502 24.6863 38.2912 24.4681 44.0622V44.0731Z" fill="#A7A7A7"/>
<path d="M24.6615 44.1268C24.8796 38.3558 22.4142 33.5666 19.1523 33.4466C15.8904 33.3266 13.0649 37.9085 12.8467 43.6795C12.6504 49.0032 14.7449 53.4433 17.625 54.1961C17.865 54.2615 18.105 54.3488 18.3559 54.3597C21.6178 54.4797 24.4433 49.8978 24.6615 44.1268Z" fill="#F0F0F0"/>
<path d="M74.2692 99.8189C80.5954 99.8189 85.7239 93.9579 85.7239 86.7278C85.7239 79.4978 80.5954 73.6367 74.2692 73.6367C67.9429 73.6367 62.8145 79.4978 62.8145 86.7278C62.8145 93.9579 67.9429 99.8189 74.2692 99.8189Z" fill="#4E4E4E"/>
</svg>
