<svg width="90" height="71" viewBox="0 0 90 71" fill="none" xmlns="http://www.w3.org/2000/svg">
<path d="M91.9567 59.6082C91.9567 50.4707 86.9449 42.4297 79.348 37.7538C79.5951 36.1531 79.7281 34.5147 79.7281 32.8447C79.7281 14.702 64.4075 0 45.5134 0C26.6193 0 11.2987 14.7083 11.2987 32.8447C11.2987 34.5525 11.4317 36.2224 11.6978 37.8609C4.20226 42.5557 -0.739868 50.54 -0.739868 59.6145C-0.739868 72.615 9.39783 83.391 22.6846 85.4202C28.7418 86.7687 36.7379 87.5943 45.5134 87.5943C54.2888 87.5943 61.9618 86.8002 67.9684 85.5021C81.5276 83.6935 91.9504 72.7915 91.9504 59.6145L91.9567 59.6082Z" fill="#007AFF"/>
<path d="M50.7851 42.026C47.8958 44.9248 43.1945 44.95 40.2799 42.0764" stroke="#222222" stroke-width="2" stroke-linecap="round" stroke-linejoin="round"/>
<path d="M34.2036 13.3221C34.2036 13.3221 36.8394 21.9555 45.4121 18.0799C45.4121 18.0799 49.0617 16.5108 47.446 12.2193C45.8303 7.92783 40.413 11.5387 43.3592 16.3533C46.3118 21.1678 57.2542 22.781 59.0917 14.406" stroke="#FFD298" stroke-width="2" stroke-linecap="round" stroke-linejoin="round"/>
<path d="M8.93672 49.3931C10.4989 45.5164 9.00045 41.2716 5.58989 39.9122C2.17933 38.5527 -1.85185 40.5932 -3.41401 44.4699C-4.97617 48.3466 -3.47775 52.5913 -0.0671874 53.9508C3.34337 55.3103 7.37456 53.2697 8.93672 49.3931Z" fill="#222222"/>
<path d="M89.6609 53.9522C93.0715 52.5927 94.5699 48.348 93.0078 44.4713C91.4456 40.5947 87.4144 38.5541 84.0039 39.9136C80.5933 41.273 79.0949 45.5178 80.657 49.3945C82.2192 53.2711 86.2504 55.3117 89.6609 53.9522Z" fill="#222222"/>
<path d="M37.4666 39.1402C42.0227 39.1402 45.7162 35.4781 45.7162 30.9606C45.7162 26.443 42.0227 22.7809 37.4666 22.7809C32.9105 22.7809 29.217 26.443 29.217 30.9606C29.217 35.4781 32.9105 39.1402 37.4666 39.1402Z" fill="white"/>
<path d="M53.4589 39.1402C58.015 39.1402 61.7084 35.4781 61.7084 30.9606C61.7084 26.443 58.015 22.7809 53.4589 22.7809C48.9028 22.7809 45.2094 26.443 45.2094 30.9606C45.2094 35.4781 48.9028 39.1402 53.4589 39.1402Z" fill="white"/>
<path d="M37.8088 35.5294C40.5383 35.5294 42.751 33.3371 42.751 30.6329C42.751 27.9287 40.5383 25.7365 37.8088 25.7365C35.0794 25.7365 32.8667 27.9287 32.8667 30.6329C32.8667 33.3371 35.0794 35.5294 37.8088 35.5294Z" fill="#222222"/>
<path d="M53.1991 35.5294C55.9285 35.5294 58.1412 33.3371 58.1412 30.6329C58.1412 27.9287 55.9285 25.7365 53.1991 25.7365C50.4696 25.7365 48.257 27.9287 48.257 30.6329C48.257 33.3371 50.4696 35.5294 53.1991 35.5294Z" fill="#222222"/>
</svg>
