<svg width="90" height="80" viewBox="0 0 90 80" fill="none" xmlns="http://www.w3.org/2000/svg">
<path d="M20.3853 82.3119L19.7441 73.877L11.3149 74.5186L11.9561 82.9536L20.3853 82.3119Z" fill="#022222"/>
<path d="M5.093 68.3146C2.25502 68.5321 0.141635 71.1243 0.528083 76.2663C0.842072 80.4114 3.07018 83.5957 5.88401 83.4266L5.23791 74.9491L11.2943 74.4899C10.6301 70.4838 7.72567 68.1091 5.093 68.3085V68.3146Z" fill="#022222"/>
<path d="M5.99805 83.4207L21.6492 82.2304L21.0031 73.7529L11.2936 74.4901C11.3419 74.7983 11.3842 75.1125 11.4083 75.4388C11.7766 80.5264 8.81791 83.173 5.99805 83.4207Z" fill="#022222"/>
<path d="M5.99911 83.4209C8.81897 83.1731 11.7777 80.5266 11.4094 75.4389C11.3852 75.1126 11.3429 74.7984 11.2946 74.4902L5.23828 74.9495L5.88438 83.4269C5.88438 83.4269 5.89645 83.4269 5.90249 83.4269H5.99911V83.4209Z" fill="#022222"/>
<path d="M56.5609 79.1201L48.1309 79.75L48.7603 88.1859L57.1904 87.556L56.5609 79.1201Z" fill="#022222"/>
<path d="M49.1968 94.1578L48.0254 78.4899L56.4971 77.8555L57.2216 87.5716C56.9137 87.5716 56.5937 87.5716 56.2676 87.6018C51.1834 88.0006 49.0096 91.3239 49.1908 94.1518L49.1968 94.1578Z" fill="#022222"/>
<path d="M63.0843 26.5377L90.6186 34.4291C92.8045 35.0575 93.5653 37.7705 92.0256 39.4442L72.6066 60.514L73.6149 89.1609C73.6934 91.4389 71.3506 92.9979 69.2855 92.0492L43.2607 80.0792L16.3482 89.8921C14.2107 90.6715 12.0007 88.9253 12.2663 86.6654L15.5995 58.1998L-2.04431 35.6194C-3.44518 33.8248 -2.46699 31.1843 -0.238871 30.7372L27.845 25.1117L43.8524 1.34701C45.1265 -0.538213 47.9343 -0.423408 49.0513 1.55849L63.0782 26.5498L63.0843 26.5377Z" fill="#FF5353"/>
<path d="M31.3105 35.414C33.5507 33.3777 36.8899 32.7855 39.7822 34.1813" stroke="#022222" stroke-width="2" stroke-linecap="round" stroke-linejoin="round"/>
<path d="M59.0515 36.3263C57.071 34.0362 53.8224 33.0513 50.7852 34.0967" stroke="#022222" stroke-width="2" stroke-linecap="round" stroke-linejoin="round"/>
<path d="M29.2152 52.5259C29.5486 52.5259 29.819 52.2553 29.819 51.9216C29.819 51.5879 29.5486 51.3174 29.2152 51.3174C28.8817 51.3174 28.6113 51.5879 28.6113 51.9216C28.6113 52.2553 28.8817 52.5259 29.2152 52.5259Z" fill="#C92D2D"/>
<path d="M30.4241 53.7348C30.7576 53.7348 31.028 53.4643 31.028 53.1306C31.028 52.7969 30.7576 52.5264 30.4241 52.5264C30.0907 52.5264 29.8203 52.7969 29.8203 53.1306C29.8203 53.4643 30.0907 53.7348 30.4241 53.7348Z" fill="#C92D2D"/>
<path d="M28.9144 55.2456C29.2479 55.2456 29.5182 54.9751 29.5182 54.6413C29.5182 54.3076 29.2479 54.0371 28.9144 54.0371C28.5809 54.0371 28.3105 54.3076 28.3105 54.6413C28.3105 54.9751 28.5809 55.2456 28.9144 55.2456Z" fill="#C92D2D"/>
<path d="M31.0277 56.1509C31.3611 56.1509 31.6315 55.8803 31.6315 55.5466C31.6315 55.2129 31.3611 54.9424 31.0277 54.9424C30.6942 54.9424 30.4238 55.2129 30.4238 55.5466C30.4238 55.8803 30.6942 56.1509 31.0277 56.1509Z" fill="#C92D2D"/>
<path d="M32.8382 54.3384C33.1717 54.3384 33.442 54.0678 33.442 53.7341C33.442 53.4004 33.1717 53.1299 32.8382 53.1299C32.5047 53.1299 32.2344 53.4004 32.2344 53.7341C32.2344 54.0678 32.5047 54.3384 32.8382 54.3384Z" fill="#C92D2D"/>
<path d="M56.1468 54.1567C56.4803 54.1567 56.7506 53.8862 56.7506 53.5525C56.7506 53.2188 56.4803 52.9482 56.1468 52.9482C55.8133 52.9482 55.543 53.2188 55.543 53.5525C55.543 53.8862 55.8133 54.1567 56.1468 54.1567Z" fill="#C92D2D"/>
<path d="M57.9573 52.9487C58.2908 52.9487 58.5612 52.6782 58.5612 52.3445C58.5612 52.0108 58.2908 51.7402 57.9573 51.7402C57.6239 51.7402 57.3535 52.0108 57.3535 52.3445C57.3535 52.6782 57.6239 52.9487 57.9573 52.9487Z" fill="#C92D2D"/>
<path d="M57.9573 54.7622C58.2908 54.7622 58.5612 54.4917 58.5612 54.1579C58.5612 53.8242 58.2908 53.5537 57.9573 53.5537C57.6239 53.5537 57.3535 53.8242 57.3535 54.1579C57.3535 54.4917 57.6239 54.7622 57.9573 54.7622Z" fill="#C92D2D"/>
<path d="M57.3538 56.5747C57.6873 56.5747 57.9576 56.3042 57.9576 55.9704C57.9576 55.6367 57.6873 55.3662 57.3538 55.3662C57.0203 55.3662 56.75 55.6367 56.75 55.9704C56.75 56.3042 57.0203 56.5747 57.3538 56.5747Z" fill="#C92D2D"/>
<path d="M60.3734 54.1567C60.7068 54.1567 60.9772 53.8862 60.9772 53.5525C60.9772 53.2188 60.7068 52.9482 60.3734 52.9482C60.0399 52.9482 59.7695 53.2188 59.7695 53.5525C59.7695 53.8862 60.0399 54.1567 60.3734 54.1567Z" fill="#C92D2D"/>
<path d="M39.5586 53.6385C40.4341 53.3968 40.9474 52.4904 40.7059 51.6143" stroke="#022222" stroke-width="2" stroke-linecap="round" stroke-linejoin="round"/>
<path d="M47.1737 54.8585C47.373 58.2543 45.2234 60.8465 43.6051 60.6773C41.9869 60.5081 40.586 57.5655 41.3227 54.2422" fill="#FFDDDD"/>
<path d="M47.8377 53.9636C45.519 55.5769 42.3368 55.0029 40.7246 52.6826" stroke="#022222" stroke-width="2" stroke-linecap="round" stroke-linejoin="round"/>
<path d="M48.9667 54.7679C48.1757 54.3268 47.8919 53.3238 48.3327 52.5322" stroke="#022222" stroke-width="2" stroke-linecap="round" stroke-linejoin="round"/>
<path d="M62.4867 26.6468L28.3404 25.257C27.7668 25.2329 27.4468 24.5863 27.7789 24.115L32.5612 17.2992C32.7 17.0998 32.9355 16.979 33.1831 16.9911L58.3324 18.0183C58.58 18.0304 58.8034 18.1633 58.9302 18.3748L63.1449 25.5592C63.4347 26.0546 63.0603 26.677 62.4928 26.6528L62.4867 26.6468Z" fill="#007AFF"/>
<path d="M37.2954 51.3179C41.6373 51.3179 45.1572 47.8064 45.1572 43.4748C45.1572 39.1433 41.6373 35.6318 37.2954 35.6318C32.9534 35.6318 29.4336 39.1433 29.4336 43.4748C29.4336 47.8064 32.9534 51.3179 37.2954 51.3179Z" fill="white"/>
<path d="M52.5415 51.3179C56.8834 51.3179 60.4033 47.8064 60.4033 43.4748C60.4033 39.1433 56.8834 35.6318 52.5415 35.6318C48.1995 35.6318 44.6797 39.1433 44.6797 43.4748C44.6797 47.8064 48.1995 51.3179 52.5415 51.3179Z" fill="white"/>
<path d="M34.1005 47.8557C36.7016 47.8557 38.8103 45.7537 38.8103 43.1608C38.8103 40.5678 36.7016 38.4658 34.1005 38.4658C31.4993 38.4658 29.3906 40.5678 29.3906 43.1608C29.3906 45.7537 31.4993 47.8557 34.1005 47.8557Z" fill="#022222"/>
<path d="M49.3895 47.8557C51.9907 47.8557 54.0994 45.7537 54.0994 43.1608C54.0994 40.5678 51.9907 38.4658 49.3895 38.4658C46.7883 38.4658 44.6797 40.5678 44.6797 43.1608C44.6797 45.7537 46.7883 47.8557 49.3895 47.8557Z" fill="#022222"/>
<path d="M12.8055 52.0185C15.5641 49.8603 15.8021 45.5533 13.3373 42.3985C10.8724 39.2438 6.63804 38.4359 3.87952 40.5941C1.12099 42.7524 0.882925 47.0594 3.34778 50.2141C5.81263 53.3689 10.047 54.1768 12.8055 52.0185Z" fill="#022222"/>
<path d="M80.497 64.2957C81.9858 60.5786 80.5578 56.5086 77.3075 55.205C74.0573 53.9015 70.2156 55.8581 68.7268 59.5752C67.2381 63.2923 68.6661 67.3624 71.9164 68.6659C75.1666 69.9695 79.0083 68.0129 80.497 64.2957Z" fill="#022222"/>
</svg>
