<svg width="133" height="74" viewBox="0 0 133 74" fill="none" xmlns="http://www.w3.org/2000/svg">
<path d="M116.042 36.177C116.435 34.4731 116.674 32.7128 116.674 30.8962C116.674 18.2223 106.428 7.95641 93.7791 7.95641C87.1734 7.95641 81.2423 10.7728 77.0681 15.251C71.3338 6.08349 61.1723 0 49.5912 0C31.6715 0 17.1531 14.5469 17.1531 32.5016C17.1531 34.0365 17.2655 35.5574 17.4763 37.036C7.53969 39.951 0.273438 49.1326 0.273438 60.0322C0.273438 73.2694 10.9831 84 24.1945 84C24.4193 84 24.6442 83.9718 24.8691 83.9718C25.094 83.9718 25.3048 84 25.5297 84H111.488C111.881 84 112.247 83.9718 112.64 83.9437C113.02 83.9578 113.413 84 113.793 84C127.004 84 137.714 73.2694 137.714 60.0322C137.714 47.5554 128.185 37.3036 116.028 36.177H116.042Z" fill="#FFB74D"/>
<path d="M51.307 65.609C61.4133 65.609 69.6061 57.4254 69.6061 47.3304C69.6061 37.2354 61.4133 29.0518 51.307 29.0518C41.2006 29.0518 33.0078 37.2354 33.0078 47.3304C33.0078 57.4254 41.2006 65.609 51.307 65.609Z" fill="white"/>
<path d="M86.7796 65.609C96.886 65.609 105.079 57.4254 105.079 47.3304C105.079 37.2354 96.886 29.0518 86.7796 29.0518C76.6733 29.0518 68.4805 37.2354 68.4805 47.3304C68.4805 57.4254 76.6733 65.609 86.7796 65.609Z" fill="white"/>
<path d="M43.8708 57.5399C49.9253 57.5399 54.8335 52.6411 54.8335 46.5981C54.8335 40.5551 49.9253 35.6562 43.8708 35.6562C37.8163 35.6562 32.9082 40.5551 32.9082 46.5981C32.9082 52.6411 37.8163 57.5399 43.8708 57.5399Z" fill="#222222"/>
<path d="M79.4431 57.5399C85.4976 57.5399 90.4057 52.6411 90.4057 46.5981C90.4057 40.5551 85.4976 35.6562 79.4431 35.6562C73.3886 35.6562 68.4805 40.5551 68.4805 46.5981C68.4805 52.6411 73.3886 57.5399 79.4431 57.5399Z" fill="#222222"/>
</svg>
