<svg width="102" height="70" viewBox="0 0 102 70" fill="none" xmlns="http://www.w3.org/2000/svg">
<path d="M96.6673 4.99512H5.30038C2.37306 4.99512 0 7.39358 0 10.3522V70.0319C0 72.9905 2.37306 75.389 5.30038 75.389H96.6673C99.5946 75.389 101.968 72.9905 101.968 70.0319V10.3522C101.968 7.39358 99.5946 4.99512 96.6673 4.99512Z" fill="#FF5353"/>
<path d="M92.3358 9.20801H8.27304C5.34572 9.20801 2.97266 11.6065 2.97266 14.5651V70.0309C2.97266 72.9896 5.34572 75.388 8.27304 75.388H92.3358C95.2631 75.388 97.6361 72.9896 97.6361 70.0309V14.5651C97.6361 11.6065 95.2631 9.20801 92.3358 9.20801Z" fill="white"/>
<path d="M96.6673 18.9103H42.7909C40.7871 18.9103 38.9449 17.767 38.0399 15.9377L31.8669 3.36155C30.962 1.53229 29.1198 0.389004 27.116 0.389004H5.26806C2.35932 0.356338 0 2.74091 0 5.68079V23.6141H0.0646388C0.0646388 23.8101 0 24.0387 0 24.2347V70.0316C0 72.9714 2.35932 75.3887 5.30038 75.3887H96.6996C99.6084 75.3887 102 73.0041 102 70.0316V24.2347C102 21.2948 99.6407 18.8776 96.6996 18.8776L96.6673 18.9103Z" fill="#FF5353"/>
</svg>
