<svg width="161" height="148" viewBox="0 0 161 148" fill="none" xmlns="http://www.w3.org/2000/svg">
<path d="M72.9091 130.683C66.7863 131.222 62.875 135.333 62.875 139.335C62.875 143.639 66.5487 147.129 74.3439 147.129C80.6312 147.129 85.694 144.132 85.7579 139.874H72.9V130.683H72.9091Z" fill="#022222"/>
<path d="M85.7701 139.701V115.945H72.9121V130.683C73.3782 130.637 73.8625 130.619 74.356 130.619C82.0689 130.655 85.7244 135.416 85.7701 139.701Z" fill="#022222"/>
<path d="M85.7701 139.702C85.7244 135.417 82.0689 130.648 74.356 130.62C73.8625 130.62 73.3873 130.648 72.9121 130.684V139.876H85.7701C85.7701 139.876 85.7701 139.857 85.7701 139.848V139.702Z" fill="#022222"/>
<path d="M112.296 130.683C118.419 131.222 122.33 135.333 122.33 139.335C122.33 143.639 118.657 147.129 110.861 147.129C104.574 147.129 99.5112 144.132 99.4473 139.874H112.305V130.683H112.296Z" fill="#022222"/>
<path d="M99.4355 139.701V115.945H112.293V130.683C111.827 130.637 111.343 130.619 110.85 130.619C103.137 130.655 99.4812 135.416 99.4355 139.701Z" fill="#022222"/>
<path d="M99.4355 139.702C99.4812 135.417 103.137 130.648 110.85 130.62C111.343 130.62 111.818 130.648 112.293 130.684V139.876H99.4355C99.4355 139.876 99.4355 139.857 99.4355 139.848V139.702Z" fill="#022222"/>
<path d="M160.033 86.4245C160.033 73.1762 152.804 61.5177 141.847 54.7383C142.204 52.4175 142.396 50.042 142.396 47.6207C142.396 21.316 120.299 0 93.0474 0C65.7962 0 43.6992 21.3252 43.6992 47.6207C43.6992 50.0968 43.8911 52.518 44.2749 54.8936C33.464 61.7005 26.3359 73.2767 26.3359 86.4336C26.3359 105.283 40.9576 120.907 60.1212 123.849C68.8576 125.804 80.3905 127.001 93.0474 127.001C105.704 127.001 116.771 125.85 125.434 123.967C144.991 121.345 160.024 105.539 160.024 86.4336L160.033 86.4245Z" fill="#007AFF"/>
<path d="M76.7383 19.3153C76.7383 19.3153 80.5399 31.8326 92.9044 26.2135C92.9044 26.2135 98.1682 23.9384 95.8379 17.7163C93.5075 11.4942 85.6941 16.7296 89.9435 23.71C94.1929 30.6905 109.984 33.0295 112.635 20.8868" stroke="#FFD348" stroke-width="2" stroke-linecap="round" stroke-linejoin="round"/>
<path d="M116.406 78.9651C121.686 78.5116 125.546 73.2532 125.028 67.2201C124.51 61.187 119.809 56.6639 114.529 57.1174C109.249 57.5708 105.389 62.8293 105.907 68.8623C106.426 74.8954 111.126 79.4186 116.406 78.9651Z" fill="#022222"/>
<path d="M71.4595 68.8561C71.9779 62.823 68.1179 57.5646 62.8379 57.1111C57.5579 56.6576 52.8574 61.1807 52.339 67.2138C51.8206 73.2469 55.6807 78.5053 60.9607 78.9588C66.2407 79.4123 70.9412 74.8892 71.4595 68.8561Z" fill="#022222"/>
<path d="M81.4414 56.7385C88.0127 56.7385 93.3398 51.4288 93.3398 44.879C93.3398 38.3292 88.0127 33.0195 81.4414 33.0195C74.8701 33.0195 69.543 38.3292 69.543 44.879C69.543 51.4288 74.8701 56.7385 81.4414 56.7385Z" fill="white"/>
<path d="M104.518 56.7385C111.089 56.7385 116.416 51.4288 116.416 44.879C116.416 38.3292 111.089 33.0195 104.518 33.0195C97.9462 33.0195 92.6191 38.3292 92.6191 44.879C92.6191 51.4288 97.9462 56.7385 104.518 56.7385Z" fill="white"/>
<path d="M76.671 51.5032C80.6078 51.5032 83.7991 48.3247 83.7991 44.4039C83.7991 40.4831 80.6078 37.3047 76.671 37.3047C72.7343 37.3047 69.543 40.4831 69.543 44.4039C69.543 48.3247 72.7343 51.5032 76.671 51.5032Z" fill="#022222"/>
<path d="M99.7394 51.5032C103.676 51.5032 106.867 48.3247 106.867 44.4039C106.867 40.4831 103.676 37.3047 99.7394 37.3047C95.8027 37.3047 92.6113 40.4831 92.6113 44.4039C92.6113 48.3247 95.8027 51.5032 99.7394 51.5032Z" fill="#022222"/>
<path d="M90.6011 66.5892C93.3719 66.5892 95.6181 64.0653 95.6181 60.9518C95.6181 57.8384 93.3719 55.3145 90.6011 55.3145C87.8302 55.3145 85.584 57.8384 85.584 60.9518C85.584 64.0653 87.8302 66.5892 90.6011 66.5892Z" fill="#022222"/>
<path d="M101.777 66.5979C100.288 65.9127 99.2461 64.4051 99.2461 62.66C99.2461 60.9148 100.297 59.389 101.805 58.7129" stroke="#005099" stroke-width="2" stroke-linecap="round" stroke-linejoin="round"/>
<path d="M80.7208 66.5979C82.2104 65.9127 83.2522 64.4051 83.2522 62.66C83.2522 60.9148 82.2012 59.389 80.6934 58.7129" stroke="#005099" stroke-width="2" stroke-linecap="round" stroke-linejoin="round"/>
<path d="M87.1727 68.2705C82.1465 82.3502 65.0025 84.0862 61.0273 84.2964C58.8797 81.7472 55.6629 80.1209 52.0715 80.1209C50.1981 80.1209 48.4343 80.5686 46.8716 81.3543C44.3585 79.6549 41.1235 78.6316 37.596 78.6316C33.0907 78.6316 29.0697 80.2945 26.4104 82.9076C23.678 82.7248 20.7171 83.2456 17.8567 84.5613C12.529 87.0191 9.04717 91.5601 8.45316 96.0919C3.57317 97.5081 0 101.994 0 107.339C0 113.808 5.24553 119.053 11.7156 119.053C12.5746 119.053 13.4154 118.952 14.2287 118.778C16.3671 121.035 19.3829 122.461 22.7367 122.461C27.2694 122.461 31.1899 119.884 33.1364 116.129C36.8101 117.326 41.3794 116.942 45.574 114.731C50.4814 112.145 53.6068 107.732 54.1459 103.374C58.9345 102.524 62.7179 98.7598 63.5952 93.9722C87.7667 86.5714 87.1909 68.2888 87.1909 68.2888L87.1727 68.2705Z" fill="#BBE9FF"/>
</svg>
