<svg width="134" height="140" viewBox="0 0 134 140" fill="none" xmlns="http://www.w3.org/2000/svg">
<path d="M62.1664 114.975L50.8203 111.681L47.5519 123.117L58.898 126.412L62.1664 114.975Z" fill="#022222"/>
<path d="M56.5947 134.586C56.5947 134.586 56.6031 134.536 56.6114 134.511L56.5781 134.645C56.5781 134.645 56.5947 134.611 56.5947 134.595V134.586Z" fill="#022222"/>
<path d="M36.4069 128.288C35.3105 132.139 37.672 136.202 44.5878 138.209C50.1711 139.833 55.4169 138.447 56.564 134.655L45.1613 131.348L47.5059 123.136C41.9396 122.048 37.4274 124.709 36.3985 128.288H36.4069Z" fill="#022222"/>
<path d="M56.6139 134.51L62.6778 113.274L51.2752 109.967L47.5137 123.144C47.9354 123.229 48.3739 123.331 48.8041 123.458C55.6355 125.473 57.6597 130.676 56.6139 134.519V134.51Z" fill="#022222"/>
<path d="M56.6128 134.511C57.667 130.669 55.6429 125.466 48.803 123.451C48.3644 123.324 47.9343 123.222 47.5126 123.137L45.168 131.349L56.5706 134.656V134.639L56.6044 134.503L56.6128 134.511Z" fill="#022222"/>
<path d="M82.9935 112.093L71.5195 114.901L74.306 126.467L85.78 123.658L82.9935 112.093Z" fill="#022222"/>
<path d="M85.8246 123.672C91.4332 122.822 95.8357 125.67 96.7044 129.291C97.6405 133.185 95.1104 137.146 88.1186 138.855C82.4764 140.232 77.2895 138.634 76.3027 134.8L87.8319 131.978L85.833 123.672H85.8246Z" fill="#022222"/>
<path d="M76.2764 134.732C76.2764 134.732 76.2681 134.681 76.2598 134.656L76.293 134.79C76.293 134.79 76.2764 134.757 76.2764 134.74V134.732Z" fill="#022222"/>
<path d="M76.2598 134.646L71.0898 113.172L82.619 110.35L85.8323 123.671C85.4022 123.739 84.9721 123.816 84.5251 123.926C77.6093 125.652 75.3743 130.761 76.2598 134.646Z" fill="#022222"/>
<path d="M76.2611 134.645C75.3671 130.76 77.6105 125.651 84.5263 123.925C84.9648 123.814 85.4034 123.729 85.8335 123.67L87.8324 131.976L76.3032 134.798V134.781L76.2695 134.645H76.2611Z" fill="#022222"/>
<path d="M91.3886 36.7041L130.269 46.217C133.356 46.9736 134.57 50.7397 132.512 53.1796L106.612 83.9118L109.648 124.123C109.893 127.319 106.705 129.649 103.77 128.425L66.77 113.088L29.7704 128.425C26.8354 129.64 23.6474 127.311 23.892 124.123L26.9282 83.9118L1.01921 53.1796C-1.03866 50.7397 0.175822 46.9651 3.26263 46.217L42.143 36.7041L63.135 2.37579C64.8049 -0.353128 68.7351 -0.353128 70.405 2.37579L91.397 36.7041H91.3886Z" fill="#FF5353"/>
<path d="M49.2773 47.9417C53.2244 49.4719 57.8715 48.5453 60.933 45.2383" stroke="#022222" stroke-width="2" stroke-linecap="round" stroke-linejoin="round"/>
<path d="M81.7299 47.9417C77.7828 49.4719 73.1357 48.5453 70.0742 45.2383" stroke="#022222" stroke-width="2" stroke-linecap="round" stroke-linejoin="round"/>
<path d="M45.1891 74.296C45.6549 74.296 46.0325 73.9153 46.0325 73.4458C46.0325 72.9763 45.6549 72.5957 45.1891 72.5957C44.7233 72.5957 44.3457 72.9763 44.3457 73.4458C44.3457 73.9153 44.7233 74.296 45.1891 74.296Z" fill="#C92D2D"/>
<path d="M46.8746 75.9962C47.3404 75.9962 47.718 75.6155 47.718 75.146C47.718 74.6765 47.3404 74.2959 46.8746 74.2959C46.4088 74.2959 46.0312 74.6765 46.0312 75.146C46.0312 75.6155 46.4088 75.9962 46.8746 75.9962Z" fill="#C92D2D"/>
<path d="M44.7653 78.1221C45.2311 78.1221 45.6087 77.7415 45.6087 77.272C45.6087 76.8025 45.2311 76.4219 44.7653 76.4219C44.2995 76.4219 43.9219 76.8025 43.9219 77.272C43.9219 77.7415 44.2995 78.1221 44.7653 78.1221Z" fill="#C92D2D"/>
<path d="M47.7145 79.3975C48.1803 79.3975 48.5579 79.0169 48.5579 78.5474C48.5579 78.0779 48.1803 77.6973 47.7145 77.6973C47.2487 77.6973 46.8711 78.0779 46.8711 78.5474C46.8711 79.0169 47.2487 79.3975 47.7145 79.3975Z" fill="#C92D2D"/>
<path d="M50.2496 76.8448C50.7154 76.8448 51.093 76.4642 51.093 75.9947C51.093 75.5251 50.7154 75.1445 50.2496 75.1445C49.7838 75.1445 49.4062 75.5251 49.4062 75.9947C49.4062 76.4642 49.7838 76.8448 50.2496 76.8448Z" fill="#C92D2D"/>
<path d="M83.1422 75.9962C83.608 75.9962 83.9856 75.6155 83.9856 75.146C83.9856 74.6765 83.608 74.2959 83.1422 74.2959C82.6764 74.2959 82.2988 74.6765 82.2988 75.146C82.2988 75.6155 82.6764 75.9962 83.1422 75.9962Z" fill="#C92D2D"/>
<path d="M85.6676 74.296C86.1334 74.296 86.511 73.9153 86.511 73.4458C86.511 72.9763 86.1334 72.5957 85.6676 72.5957C85.2018 72.5957 84.8242 72.9763 84.8242 73.4458C84.8242 73.9153 85.2018 74.296 85.6676 74.296Z" fill="#C92D2D"/>
<path d="M85.6676 76.8448C86.1334 76.8448 86.511 76.4642 86.511 75.9947C86.511 75.5251 86.1334 75.1445 85.6676 75.1445C85.2018 75.1445 84.8242 75.5251 84.8242 75.9947C84.8242 76.4642 85.2018 76.8448 85.6676 76.8448Z" fill="#C92D2D"/>
<path d="M84.8297 79.3975C85.2955 79.3975 85.6731 79.0169 85.6731 78.5474C85.6731 78.0779 85.2955 77.6973 84.8297 77.6973C84.3639 77.6973 83.9863 78.0779 83.9863 78.5474C83.9863 79.0169 84.3639 79.3975 84.8297 79.3975Z" fill="#C92D2D"/>
<path d="M89.0446 75.9962C89.5104 75.9962 89.888 75.6155 89.888 75.146C89.888 74.6765 89.5104 74.2959 89.0446 74.2959C88.5788 74.2959 88.2012 74.6765 88.2012 75.146C88.2012 75.6155 88.5788 75.9962 89.0446 75.9962Z" fill="#C92D2D"/>
<path d="M54.7837 72.5948C60.8483 72.5948 65.7646 67.6544 65.7646 61.5601C65.7646 55.4658 60.8483 50.5254 54.7837 50.5254C48.7191 50.5254 43.8027 55.4658 43.8027 61.5601C43.8027 67.6544 48.7191 72.5948 54.7837 72.5948Z" fill="white"/>
<path d="M76.0786 72.5948C82.1432 72.5948 87.0596 67.6544 87.0596 61.5601C87.0596 55.4658 82.1432 50.5254 76.0786 50.5254C70.014 50.5254 65.0977 55.4658 65.0977 61.5601C65.0977 67.6544 70.014 72.5948 76.0786 72.5948Z" fill="white"/>
<path d="M24.0275 96.9998C28.5673 95.1658 30.5618 89.4395 28.4824 84.2097C26.403 78.9799 21.0371 76.2271 16.4974 78.0611C11.9576 79.8951 9.96302 85.6214 12.0424 90.8512C14.1218 96.081 19.4877 98.8338 24.0275 96.9998Z" fill="#022222"/>
<path d="M118.988 90.8606C121.068 85.6308 119.073 79.9045 114.533 78.0705C109.994 76.2365 104.628 78.9893 102.548 84.2191C100.469 89.4489 102.463 95.1752 107.003 97.0092C111.543 98.8432 116.909 96.0904 118.988 90.8606Z" fill="#022222"/>
<path d="M82.0841 58.4092C81.1564 67.7181 70.9935 67.7181 70.0742 58.4092" stroke="#022222" stroke-width="2" stroke-linecap="round" stroke-linejoin="round"/>
<path d="M61.1115 58.4092C60.1837 67.7181 50.0209 67.7181 49.1016 58.4092" stroke="#022222" stroke-width="2" stroke-linecap="round" stroke-linejoin="round"/>
<path d="M70.3708 77.1882C67.6213 74.3403 63.1092 74.2723 60.2754 77.0352" stroke="#022222" stroke-width="2" stroke-linecap="round" stroke-linejoin="round"/>
</svg>
