<svg width="53" height="43" viewBox="0 0 53 43" fill="none" xmlns="http://www.w3.org/2000/svg">
<path d="M44.003 45.466L44.3521 40.8433L39.7638 40.4916L39.4148 45.1144L44.003 45.466Z" fill="#222222"/>
<path d="M47.7388 37.4396C49.2836 37.5588 50.434 38.9795 50.2237 41.7976C50.0527 44.0693 48.8399 45.8144 47.3083 45.7217L47.6599 41.0757L44.3633 40.824C44.7248 38.6285 46.3058 37.327 47.7388 37.4363V37.4396Z" fill="#222222"/>
<path d="M47.2472 45.7183L38.7278 45.066L39.0795 40.4199L44.3646 40.8239C44.3384 40.9928 44.3153 41.165 44.3022 41.3438C44.1017 44.1321 45.7122 45.5826 47.2472 45.7183Z" fill="#222222"/>
<path d="M47.2474 45.7184C45.7124 45.5826 44.1019 44.1322 44.3024 41.3439C44.3155 41.1651 44.3385 40.9929 44.3648 40.824L47.6615 41.0757L47.3098 45.7217C47.3098 45.7217 47.3032 45.7217 47.2999 45.7217H47.2474V45.7184Z" fill="#222222"/>
<path d="M23.6577 51.6029L24.2953 43.0162L19.684 42.6685L19.2896 47.9934C19.4572 47.9934 19.6314 47.9934 19.8089 48.0099C22.5764 48.2285 23.7596 50.0498 23.661 51.5996L23.6577 51.6029Z" fill="#222222"/>
<path d="M36.3351 14.5439L51.3229 18.8687C52.5128 19.2131 52.9269 20.7 52.0888 21.6173L41.5184 33.1645L42.0673 48.8644C42.11 50.1128 40.8347 50.9672 39.7107 50.4473L25.5445 43.8872L10.8953 49.2651C9.73173 49.6922 8.52876 48.7352 8.67338 47.4967L10.4877 31.8962L0.883658 19.5211C0.12112 18.5376 0.653579 17.0905 1.86641 16.8454L17.1533 13.7624L25.8666 0.738225C26.5602 -0.294966 28.0885 -0.232048 28.6966 0.854127L36.3318 14.5505L36.3351 14.5439Z" fill="#FF8F39"/>
<path d="M19.04 19.4083C20.2594 18.2924 22.077 17.9678 23.6514 18.7328" stroke="#222222" stroke-width="1.2983" stroke-linecap="round" stroke-linejoin="round"/>
<path d="M34.1395 19.9086C33.0615 18.6535 31.2932 18.1138 29.6399 18.6867" stroke="#222222" stroke-width="1.2983" stroke-linecap="round" stroke-linejoin="round"/>
<path d="M17.8989 28.7868C18.0802 28.7868 18.2272 28.6386 18.2272 28.4557C18.2272 28.2728 18.0802 28.1245 17.8989 28.1245C17.7175 28.1245 17.5706 28.2728 17.5706 28.4557C17.5706 28.6386 17.7175 28.7868 17.8989 28.7868Z" fill="#FFD298"/>
<path d="M18.5563 29.4489C18.7377 29.4489 18.8847 29.3007 18.8847 29.1178C18.8847 28.9349 18.7377 28.7866 18.5563 28.7866C18.375 28.7866 18.228 28.9349 18.228 29.1178C18.228 29.3007 18.375 29.4489 18.5563 29.4489Z" fill="#FFD298"/>
<path d="M17.7343 30.2768C17.9156 30.2768 18.0626 30.1285 18.0626 29.9457C18.0626 29.7628 17.9156 29.6145 17.7343 29.6145C17.553 29.6145 17.406 29.7628 17.406 29.9457C17.406 30.1285 17.553 30.2768 17.7343 30.2768Z" fill="#FFD298"/>
<path d="M18.8847 30.7736C19.066 30.7736 19.213 30.6254 19.213 30.4425C19.213 30.2596 19.066 30.1113 18.8847 30.1113C18.7034 30.1113 18.5564 30.2596 18.5564 30.4425C18.5564 30.6254 18.7034 30.7736 18.8847 30.7736Z" fill="#FFD298"/>
<path d="M19.8706 29.7802C20.0519 29.7802 20.1989 29.632 20.1989 29.4491C20.1989 29.2662 20.0519 29.1179 19.8706 29.1179C19.6892 29.1179 19.5422 29.2662 19.5422 29.4491C19.5422 29.632 19.6892 29.7802 19.8706 29.7802Z" fill="#FFD298"/>
<path d="M32.5578 29.6809C32.7391 29.6809 32.8861 29.5326 32.8861 29.3497C32.8861 29.1668 32.7391 29.0186 32.5578 29.0186C32.3765 29.0186 32.2295 29.1668 32.2295 29.3497C32.2295 29.5326 32.3765 29.6809 32.5578 29.6809Z" fill="#FFD298"/>
<path d="M33.5441 29.0187C33.7255 29.0187 33.8725 28.8705 33.8725 28.6876C33.8725 28.5047 33.7255 28.3564 33.5441 28.3564C33.3628 28.3564 33.2158 28.5047 33.2158 28.6876C33.2158 28.8705 33.3628 29.0187 33.5441 29.0187Z" fill="#FFD298"/>
<path d="M33.5441 30.0119C33.7255 30.0119 33.8725 29.8636 33.8725 29.6808C33.8725 29.4979 33.7255 29.3496 33.5441 29.3496C33.3628 29.3496 33.2158 29.4979 33.2158 29.6808C33.2158 29.8636 33.3628 30.0119 33.5441 30.0119Z" fill="#FFD298"/>
<path d="M33.2158 31.0053C33.3971 31.0053 33.5441 30.8571 33.5441 30.6742C33.5441 30.4913 33.3971 30.343 33.2158 30.343C33.0344 30.343 32.8875 30.4913 32.8875 30.6742C32.8875 30.8571 33.0344 31.0053 33.2158 31.0053Z" fill="#FFD298"/>
<path d="M34.8586 29.6809C35.0399 29.6809 35.1869 29.5326 35.1869 29.3497C35.1869 29.1668 35.0399 29.0186 34.8586 29.0186C34.6773 29.0186 34.5303 29.1668 34.5303 29.3497C34.5303 29.5326 34.6773 29.6809 34.8586 29.6809Z" fill="#FFD298"/>
<path d="M28.0323 29.5751C26.7701 30.4593 25.038 30.1447 24.1604 28.873" stroke="#222222" stroke-width="1.2983" stroke-linecap="round" stroke-linejoin="round"/>
<path d="M22.297 28.1244C24.6605 28.1244 26.5764 26.2 26.5764 23.826C26.5764 21.4521 24.6605 19.5277 22.297 19.5277C19.9335 19.5277 18.0176 21.4521 18.0176 23.826C18.0176 26.2 19.9335 28.1244 22.297 28.1244Z" fill="white"/>
<path d="M30.5926 28.1244C32.9561 28.1244 34.8721 26.2 34.8721 23.826C34.8721 21.4521 32.9561 19.5277 30.5926 19.5277C28.2292 19.5277 26.3132 21.4521 26.3132 23.826C26.3132 26.2 28.2292 28.1244 30.5926 28.1244Z" fill="white"/>
<path d="M20.5581 26.227C21.974 26.227 23.1218 25.075 23.1218 23.654C23.1218 22.2329 21.974 21.0809 20.5581 21.0809C19.1422 21.0809 17.9944 22.2329 17.9944 23.654C17.9944 25.075 19.1422 26.227 20.5581 26.227Z" fill="#222222"/>
<path d="M28.8769 26.227C30.2928 26.227 31.4406 25.075 31.4406 23.654C31.4406 22.2329 30.2928 21.0809 28.8769 21.0809C27.461 21.0809 26.3132 22.2329 26.3132 23.654C26.3132 25.075 27.461 26.227 28.8769 26.227Z" fill="#222222"/>
<path d="M10.4471 35.8866C12.2163 35.1722 12.9936 32.9417 12.1833 30.9045C11.3729 28.8674 9.28173 27.7951 7.51252 28.5094C5.74331 29.2238 4.96601 31.4544 5.77637 33.4916C6.58674 35.5287 8.67789 36.601 10.4471 35.8866Z" fill="#222222"/>
<path d="M40.2494 30.1312C41.0514 28.8795 42.3464 28.1774 43.5986 28.1807L44.2067 26.2303C44.3776 25.6806 44.9594 25.3759 45.505 25.5481C46.0506 25.7203 46.353 26.3064 46.1821 26.8561L45.5543 28.8695C45.5543 28.8695 45.5773 28.8894 45.5871 28.896L47.5066 27.8794C48.0128 27.6112 48.6373 27.8065 48.9035 28.3165C49.1698 28.8265 48.9758 29.4557 48.4697 29.7239L46.6554 30.6876C46.8887 31.7075 46.7047 32.8765 46.0506 33.8964C44.8706 35.7409 42.6159 36.3933 41.0119 35.3535C39.4112 34.3137 39.0661 31.9757 40.2461 30.1312H40.2494Z" fill="#222222"/>
</svg>
