<svg width="430" height="374" viewBox="0 0 430 374" fill="none" xmlns="http://www.w3.org/2000/svg">
<g clip-path="url(#clip0_262_11550)">
<path d="M391.189 43.438C391.663 41.3921 391.95 39.2785 391.95 37.0973C391.95 21.8797 379.617 9.55332 364.391 9.55332C356.44 9.55332 349.301 12.935 344.276 18.3119C337.374 7.3214 325.142 0 311.202 0C289.632 0 272.156 17.4665 272.156 39.0249C272.156 40.8679 272.291 42.6941 272.545 44.4695C260.584 47.9695 251.838 58.9939 251.838 72.0811C251.838 87.9751 264.729 100.859 280.632 100.859C280.902 100.859 281.173 100.826 281.444 100.826C281.715 100.826 281.968 100.859 282.239 100.859H385.708C386.181 100.859 386.621 100.826 387.095 100.792C387.552 100.809 388.025 100.859 388.482 100.859C404.385 100.859 417.276 87.9751 417.276 72.0811C417.276 57.1001 405.806 44.7907 391.172 43.438H391.189Z" fill="#FFD298"/>
<path d="M186.062 291.233C175.082 294.209 169.296 302.951 170.599 310.238C172.003 318.084 179.819 323.258 194.03 320.721C205.5 318.675 213.739 311.574 212.487 303.796L189.056 307.972L186.079 291.233H186.062Z" fill="#222222"/>
<path d="M212.454 303.643C212.454 303.643 212.42 303.542 212.42 303.491L212.471 303.762C212.471 303.762 212.471 303.694 212.471 303.643H212.454Z" fill="#222222"/>
<path d="M212.419 303.491L204.704 260.206L181.273 264.382L186.061 291.233C186.907 291.013 187.77 290.81 188.666 290.641C202.742 288.189 210.947 295.697 212.436 303.491H212.419Z" fill="#222222"/>
<path d="M212.42 303.491C210.948 295.697 202.726 288.206 188.65 290.641C187.754 290.793 186.891 290.996 186.045 291.233L189.022 307.972L212.453 303.796C212.453 303.796 212.453 303.762 212.453 303.745L212.403 303.474L212.42 303.491Z" fill="#222222"/>
<path d="M240.267 285.822C229.287 288.798 223.501 297.539 224.804 304.827C226.208 312.673 234.024 317.847 248.235 315.31C259.705 313.264 267.944 306.163 266.692 298.385L243.261 302.561L240.284 285.822H240.267Z" fill="#222222"/>
<path d="M266.659 298.232C266.659 298.232 266.625 298.131 266.625 298.08L266.676 298.351C266.676 298.351 266.676 298.283 266.676 298.232H266.659Z" fill="#222222"/>
<path d="M266.624 298.08L258.91 254.794L235.479 258.971L240.266 285.822C241.112 285.602 241.975 285.399 242.872 285.23C256.947 282.778 265.152 290.285 266.641 298.08H266.624Z" fill="#222222"/>
<path d="M266.625 298.08C265.153 290.285 256.931 282.795 242.855 285.23C241.959 285.382 241.096 285.585 240.25 285.822L243.228 302.561L266.659 298.385C266.659 298.385 266.659 298.351 266.659 298.334L266.608 298.063L266.625 298.08Z" fill="#222222"/>
<path d="M339.572 203.004C339.572 178.486 326.19 156.911 305.906 144.365C306.566 140.07 306.921 135.674 306.921 131.193C306.921 82.5135 266.014 43.0659 215.566 43.0659C165.117 43.0659 124.21 82.5304 124.21 131.193C124.21 135.775 124.565 140.256 125.276 144.652C105.262 157.249 92.0664 178.672 92.0664 203.021C92.0664 237.903 119.135 266.817 154.611 272.261C170.784 275.88 192.135 278.095 215.566 278.095C238.997 278.095 259.484 275.964 275.522 272.481C311.726 267.628 339.555 238.376 339.555 203.021L339.572 203.004Z" fill="#FF8F39"/>
<path d="M185.385 78.8104C185.385 78.8104 192.423 101.975 215.312 91.5763C215.312 91.5763 225.057 87.3661 220.743 75.8514C216.429 64.3367 201.964 74.0253 209.831 86.9434C217.698 99.8615 246.931 104.19 251.837 81.7187" stroke="#FFD298" stroke-width="2" stroke-linecap="round" stroke-linejoin="round"/>
<path d="M258.816 189.201C268.591 188.362 275.737 178.631 274.777 167.466C273.817 156.301 265.116 147.93 255.341 148.769C245.566 149.609 238.421 159.34 239.38 170.505C240.34 181.67 249.042 190.04 258.816 189.201Z" fill="#222222"/>
<path d="M175.607 170.495C176.567 159.33 169.421 149.599 159.646 148.76C149.872 147.921 141.17 156.291 140.21 167.456C139.251 178.621 146.396 188.352 156.171 189.191C165.946 190.031 174.647 181.66 175.607 170.495Z" fill="#222222"/>
<path d="M194.097 148.068C206.262 148.068 216.124 138.242 216.124 126.121C216.124 113.999 206.262 104.173 194.097 104.173C181.932 104.173 172.07 113.999 172.07 126.121C172.07 138.242 181.932 148.068 194.097 148.068Z" fill="white"/>
<path d="M236.798 148.068C248.963 148.068 258.825 138.242 258.825 126.121C258.825 113.999 248.963 104.173 236.798 104.173C224.633 104.173 214.771 113.999 214.771 126.121C214.771 138.242 224.633 148.068 236.798 148.068Z" fill="white"/>
<path d="M185.25 138.379C192.538 138.379 198.446 132.497 198.446 125.241C198.446 117.986 192.538 112.104 185.25 112.104C177.963 112.104 172.055 117.986 172.055 125.241C172.055 132.497 177.963 138.379 185.25 138.379Z" fill="#222222"/>
<path d="M227.95 138.379C235.238 138.379 241.146 132.497 241.146 125.241C241.146 117.986 235.238 112.104 227.95 112.104C220.662 112.104 214.754 117.986 214.754 125.241C214.754 132.497 220.662 138.379 227.95 138.379Z" fill="#222222"/>
<path d="M211.032 166.295C216.161 166.295 220.32 161.624 220.32 155.863C220.32 150.101 216.161 145.43 211.032 145.43C205.902 145.43 201.744 150.101 201.744 155.863C201.744 161.624 205.902 166.295 211.032 166.295Z" fill="#222222"/>
<path d="M231.723 166.312C228.966 165.044 227.037 162.254 227.037 159.025C227.037 155.795 228.983 152.971 231.774 151.72" stroke="#FFD298" stroke-width="2" stroke-linecap="round" stroke-linejoin="round"/>
<path d="M192.762 166.312C195.519 165.044 197.448 162.254 197.448 159.025C197.448 155.795 195.502 152.971 192.711 151.72" stroke="#FFD298" stroke-width="2" stroke-linecap="round" stroke-linejoin="round"/>
<path d="M204.688 169.407C195.384 195.463 163.646 198.675 156.287 199.064C152.311 194.347 146.356 191.337 139.708 191.337C136.239 191.337 132.974 192.166 130.081 193.62C125.429 190.475 119.44 188.581 112.91 188.581C104.569 188.581 97.1257 191.658 92.2027 196.494C87.1443 196.156 81.6629 197.12 76.3677 199.555C66.5047 204.103 60.0591 212.507 58.9594 220.893C49.9254 223.514 43.3105 231.816 43.3105 241.708C43.3105 253.679 53.0213 263.384 64.999 263.384C66.5893 263.384 68.1457 263.198 69.6514 262.877C73.6101 267.054 79.193 269.691 85.4018 269.691C93.7929 269.691 101.051 264.923 104.654 257.974C111.455 260.189 119.914 259.479 127.679 255.387C136.764 250.602 142.55 242.435 143.548 234.369C152.413 232.797 159.417 225.831 161.041 216.97C205.788 203.275 204.722 169.441 204.722 169.441L204.688 169.407Z" fill="#FFD298"/>
<path d="M220.319 374.017C255.619 374.017 284.234 367.188 284.234 358.765C284.234 350.342 255.619 343.514 220.319 343.514C185.02 343.514 156.404 350.342 156.404 358.765C156.404 367.188 185.02 374.017 220.319 374.017Z" fill="#A7A7A7"/>
<path d="M54.0533 82.4291C54.5777 80.8397 54.8653 79.1319 54.8653 77.3734C54.8653 68.4288 47.6076 61.1581 38.6413 61.1581C33.8536 61.1581 29.5565 63.2548 26.579 66.552C22.8401 59.6026 15.4979 54.8682 7.03902 54.8682C-5.20938 54.8682 -15.1231 64.7935 -15.1231 77.0183C-15.1231 78.7768 -14.9032 80.4846 -14.5141 82.1247C-21.6872 83.7987 -27.0332 90.2239 -27.0332 97.9004C-27.0332 106.845 -19.7755 114.116 -10.8091 114.116C-10.1324 114.116 -9.47264 114.065 -8.81285 113.98C-6.76581 119.442 -1.50441 123.348 4.68746 123.348C8.29093 123.348 11.5899 122.012 14.1106 119.831C17.7987 124.886 23.7368 128.184 30.47 128.184C39.4026 128.184 46.9479 122.401 49.6547 114.386C50.8558 114.674 52.0908 114.826 53.3766 114.826C62.326 114.826 69.6006 107.572 69.6006 98.6106C69.6006 89.649 62.6982 82.7842 54.0533 82.4291ZM26.5282 88.0934C26.4267 88.1103 26.3083 88.1442 26.2068 88.1611C26.2575 88.0765 26.3083 87.992 26.359 87.9075C26.4098 87.9751 26.4774 88.0258 26.5282 88.0934Z" fill="#FFD298"/>
<path d="M437.238 263.029C437.069 263.029 436.9 263.046 436.73 263.046C436.849 262.099 436.917 261.153 436.917 260.172C436.917 246.78 426.055 235.942 412.674 235.942C400.29 235.942 390.105 245.225 388.634 257.196C386.434 256.469 384.1 256.063 381.663 256.063C369.381 256.063 359.434 266.005 359.434 278.281C359.434 290.556 369.381 300.499 381.663 300.499C381.765 300.499 381.866 300.499 381.968 300.499C382.222 300.499 382.459 300.533 382.712 300.533H435.174C435.529 300.533 435.868 300.499 436.206 300.482C436.561 300.499 436.9 300.533 437.255 300.533C447.626 300.533 456.017 292.129 456.017 281.781C456.017 271.433 447.609 263.029 437.255 263.029H437.238Z" fill="#FFD298"/>
</g>
<defs>
<clipPath id="clip0_262_11550">
<rect width="483" height="374" fill="white" transform="translate(-27)"/>
</clipPath>
</defs>
</svg>
