<svg width="24" height="24" viewBox="0 0 24 24" fill="none" xmlns="http://www.w3.org/2000/svg">
<path d="M5 11.5H4C3.2 11.1 3 12.3333 3 13C4 14.8333 6.4 18.9 8 20.5C9.6 22.1 12.3333 21.5 13.5 21L17 17L19 13L16.5 8.5L15 7.5L13.5 8.5L12.5 6.5L11 5.5H10L9 6.5L8.5 6H7L6.5 6.5L7 8H6L4.5 9L5 11.5Z" fill="#FFD298"/>
<path d="M5.7388 12.0126C5.64249 11.8457 5.51424 11.6993 5.36138 11.5819C5.20852 11.4646 5.03403 11.3785 4.84789 11.3285C4.66175 11.2786 4.46759 11.2658 4.2765 11.2909C4.08541 11.316 3.90114 11.3785 3.7342 11.4748C3.56727 11.5711 3.42093 11.6993 3.30356 11.8522C3.18619 12.0051 3.10007 12.1795 3.05013 12.3657C3.00019 12.5518 2.9874 12.746 3.01249 12.9371C3.03759 13.1282 3.10008 13.3124 3.19639 13.4794L6.21143 18.7027C6.99743 20.0344 8.27735 21.0019 9.77288 21.3949C11.2684 21.7879 12.8586 21.5746 14.1977 20.8014C15.5368 20.0282 16.5166 18.7576 16.9239 17.266C17.3313 15.7743 17.1332 14.1821 16.373 12.8356L14.9877 10.4317C14.7812 10.1204 14.4637 9.89953 14.1 9.81425C13.7363 9.72897 13.3538 9.78568 13.0304 9.97281C12.7071 10.1599 12.4674 10.4634 12.3601 10.8213C12.2529 11.1791 12.2863 11.5644 12.4534 11.8985" stroke="#FF8F39" stroke-width="1.2" stroke-linecap="round" stroke-linejoin="round"/>
<path d="M10.2369 13.9356L7.14041 8.57374C7.0441 8.4068 6.91586 8.26047 6.76299 8.1431C6.61013 8.02572 6.43564 7.93961 6.2495 7.88967C6.06336 7.83973 5.8692 7.82694 5.67811 7.85203C5.48703 7.87713 5.30275 7.93961 5.13582 8.03592C4.96888 8.13223 4.82255 8.26048 4.70517 8.41334C4.5878 8.56621 4.50168 8.74069 4.45174 8.92684C4.4018 9.11298 4.38901 9.30714 4.41411 9.49823C4.4392 9.68931 4.50169 9.87358 4.598 10.0405L7.69453 15.4024" stroke="#FF8F39" stroke-width="1.2" stroke-linecap="round" stroke-linejoin="round"/>
<path d="M13.7572 14.1638L10.3347 8.23152C10.1402 7.89438 9.81971 7.64831 9.44378 7.54745C9.06784 7.44659 8.66724 7.4992 8.33009 7.6937C7.99295 7.88821 7.74688 8.20868 7.64602 8.58462C7.54516 8.96055 7.59777 9.36116 7.79228 9.6983" stroke="#FF8F39" stroke-width="1.2" stroke-linecap="round" stroke-linejoin="round"/>
<path d="M9.58503 7.59591L8.7457 6.13728C8.5512 5.80014 8.23072 5.55407 7.85479 5.45321C7.47885 5.35235 7.07825 5.40496 6.7411 5.59947C6.40396 5.79397 6.15789 6.11444 6.05703 6.49038C5.95617 6.86631 6.00878 7.26692 6.20329 7.60406L6.39886 7.93816" stroke="#FF8F39" stroke-width="1.2" stroke-linecap="round" stroke-linejoin="round"/>
<path d="M16.8375 17.6841C17.832 16.7835 18.4884 15.5697 18.6974 14.2443C18.9064 12.919 18.6556 11.5621 17.9865 10.3991L16.6012 8.00337C16.5049 7.83643 16.3766 7.6901 16.2237 7.57272C16.0709 7.45535 15.8964 7.36924 15.7103 7.31929C15.5241 7.26935 15.33 7.25656 15.1389 7.28166C14.9478 7.30675 14.7635 7.36924 14.5966 7.46555C14.4296 7.56186 14.2833 7.69011 14.1659 7.84297C14.0486 7.99583 13.9624 8.17032 13.9125 8.35646C13.8626 8.54261 13.8498 8.73677 13.8749 8.92785C13.9 9.11894 13.9624 9.30321 14.0588 9.47015" stroke="#FF8F39" stroke-width="1.2" stroke-linecap="round" stroke-linejoin="round"/>
<path d="M14.2461 9.79608L11.94 5.80318C11.7455 5.46603 11.4251 5.21996 11.0491 5.1191C10.6732 5.01824 10.2726 5.07085 9.93544 5.26536C9.5983 5.45987 9.35223 5.78034 9.25137 6.15627C9.1505 6.53221 9.20311 6.93281 9.39762 7.26996" stroke="#FF8F39" stroke-width="1.2" stroke-linecap="round" stroke-linejoin="round"/>
<path d="M15.9248 3L15.5907 4.25491" stroke="#FF8F39" stroke-width="1.2" stroke-linecap="round" stroke-linejoin="round"/>
<path d="M18.3939 4.14899L17.6442 5.21648" stroke="#FF8F39" stroke-width="1.2" stroke-linecap="round" stroke-linejoin="round"/>
<path d="M20.3088 6.06396L19.2413 6.81365" stroke="#FF8F39" stroke-width="1.2" stroke-linecap="round" stroke-linejoin="round"/>
</svg>
