<svg width="24" height="24" viewBox="0 0 24 24" fill="none" xmlns="http://www.w3.org/2000/svg">
<path d="M20.4179 5.86816H3.58203" stroke="#FF5353" stroke-width="1.53054" stroke-linecap="round" stroke-linejoin="round"/>
<path d="M9.70508 10.46V16.5821" stroke="#FF5353" stroke-width="1.53054" stroke-linecap="round" stroke-linejoin="round"/>
<path d="M14.2969 10.46V16.5821" stroke="#FF5353" stroke-width="1.53054" stroke-linecap="round" stroke-linejoin="round"/>
<path d="M18.8881 5.86816V20.4083C18.8881 20.6112 18.8075 20.8059 18.664 20.9494C18.5205 21.0929 18.3258 21.1735 18.1228 21.1735H5.87855C5.67559 21.1735 5.48094 21.0929 5.33742 20.9494C5.19391 20.8059 5.11328 20.6112 5.11328 20.4083V5.86816" stroke="#FF5353" stroke-width="1.53054" stroke-linecap="round" stroke-linejoin="round"/>
<path d="M15.8265 5.86869V4.33815C15.8265 3.93223 15.6653 3.54293 15.3782 3.2559C15.0912 2.96887 14.7019 2.80762 14.296 2.80762H9.70436C9.29844 2.80762 8.90914 2.96887 8.62211 3.2559C8.33508 3.54293 8.17383 3.93223 8.17383 4.33815V5.86869" stroke="#FF5353" stroke-width="1.53054" stroke-linecap="round" stroke-linejoin="round"/>
</svg>
