<svg width="24" height="24" viewBox="0 0 24 24" fill="none" xmlns="http://www.w3.org/2000/svg">
<path d="M12.857 3.64062H11.143C10.462 3.64062 10.121 3.64063 9.812 3.72955C9.538 3.80808 9.283 3.93769 9.062 4.10892C8.812 4.30287 8.624 4.57155 8.246 5.10796L7.103 6.72951C5.579 6.72951 4.817 6.72951 4.235 7.00954C3.72325 7.25668 3.30737 7.65079 3.047 8.13535C2.75 8.68501 2.75 9.40591 2.75 10.8477V16.1939C2.75 17.6357 2.75 18.3566 3.047 18.9072C3.307 19.3916 3.724 19.7851 4.235 20.032C4.817 20.3121 5.579 20.3121 7.103 20.3121H16.897C18.421 20.3121 19.183 20.3121 19.765 20.032C20.2767 19.7849 20.6926 19.3908 20.953 18.9062C21.25 18.3566 21.25 17.6357 21.25 16.1939V10.8477C21.25 9.40591 21.25 8.68501 20.953 8.1344C20.6925 7.6502 20.2766 7.25644 19.765 7.00954C19.183 6.72951 18.421 6.72951 16.897 6.72951L15.754 5.10796C15.376 4.57155 15.187 4.30381 14.938 4.10892C14.7165 3.93752 14.4617 3.80866 14.188 3.72955C13.879 3.64063 13.538 3.64062 12.857 3.64062Z" stroke="#A7A7A7" stroke-width="1.5" stroke-linecap="round" stroke-linejoin="round"/>
<path d="M15.7746 13.1231C15.7746 13.5921 15.677 14.0565 15.4873 14.4898C15.2975 14.9231 15.0195 15.3168 14.6689 15.6485C14.3184 15.9801 13.9022 16.2432 13.4442 16.4226C12.9862 16.6021 12.4953 16.6945 11.9996 16.6945C11.5039 16.6945 11.013 16.6021 10.555 16.4226C10.097 16.2432 9.68082 15.9801 9.33028 15.6485C8.97974 15.3168 8.70168 14.9231 8.51196 14.4898C8.32225 14.0565 8.22461 13.5921 8.22461 13.1231C8.22461 12.1759 8.62233 11.2676 9.33028 10.5978C10.0382 9.92803 10.9984 9.55176 11.9996 9.55176C13.0008 9.55176 13.961 9.92803 14.6689 10.5978C15.3769 11.2676 15.7746 12.1759 15.7746 13.1231Z" stroke="#A7A7A7" stroke-width="1.5" stroke-linecap="round" stroke-linejoin="round"/>
</svg>
