<svg width="34" height="35" viewBox="0 0 34 35" fill="none" xmlns="http://www.w3.org/2000/svg">
<path d="M13.4583 16.0243C11.6639 16.0243 10.2118 14.5722 10.2118 12.7778C10.2118 10.9833 11.6639 9.53125 13.4583 9.53125C15.2528 9.53125 16.7049 10.9833 16.7049 12.7778C16.7049 14.5722 15.2528 16.0243 13.4583 16.0243ZM13.4583 11.3021C12.6438 11.3021 11.9826 11.9632 11.9826 12.7778C11.9826 13.5924 12.6438 14.2535 13.4583 14.2535C14.2729 14.2535 14.934 13.5924 14.934 12.7778C14.934 11.9632 14.2729 11.3021 13.4583 11.3021Z" fill="#7A7A7A"/>
<path d="M20.5417 30.191H13.4583C7.04791 30.191 4.30902 27.4521 4.30902 21.0417V13.9584C4.30902 7.54797 7.04791 4.80908 13.4583 4.80908H18.1805C18.6646 4.80908 19.066 5.21047 19.066 5.6945C19.066 6.17853 18.6646 6.57992 18.1805 6.57992H13.4583C8.01597 6.57992 6.07985 8.51603 6.07985 13.9584V21.0417C6.07985 26.4841 8.01597 28.4202 13.4583 28.4202H20.5417C25.984 28.4202 27.9201 26.4841 27.9201 21.0417V15.1389C27.9201 14.6549 28.3215 14.2535 28.8055 14.2535C29.2896 14.2535 29.691 14.6549 29.691 15.1389V21.0417C29.691 27.4521 26.9521 30.191 20.5417 30.191Z" fill="#7A7A7A"/>
<path d="M27.9201 10.1217H21.4271C20.9431 10.1217 20.5417 9.72027 20.5417 9.23625C20.5417 8.75222 20.9431 8.35083 21.4271 8.35083H27.9201C28.4042 8.35083 28.8056 8.75222 28.8056 9.23625C28.8056 9.72027 28.4042 10.1217 27.9201 10.1217Z" fill="#7A7A7A"/>
<path d="M24.6736 13.3681C24.1896 13.3681 23.7882 12.9667 23.7882 12.4827V5.98966C23.7882 5.50564 24.1896 5.10425 24.6736 5.10425C25.1576 5.10425 25.559 5.50564 25.559 5.98966V12.4827C25.559 12.9667 25.1576 13.3681 24.6736 13.3681Z" fill="#7A7A7A"/>
<path d="M5.9854 26.5902C5.70207 26.5902 5.41873 26.4486 5.25346 26.2006C4.98193 25.7992 5.08818 25.2444 5.48957 24.9729L11.3097 21.0652C12.5847 20.2152 14.3437 20.3097 15.5007 21.2895L15.8903 21.6319C16.4805 22.1395 17.484 22.1395 18.0625 21.6319L22.9736 17.4173C24.2368 16.343 26.1965 16.343 27.4597 17.4173L29.384 19.0701C29.75 19.3888 29.7972 19.9437 29.4785 20.3215C29.1597 20.6874 28.6048 20.7347 28.2271 20.4159L26.3028 18.7631C25.7125 18.2555 24.709 18.2555 24.1305 18.7631L19.2194 22.9777C17.968 24.052 15.9965 24.052 14.7333 22.9777L14.3437 22.6354C13.8007 22.1749 12.9035 22.1277 12.3014 22.5409L6.49304 26.4486C6.32776 26.543 6.15068 26.5902 5.9854 26.5902Z" fill="#7A7A7A"/>
</svg>
