<svg width="24" height="24" viewBox="0 0 24 24" fill="none" xmlns="http://www.w3.org/2000/svg">
<path d="M7.83213 16.429C7.72358 16.4672 7.62281 16.5246 7.53467 16.5985L4.84062 18.8586C4.74047 18.9415 4.61886 18.9943 4.48991 19.0108C4.36096 19.0274 4.22996 19.007 4.11211 18.9522C3.99425 18.8973 3.89438 18.8101 3.82406 18.7008C3.75374 18.5914 3.71587 18.4644 3.71484 18.3344V4.6875C3.71484 4.50516 3.78728 4.3303 3.91621 4.20136C4.04514 4.07243 4.22001 4 4.40234 4H19.5273C19.7097 4 19.8845 4.07243 20.0135 4.20136C20.1424 4.3303 20.2148 4.50516 20.2148 4.6875V15.6875C20.2148 15.8698 20.1424 16.0447 20.0135 16.1736C19.8845 16.3026 19.7097 16.375 19.5273 16.375H8.14896C8.04106 16.375 7.93393 16.3933 7.83213 16.429V16.429Z" stroke="#7A7A7A" stroke-width="1.5" stroke-linecap="round" stroke-linejoin="round"/>
<path d="M7 8.8125H16.05" stroke="#7A7A7A" stroke-width="1.375" stroke-linecap="round" stroke-linejoin="round"/>
<path d="M7 11.5625H13.1428" stroke="#7A7A7A" stroke-width="1.375" stroke-linecap="round" stroke-linejoin="round"/>
</svg>
