<svg width="16" height="16" viewBox="0 0 16 16" fill="none" xmlns="http://www.w3.org/2000/svg">
<path d="M15.5742 8C15.5742 9.98912 14.784 11.8968 13.3775 13.3033C11.971 14.7098 10.0633 15.5 8.07422 15.5C6.08509 15.5 4.17744 14.7098 2.77092 13.3033C1.3644 11.8968 0.574219 9.98912 0.574219 8C0.574219 6.01088 1.3644 4.10322 2.77092 2.6967C4.17744 1.29018 6.08509 0.5 8.07422 0.5C10.0633 0.5 11.971 1.29018 13.3775 2.6967C14.784 4.10322 15.5742 6.01088 15.5742 8ZM5.59359 4.85563C5.50558 4.76761 5.3862 4.71816 5.26172 4.71816C5.13724 4.71816 5.01786 4.76761 4.92984 4.85563C4.84183 4.94364 4.79238 5.06302 4.79238 5.1875C4.79238 5.31198 4.84183 5.43136 4.92984 5.51937L7.41141 8L4.92984 10.4806C4.88626 10.5242 4.85169 10.5759 4.8281 10.6329C4.80452 10.6898 4.79238 10.7509 4.79238 10.8125C4.79238 10.8741 4.80452 10.9352 4.8281 10.9921C4.85169 11.0491 4.88626 11.1008 4.92984 11.1444C5.01786 11.2324 5.13724 11.2818 5.26172 11.2818C5.32335 11.2818 5.38439 11.2697 5.44133 11.2461C5.49827 11.2225 5.55001 11.188 5.59359 11.1444L8.07422 8.66281L10.5548 11.1444C10.5984 11.188 10.6502 11.2225 10.7071 11.2461C10.7641 11.2697 10.8251 11.2818 10.8867 11.2818C10.9484 11.2818 11.0094 11.2697 11.0663 11.2461C11.1233 11.2225 11.175 11.188 11.2186 11.1444C11.2622 11.1008 11.2967 11.0491 11.3203 10.9921C11.3439 10.9352 11.3561 10.8741 11.3561 10.8125C11.3561 10.7509 11.3439 10.6898 11.3203 10.6329C11.2967 10.5759 11.2622 10.5242 11.2186 10.4806L8.73703 8L11.2186 5.51937C11.2622 5.47579 11.2967 5.42405 11.3203 5.36711C11.3439 5.31017 11.3561 5.24914 11.3561 5.1875C11.3561 5.12586 11.3439 5.06483 11.3203 5.00789C11.2967 4.95095 11.2622 4.89921 11.2186 4.85563C11.175 4.81204 11.1233 4.77747 11.0663 4.75388C11.0094 4.7303 10.9484 4.71816 10.8867 4.71816C10.8251 4.71816 10.7641 4.7303 10.7071 4.75388C10.6502 4.77747 10.5984 4.81204 10.5548 4.85563L8.07422 7.33719L5.59359 4.85563Z" fill="#222222"/>
</svg>
