<svg width="22" height="22" viewBox="0 0 22 22" fill="none" xmlns="http://www.w3.org/2000/svg">
<circle cx="11.0007" cy="10.6393" r="6.41667" fill="white"/>
<path d="M20.2591 10.9997C20.2591 13.4308 19.2933 15.7624 17.5743 17.4815C15.8552 19.2006 13.5236 20.1663 11.0924 20.1663C8.6613 20.1663 6.32972 19.2006 4.61064 17.4815C2.89155 15.7624 1.92578 13.4308 1.92578 10.9997C1.92578 8.56852 2.89155 6.23695 4.61064 4.51786C6.32972 2.79878 8.6613 1.83301 11.0924 1.83301C13.5236 1.83301 15.8552 2.79878 17.5743 4.51786C19.2933 6.23695 20.2591 8.56852 20.2591 10.9997ZM8.06057 7.15655C7.95299 7.04897 7.80709 6.98853 7.65495 6.98853C7.50281 6.98853 7.3569 7.04897 7.24932 7.15655C7.14174 7.26413 7.08131 7.41004 7.08131 7.56217C7.08131 7.71431 7.14174 7.86022 7.24932 7.9678L10.2823 10.9997L7.24932 14.0315C7.19606 14.0848 7.1538 14.1481 7.12497 14.2177C7.09615 14.2872 7.08131 14.3618 7.08131 14.4372C7.08131 14.5125 7.09615 14.5871 7.12497 14.6567C7.1538 14.7263 7.19606 14.7895 7.24932 14.8428C7.3569 14.9504 7.50281 15.0108 7.65495 15.0108C7.73028 15.0108 7.80487 14.996 7.87447 14.9671C7.94407 14.9383 8.00731 14.8961 8.06057 14.8428L11.0924 11.8098L14.1243 14.8428C14.1776 14.8961 14.2408 14.9383 14.3104 14.9671C14.38 14.996 14.4546 15.0108 14.5299 15.0108C14.6053 15.0108 14.6799 14.996 14.7495 14.9671C14.8191 14.9383 14.8823 14.8961 14.9356 14.8428C14.9888 14.7895 15.0311 14.7263 15.0599 14.6567C15.0888 14.5871 15.1036 14.5125 15.1036 14.4372C15.1036 14.3618 15.0888 14.2872 15.0599 14.2177C15.0311 14.1481 14.9888 14.0848 14.9356 14.0315L11.9026 10.9997L14.9356 7.9678C14.9888 7.91453 15.0311 7.85129 15.0599 7.7817C15.0888 7.7121 15.1036 7.63751 15.1036 7.56217C15.1036 7.48684 15.0888 7.41225 15.0599 7.34265C15.0311 7.27305 14.9888 7.20982 14.9356 7.15655C14.8823 7.10328 14.8191 7.06103 14.7495 7.0322C14.6799 7.00337 14.6053 6.98853 14.5299 6.98853C14.4546 6.98853 14.38 7.00337 14.3104 7.0322C14.2408 7.06103 14.1776 7.10328 14.1243 7.15655L11.0924 10.1896L8.06057 7.15655Z" fill="#FF8F39"/>
</svg>
