<svg width="30" height="29" viewBox="0 0 30 29" fill="none" xmlns="http://www.w3.org/2000/svg">
<path d="M14.7165 0C6.59079 0 -0.000570297 6.07332 -0.000570297 13.5675C-0.000570297 18.4667 2.81655 22.754 7.03482 25.1419L6.14676 29L10.3897 26.5381C11.7563 26.9279 13.2117 27.1351 14.7165 27.1351C22.8422 27.1351 29.4336 21.0618 29.4336 13.5675C29.4336 6.07332 22.8472 0 14.7165 0Z" fill="#A7A7A7"/>
<path d="M14.079 17.7017C13.0034 17.4847 12.2387 17.9978 12.0414 18.9796C11.844 19.9614 12.3571 20.7261 13.4327 20.9432C14.5082 21.1602 15.2729 20.6619 15.4703 19.6653C15.6676 18.6687 15.1545 17.9188 14.079 17.7017ZM16.0327 16.4289L17.7299 7.95285C17.9371 6.91185 17.2612 6.21127 16.4126 6.03859C15.564 5.86592 14.6661 6.27048 14.4589 7.29668L12.7617 15.7727L16.0327 16.4289Z" fill="white"/>
</svg>
