<svg width="24" height="24" viewBox="0 0 24 24" fill="none" xmlns="http://www.w3.org/2000/svg">
<path d="M21.2114 8.99087C21.2114 14.836 11.9999 19.7955 11.9999 19.7955C11.9999 19.7955 2.78851 14.836 2.78851 8.99087C2.78851 7.72251 3.29242 6.50609 4.18938 5.60922C5.08634 4.71235 6.30288 4.2085 7.57137 4.2085C9.5722 4.2085 11.2861 5.2987 11.9999 7.0425C12.7138 5.2987 14.4277 4.2085 16.4285 4.2085C17.697 4.2085 18.9135 4.71235 19.8105 5.60922C20.7075 6.50609 21.2114 7.72251 21.2114 8.99087Z" fill="#FFD298"/>
<path d="M16.4286 3.5C14.5996 3.5 12.9982 4.28644 12 5.61576C11.0018 4.28644 9.40045 3.5 7.57145 3.5C6.11553 3.50164 4.71972 4.08067 3.69023 5.11005C2.66074 6.13944 2.08166 7.53511 2.08002 8.99088C2.08002 15.1903 11.2728 20.2082 11.6643 20.4154C11.7675 20.4709 11.8829 20.5 12 20.5C12.1172 20.5 12.2325 20.4709 12.3357 20.4154C12.7272 20.2082 21.92 15.1903 21.92 8.99088C21.9184 7.53511 21.3393 6.13944 20.3098 5.11005C19.2803 4.08067 17.8845 3.50164 16.4286 3.5ZM12 18.9807C10.3827 18.0384 3.49716 13.7458 3.49716 8.99088C3.49857 7.91085 3.92827 6.87546 4.69204 6.11176C5.45582 5.34807 6.49131 4.91841 7.57145 4.917C9.29416 4.917 10.7405 5.83451 11.3446 7.30819C11.398 7.43814 11.4888 7.54928 11.6055 7.6275C11.7222 7.70572 11.8595 7.74748 12 7.74748C12.1405 7.74748 12.2778 7.70572 12.3945 7.6275C12.5112 7.54928 12.6021 7.43814 12.6554 7.30819C13.2595 5.83185 14.7059 4.917 16.4286 4.917C17.5087 4.91841 18.5442 5.34807 19.308 6.11176C20.0718 6.87546 20.5015 7.91085 20.5029 8.99088C20.5029 13.7387 13.6156 18.0375 12 18.9807Z" fill="#FF8F39"/>
</svg>
