<svg width="24" height="24" viewBox="0 0 24 24" fill="none" xmlns="http://www.w3.org/2000/svg">
<path d="M16.0927 3.5C14.2639 3.5 12.6627 4.28644 11.6646 5.61576C10.6665 4.28644 9.0653 3.5 7.23648 3.5C5.78072 3.50164 4.38504 4.08067 3.35566 5.11005C2.32627 6.13944 1.74725 7.53511 1.74561 8.99088C1.74561 15.1903 10.9375 20.2082 11.329 20.4154C11.4321 20.4709 11.5475 20.5 11.6646 20.5C11.7818 20.5 11.8971 20.4709 12.0003 20.4154C12.3917 20.2082 21.5836 15.1903 21.5836 8.99088C21.582 7.53511 21.0029 6.13944 19.9736 5.11005C18.9442 4.08067 17.5485 3.50164 16.0927 3.5ZM11.6646 18.9807C10.0475 18.0384 3.16261 13.7458 3.16261 8.99088C3.16401 7.91085 3.59367 6.87546 4.35737 6.11176C5.12107 5.34807 6.15646 4.91841 7.23648 4.917C8.95902 4.917 10.4053 5.83451 11.0092 7.30819C11.0626 7.43814 11.1534 7.54928 11.2701 7.6275C11.3868 7.70572 11.5241 7.74748 11.6646 7.74748C11.8051 7.74748 11.9424 7.70572 12.0591 7.6275C12.1758 7.54928 12.2666 7.43814 12.32 7.30819C12.924 5.83185 14.3702 4.917 16.0927 4.917C17.1728 4.91841 18.2082 5.34807 18.9719 6.11176C19.7355 6.87546 20.1652 7.91085 20.1666 8.99088C20.1666 13.7387 13.28 18.0375 11.6646 18.9807Z" fill="#7A7A7A"/>
</svg>
