<svg width="24" height="24" viewBox="0 0 24 24" fill="none" xmlns="http://www.w3.org/2000/svg">
<path d="M16.0926 3.5C14.2637 3.5 12.6625 4.28644 11.6644 5.61576C10.6663 4.28644 9.06512 3.5 7.2363 3.5C5.78053 3.50164 4.38486 4.08067 3.35548 5.11005C2.32609 6.13944 1.74706 7.53511 1.74542 8.99088C1.74542 15.1903 10.9373 20.2082 11.3288 20.4154C11.4319 20.4709 11.5473 20.5 11.6644 20.5C11.7816 20.5 11.8969 20.4709 12.0001 20.4154C12.3915 20.2082 21.5834 15.1903 21.5834 8.99088C21.5818 7.53511 21.0028 6.13944 19.9734 5.11005C18.944 4.08067 17.5483 3.50164 16.0926 3.5ZM11.6644 18.9807C10.0473 18.0384 3.16242 13.7458 3.16242 8.99088C3.16383 7.91085 3.59349 6.87546 4.35719 6.11176C5.12088 5.34807 6.15627 4.91841 7.2363 4.917C8.95884 4.917 10.4051 5.83451 11.0091 7.30819C11.0624 7.43814 11.1532 7.54928 11.2699 7.6275C11.3866 7.70572 11.5239 7.74748 11.6644 7.74748C11.8049 7.74748 11.9422 7.70572 12.0589 7.6275C12.1756 7.54928 12.2664 7.43814 12.3198 7.30819C12.9238 5.83185 14.37 4.917 16.0926 4.917C17.1726 4.91841 18.208 5.34807 18.9717 6.11176C19.7354 6.87546 20.165 7.91085 20.1664 8.99088C20.1664 13.7387 13.2798 18.0375 11.6644 18.9807Z" fill="#222222"/>
</svg>
