<svg width="54" height="45" viewBox="0 0 54 45" fill="none" xmlns="http://www.w3.org/2000/svg">
<path d="M43.8294 47.4655L44.1641 42.8428L39.764 42.4911L39.4293 47.1139L43.8294 47.4655Z" fill="#222222"/>
<path d="M47.4109 39.4394C48.8923 39.5586 49.9955 40.9792 49.7938 43.7973C49.6299 46.069 48.4668 47.8142 46.998 47.7215L47.3352 43.0754L44.1738 42.8237C44.5205 40.6282 46.0366 39.3268 47.4109 39.4361V39.4394Z" fill="#222222"/>
<path d="M46.9394 47.7183L38.7695 47.066L39.1068 42.4199L44.1751 42.8239C44.1499 42.9928 44.1279 43.165 44.1153 43.3438C43.923 46.1321 45.4674 47.5826 46.9394 47.7183Z" fill="#222222"/>
<path d="M46.94 47.7186C45.4681 47.5829 43.9236 46.1324 44.1159 43.3441C44.1285 43.1653 44.1506 42.9931 44.1758 42.8242L47.3372 43.0759L46.9999 47.7219C46.9999 47.7219 46.9936 47.7219 46.9905 47.7219H46.94V47.7186Z" fill="#222222"/>
<path d="M24.3179 53.6034L24.9293 45.0167L20.5071 44.6689L20.1289 49.9939C20.2897 49.9939 20.4567 49.9939 20.6269 50.0104C23.2809 50.229 24.4156 52.0503 24.321 53.6001L24.3179 53.6034Z" fill="#222222"/>
<path d="M37.1536 15.7036L30.0323 2.38267L30.0314 2.38113C29.0918 0.630788 26.6777 0.516055 25.5957 2.19697L25.5949 2.19824L17.4651 14.87L3.21513 17.8668L3.21476 17.8669C1.28252 18.274 0.543761 20.5949 1.676 22.1178L1.67628 22.1181L10.651 34.1771L8.95485 49.3854C8.95483 49.3856 8.95482 49.3857 8.9548 49.3859C8.74295 51.2805 10.5402 52.9251 12.4369 52.199L26.0818 46.9755L39.2777 53.3478L39.2782 53.348C41.1099 54.2314 43.0348 52.7441 42.972 50.8316L42.972 50.8309L42.4589 35.5267L52.3344 24.277L52.335 24.2763C53.5886 22.8456 53.0168 20.4786 51.1374 19.9114L51.1366 19.9111L37.1536 15.7036Z" fill="#FF8F39" stroke="white" stroke-width="2"/>
<path d="M19.8906 21.4087C21.06 20.2927 22.803 19.9682 24.3128 20.7332" stroke="#222222" stroke-width="1.2983" stroke-linecap="round" stroke-linejoin="round"/>
<path d="M34.3697 21.9085C33.3359 20.6534 31.6401 20.1136 30.0547 20.6865" stroke="#222222" stroke-width="1.2983" stroke-linecap="round" stroke-linejoin="round"/>
<path d="M18.7953 30.7863C18.9692 30.7863 19.1102 30.6381 19.1102 30.4552C19.1102 30.2723 18.9692 30.124 18.7953 30.124C18.6214 30.124 18.4805 30.2723 18.4805 30.4552C18.4805 30.6381 18.6214 30.7863 18.7953 30.7863Z" fill="#FFD298"/>
<path d="M19.4262 31.4494C19.6001 31.4494 19.741 31.3011 19.741 31.1183C19.741 30.9354 19.6001 30.7871 19.4262 30.7871C19.2523 30.7871 19.1113 30.9354 19.1113 31.1183C19.1113 31.3011 19.2523 31.4494 19.4262 31.4494Z" fill="#FFD298"/>
<path d="M18.6371 32.2766C18.811 32.2766 18.952 32.1283 18.952 31.9454C18.952 31.7625 18.811 31.6143 18.6371 31.6143C18.4632 31.6143 18.3223 31.7625 18.3223 31.9454C18.3223 32.1283 18.4632 32.2766 18.6371 32.2766Z" fill="#FFD298"/>
<path d="M19.7406 32.7736C19.9145 32.7736 20.0555 32.6254 20.0555 32.4425C20.0555 32.2596 19.9145 32.1113 19.7406 32.1113C19.5667 32.1113 19.4258 32.2596 19.4258 32.4425C19.4258 32.6254 19.5667 32.7736 19.7406 32.7736Z" fill="#FFD298"/>
<path d="M20.6859 31.7805C20.8598 31.7805 21.0008 31.6322 21.0008 31.4493C21.0008 31.2664 20.8598 31.1182 20.6859 31.1182C20.5121 31.1182 20.3711 31.2664 20.3711 31.4493C20.3711 31.6322 20.5121 31.7805 20.6859 31.7805Z" fill="#FFD298"/>
<path d="M32.8539 31.6809C33.0278 31.6809 33.1688 31.5326 33.1688 31.3497C33.1688 31.1668 33.0278 31.0186 32.8539 31.0186C32.68 31.0186 32.5391 31.1668 32.5391 31.3497C32.5391 31.5326 32.68 31.6809 32.8539 31.6809Z" fill="#FFD298"/>
<path d="M33.7992 31.0187C33.9731 31.0187 34.1141 30.8705 34.1141 30.6876C34.1141 30.5047 33.9731 30.3564 33.7992 30.3564C33.6253 30.3564 33.4844 30.5047 33.4844 30.6876C33.4844 30.8705 33.6253 31.0187 33.7992 31.0187Z" fill="#FFD298"/>
<path d="M33.7992 32.0119C33.9731 32.0119 34.1141 31.8636 34.1141 31.6808C34.1141 31.4979 33.9731 31.3496 33.7992 31.3496C33.6253 31.3496 33.4844 31.4979 33.4844 31.6808C33.4844 31.8636 33.6253 32.0119 33.7992 32.0119Z" fill="#FFD298"/>
<path d="M33.4848 33.0051C33.6587 33.0051 33.7996 32.8568 33.7996 32.6739C33.7996 32.491 33.6587 32.3428 33.4848 32.3428C33.3109 32.3428 33.1699 32.491 33.1699 32.6739C33.1699 32.8568 33.3109 33.0051 33.4848 33.0051Z" fill="#FFD298"/>
<path d="M35.059 31.6809C35.2329 31.6809 35.3738 31.5326 35.3738 31.3497C35.3738 31.1668 35.2329 31.0186 35.059 31.0186C34.8851 31.0186 34.7441 31.1668 34.7441 31.3497C34.7441 31.5326 34.8851 31.6809 35.059 31.6809Z" fill="#FFD298"/>
<path d="M28.5138 31.5751C27.3034 32.4593 25.6424 32.1447 24.8008 30.873" stroke="#222222" stroke-width="1.2983" stroke-linecap="round" stroke-linejoin="round"/>
<path d="M23.014 30.124C25.2805 30.124 27.1179 28.1996 27.1179 25.8257C27.1179 23.4518 25.2805 21.5273 23.014 21.5273C20.7475 21.5273 18.9102 23.4518 18.9102 25.8257C18.9102 28.1996 20.7475 30.124 23.014 30.124Z" fill="white"/>
<path d="M30.9691 30.124C33.2356 30.124 35.0729 28.1996 35.0729 25.8257C35.0729 23.4518 33.2356 21.5273 30.9691 21.5273C28.7026 21.5273 26.8652 23.4518 26.8652 25.8257C26.8652 28.1996 28.7026 30.124 30.9691 30.124Z" fill="white"/>
<path d="M21.3452 28.2271C22.7031 28.2271 23.8038 27.0751 23.8038 25.6541C23.8038 24.233 22.7031 23.0811 21.3452 23.0811C19.9874 23.0811 18.8867 24.233 18.8867 25.6541C18.8867 27.0751 19.9874 28.2271 21.3452 28.2271Z" fill="#222222"/>
<path d="M29.3238 28.2271C30.6816 28.2271 31.7823 27.0751 31.7823 25.6541C31.7823 24.233 30.6816 23.0811 29.3238 23.0811C27.966 23.0811 26.8652 24.233 26.8652 25.6541C26.8652 27.0751 27.966 28.2271 29.3238 28.2271Z" fill="#222222"/>
<path d="M11.6499 37.8864C13.3465 37.172 14.0919 34.9414 13.3148 32.9043C12.5377 30.8671 10.5323 29.7948 8.83569 30.5092C7.13906 31.2236 6.39365 33.4542 7.17077 35.4913C7.94788 37.5285 9.95325 38.6008 11.6499 37.8864Z" fill="#222222"/>
<path d="M40.2283 32.1312C40.9974 30.8795 42.2392 30.1774 43.4401 30.1807L44.0233 28.2303C44.1872 27.6806 44.7451 27.3759 45.2683 27.5481C45.7915 27.7203 46.0815 28.3064 45.9176 28.8561L45.3156 30.8695C45.3156 30.8695 45.3376 30.8894 45.3471 30.896L47.1878 29.8794C47.6732 29.6112 48.2721 29.8065 48.5274 30.3165C48.7827 30.8265 48.5967 31.4557 48.1113 31.7239L46.3715 32.6876C46.5953 33.7075 46.4187 34.8765 45.7915 35.8964C44.66 37.7409 42.4977 38.3933 40.9595 37.3535C39.4245 36.3137 39.0936 33.9757 40.2251 32.1312H40.2283Z" fill="#222222"/>
</svg>
