<svg width="40" height="41" viewBox="0 0 40 41" fill="none" xmlns="http://www.w3.org/2000/svg">
<path d="M20.0006 3.83301C10.796 3.83301 3.33398 11.295 3.33398 20.4997C3.33398 29.7049 10.796 37.1663 20.0006 37.1663C29.2059 37.1663 36.6673 29.7049 36.6673 20.4997C36.6673 11.295 29.2059 3.83301 20.0006 3.83301ZM20.0006 35.1158C11.9595 35.1158 5.41732 28.5408 5.41732 20.4996C5.41732 12.4585 11.9595 5.91628 20.0006 5.91628C28.0418 5.91628 34.584 12.4585 34.584 20.4996C34.584 28.5407 28.0418 35.1158 20.0006 35.1158ZM27.2923 19.458H21.0423V13.208C21.0423 12.633 20.5756 12.1663 20.0006 12.1663C19.4256 12.1663 18.959 12.633 18.959 13.208V19.458H12.709C12.134 19.458 11.6673 19.9247 11.6673 20.4997C11.6673 21.0747 12.134 21.5413 12.709 21.5413H18.959V27.7913C18.959 28.3663 19.4256 28.833 20.0006 28.833C20.5756 28.833 21.0423 28.3663 21.0423 27.7913V21.5413H27.2923C27.8673 21.5413 28.334 21.0747 28.334 20.4997C28.334 19.9247 27.8673 19.458 27.2923 19.458Z" fill="#7A7A7A"/>
</svg>
