<svg width="430" height="489" viewBox="0 0 430 489" fill="none" xmlns="http://www.w3.org/2000/svg">
<g clip-path="url(#clip0_262_15403)">
<path d="M344.753 154.983C361.701 149.645 376.154 137.05 382.98 119.257C394.891 88.3075 379.355 53.6118 348.236 41.7189C339.244 38.3008 329.923 37.2239 320.931 38.0667C311.986 25.3309 298.286 14.5148 281.291 8.00649C259.635 -0.234315 237.179 0.327558 219.619 7.95967C206.814 2.10682 191.56 -0.843011 175.413 0.233913C145.235 2.20047 120.143 17.5583 108.938 38.1603C82.8569 35.9597 57.3876 50.9429 47.5483 76.4613C35.6375 107.411 51.1733 142.107 82.2919 154C86.4348 155.592 90.6718 156.622 94.8618 157.277C100.982 172.027 112.893 184.341 128.993 190.475C150.791 198.762 174.377 193.659 190.713 179.237C206.202 191.692 228.846 198.247 253.139 195.344C272.205 193.05 288.871 185.324 301.017 174.508C305.725 177.645 311.892 179.565 318.671 179.565C333.407 179.565 345.365 170.528 345.365 159.338C345.365 157.839 345.129 156.388 344.706 154.983H344.753Z" fill="#FF8F39"/>
<path d="M356.617 165.987C348.614 165.987 342.164 170.903 342.164 176.943C342.164 182.983 348.661 187.9 356.617 187.9C364.573 187.9 371.07 182.983 371.07 176.943C371.07 170.903 364.573 165.987 356.617 165.987Z" fill="#FF8F39"/>
<path d="M380.297 190.522C384.301 190.522 387.547 188.069 387.547 185.044C387.547 182.018 384.301 179.565 380.297 179.565C376.293 179.565 373.047 182.018 373.047 185.044C373.047 188.069 376.293 190.522 380.297 190.522Z" fill="#FF8F39"/>
</g>
<path d="M108.949 86.8027C108.949 87.6875 108.938 88.458 108.914 89.1143C108.896 89.7646 108.844 90.5176 108.756 91.373C108.674 92.2285 108.539 93.1543 108.352 94.1504L106.664 93.9746C106.852 93.0312 106.989 92.1436 107.077 91.3115C107.171 90.4736 107.227 89.7295 107.244 89.0791C107.268 88.4287 107.279 87.6699 107.279 86.8027V86.6094H97.7168V85.2559H108.949V86.8027ZM110.566 97.3672H96.2051V95.9785H101.672V90.4238H103.324V95.9785H110.566V97.3672ZM116.824 98.1758C115.957 98.1758 115.178 98.0293 114.486 97.7363C113.801 97.4434 113.259 97.0332 112.86 96.5059C112.468 95.9727 112.26 95.3633 112.236 94.6777H114.205C114.229 95.0469 114.354 95.3691 114.583 95.6445C114.817 95.9199 115.128 96.1338 115.515 96.2861C115.901 96.4326 116.332 96.5059 116.807 96.5059C117.311 96.5059 117.765 96.418 118.169 96.2422C118.573 96.0664 118.89 95.8232 119.118 95.5127C119.347 95.1963 119.461 94.8359 119.461 94.4316C119.461 94.0156 119.347 93.6436 119.118 93.3154C118.89 92.9873 118.559 92.7324 118.125 92.5508C117.697 92.3633 117.188 92.2695 116.596 92.2695H115.506V90.6875H116.596C117.07 90.6875 117.495 90.6025 117.87 90.4326C118.245 90.2627 118.535 90.0254 118.74 89.7207C118.951 89.416 119.057 89.0645 119.057 88.666C119.057 88.2793 118.966 87.9395 118.784 87.6465C118.603 87.3535 118.345 87.125 118.011 86.9609C117.677 86.7969 117.287 86.7148 116.842 86.7148C116.408 86.7148 116.007 86.791 115.638 86.9434C115.269 87.0957 114.97 87.3125 114.741 87.5938C114.519 87.875 114.398 88.2031 114.381 88.5781H112.518C112.535 87.9043 112.737 87.3037 113.124 86.7764C113.517 86.2432 114.041 85.8301 114.697 85.5371C115.354 85.2441 116.074 85.0977 116.859 85.0977C117.668 85.0977 118.38 85.2529 118.995 85.5635C119.616 85.874 120.094 86.2959 120.428 86.8291C120.762 87.3564 120.926 87.9336 120.92 88.5605C120.926 89.2754 120.724 89.8848 120.313 90.3887C119.909 90.8867 119.361 91.2207 118.67 91.3906V91.4785C119.531 91.6016 120.202 91.9326 120.683 92.4717C121.169 93.0107 121.412 93.6875 121.412 94.502C121.412 95.1992 121.213 95.8291 120.814 96.3916C120.416 96.9482 119.868 97.3848 119.171 97.7012C118.474 98.0176 117.691 98.1758 116.824 98.1758ZM137.865 90.0723H139.535V83.7441H141.117V99.4941H139.535V91.4434H137.865V98.7383H136.318V84.0605H137.865V90.0723ZM131.203 87.0664H129.322V94.0625C130.008 94.0273 130.652 93.9336 131.256 93.7812L131.396 95.1875C130.834 95.3105 130.321 95.3926 129.858 95.4336C129.401 95.4688 128.93 95.4863 128.443 95.4863H127.793V85.6953H131.203V87.0664ZM135.352 87.0664H133.365V94.0713C134.191 94.042 134.941 93.9336 135.615 93.7461L135.756 95.1523C135.188 95.293 134.657 95.3838 134.165 95.4248C133.673 95.4658 133.125 95.4863 132.521 95.4863H131.854V85.6953H135.352V87.0664ZM155.338 86.5918H149.801V94.2734C151.207 94.2676 152.399 94.2295 153.378 94.1592C154.356 94.0889 155.338 93.957 156.322 93.7637L156.516 95.1348C155.42 95.3398 154.342 95.4805 153.281 95.5566C152.221 95.627 150.914 95.6621 149.361 95.6621H148.113V85.2031H155.338V86.5918ZM160.488 99.5293H158.818V90.7578H154.441V89.3691H158.818V83.7441H160.488V99.5293ZM171.65 84.2539C172.318 84.2539 172.931 84.3682 173.487 84.5967C174.044 84.8252 174.507 85.1445 174.876 85.5547H178.752V83.7441H180.404V91.7598H178.752V90.1074H174.911C174.542 90.5352 174.076 90.8662 173.514 91.1006C172.951 91.3291 172.33 91.4434 171.65 91.4434C170.859 91.4434 170.15 91.2939 169.523 90.9951C168.896 90.6904 168.404 90.2656 168.047 89.7207C167.695 89.1699 167.52 88.543 167.52 87.8398C167.52 87.1484 167.695 86.5303 168.047 85.9854C168.404 85.4404 168.896 85.0156 169.523 84.7109C170.15 84.4062 170.859 84.2539 171.65 84.2539ZM171.65 85.625C171.164 85.6191 170.728 85.71 170.341 85.8975C169.96 86.085 169.661 86.3486 169.444 86.6885C169.228 87.0225 169.119 87.4062 169.119 87.8398C169.119 88.2852 169.228 88.6777 169.444 89.0176C169.661 89.3574 169.96 89.624 170.341 89.8174C170.722 90.0049 171.158 90.1016 171.65 90.1074C172.131 90.1016 172.559 90.0049 172.934 89.8174C173.314 89.624 173.61 89.3574 173.821 89.0176C174.038 88.6777 174.146 88.2852 174.146 87.8398C174.146 87.4062 174.038 87.0225 173.821 86.6885C173.61 86.3486 173.314 86.085 172.934 85.8975C172.553 85.71 172.125 85.6191 171.65 85.625ZM180.404 96.4531H171.809V97.9648H180.967V99.3008H170.139V95.2051H178.752V93.834H170.104V92.5332H180.404V96.4531ZM175.605 86.873C175.699 87.2012 175.746 87.5234 175.746 87.8398C175.746 88.1738 175.702 88.4902 175.614 88.7891H178.752V86.873H175.605ZM195.908 92.6738H194.238V83.7617H195.908V92.6738ZM195.908 99.3008H185.555V93.5176H195.908V99.3008ZM187.207 97.9473H194.273V94.8535H187.207V97.9473ZM188.578 85.8887C188.572 86.5918 188.728 87.2656 189.044 87.9102C189.366 88.5488 189.82 89.1143 190.406 89.6064C190.998 90.0928 191.689 90.4707 192.48 90.7402L191.654 92.0234C190.746 91.7246 189.955 91.2764 189.281 90.6787C188.613 90.0752 188.098 89.3662 187.734 88.5518C187.377 89.4248 186.855 90.1895 186.17 90.8457C185.484 91.502 184.676 91.9941 183.744 92.3223L182.918 91.0039C183.721 90.7344 184.421 90.3389 185.019 89.8174C185.616 89.29 186.073 88.6865 186.39 88.0068C186.712 87.3271 186.873 86.6211 186.873 85.8887V84.3594H188.578V85.8887ZM211.447 99.4941H209.777V83.7441H211.447V99.4941ZM208.248 87.5938H198.756V86.2402H202.641V83.9023H204.328V86.2402H208.248V87.5938ZM203.52 88.7363C204.281 88.7363 204.964 88.8916 205.567 89.2021C206.171 89.5127 206.643 89.9463 206.982 90.5029C207.322 91.0596 207.492 91.6895 207.492 92.3926C207.492 93.1016 207.322 93.7344 206.982 94.291C206.643 94.8477 206.171 95.2812 205.567 95.5918C204.964 95.9023 204.281 96.0605 203.52 96.0664C202.764 96.0605 202.084 95.9023 201.48 95.5918C200.883 95.2812 200.414 94.8477 200.074 94.291C199.734 93.7344 199.564 93.1016 199.564 92.3926C199.564 91.6895 199.734 91.0596 200.074 90.5029C200.414 89.9463 200.883 89.5127 201.48 89.2021C202.084 88.8916 202.764 88.7363 203.52 88.7363ZM203.52 90.1074C203.068 90.1074 202.661 90.2041 202.298 90.3975C201.94 90.5908 201.659 90.8604 201.454 91.2061C201.249 91.5518 201.146 91.9473 201.146 92.3926C201.146 92.8438 201.249 93.2422 201.454 93.5879C201.659 93.9336 201.94 94.2002 202.298 94.3877C202.661 94.5752 203.068 94.666 203.52 94.6602C203.971 94.666 204.375 94.5752 204.732 94.3877C205.096 94.2002 205.38 93.9336 205.585 93.5879C205.79 93.2422 205.893 92.8438 205.893 92.3926C205.893 91.9473 205.79 91.5518 205.585 91.2061C205.38 90.8604 205.096 90.5908 204.732 90.3975C204.375 90.2041 203.971 90.1074 203.52 90.1074ZM225.457 93.6406C226.594 93.6406 227.578 93.7578 228.41 93.9922C229.248 94.2207 229.893 94.5547 230.344 94.9941C230.795 95.4277 231.023 95.9492 231.029 96.5586C231.023 97.1621 230.792 97.6836 230.335 98.123C229.884 98.5625 229.239 98.8965 228.401 99.125C227.569 99.3535 226.588 99.4648 225.457 99.459C224.338 99.4648 223.359 99.3506 222.521 99.1162C221.689 98.8877 221.048 98.5537 220.597 98.1143C220.146 97.6807 219.92 97.1621 219.92 96.5586C219.92 95.9492 220.146 95.4277 220.597 94.9941C221.048 94.5547 221.689 94.2207 222.521 93.9922C223.354 93.7578 224.332 93.6406 225.457 93.6406ZM225.457 94.9062C224.666 94.9062 223.978 94.9736 223.392 95.1084C222.806 95.2373 222.357 95.4277 222.047 95.6797C221.736 95.9258 221.584 96.2188 221.59 96.5586C221.584 96.8926 221.736 97.1826 222.047 97.4287C222.357 97.6689 222.803 97.8535 223.383 97.9824C223.969 98.1113 224.66 98.1758 225.457 98.1758C226.254 98.1758 226.945 98.1113 227.531 97.9824C228.123 97.8535 228.577 97.6689 228.894 97.4287C229.21 97.1826 229.371 96.8926 229.377 96.5586C229.371 96.2188 229.21 95.9258 228.894 95.6797C228.577 95.4277 228.123 95.2373 227.531 95.1084C226.945 94.9736 226.254 94.9062 225.457 94.9062ZM230.906 85.8359C230.906 86.6855 230.88 87.415 230.827 88.0244C230.78 88.6338 230.66 89.2988 230.467 90.0195L228.832 89.8438C229.02 89.1289 229.137 88.4873 229.184 87.9189C229.23 87.3447 229.254 86.6562 229.254 85.8535H220.043V84.5176H230.906V85.8359ZM232.699 92.3398H218.373V90.9863H224.121V88.0332H225.756V90.9863H232.699V92.3398ZM248.309 94.3262H241.875V99.4941H240.24V94.3262H233.895V93.0078H248.309V94.3262ZM237.34 86.4336H244.828V84.377H246.498V91.2148H235.688V84.377H237.34V86.4336ZM244.828 89.8789V87.7695H237.34V89.8789H244.828ZM257.256 87.6992H249.434V86.3457H252.527V84.2012H254.18V86.3457H257.256V87.6992ZM253.354 88.6484C254.016 88.6484 254.604 88.8037 255.12 89.1143C255.636 89.4189 256.04 89.8467 256.333 90.3975C256.626 90.9424 256.775 91.5664 256.781 92.2695C256.775 92.9785 256.626 93.6113 256.333 94.168C256.04 94.7188 255.636 95.1494 255.12 95.46C254.604 95.7705 254.016 95.9258 253.354 95.9258C252.703 95.9258 252.117 95.7705 251.596 95.46C251.074 95.1494 250.667 94.7158 250.374 94.1592C250.081 93.6025 249.938 92.9727 249.943 92.2695C249.938 91.5723 250.081 90.9482 250.374 90.3975C250.667 89.8467 251.074 89.4189 251.596 89.1143C252.117 88.8037 252.703 88.6484 253.354 88.6484ZM253.354 90.0371C252.979 90.0371 252.645 90.1338 252.352 90.3271C252.059 90.5146 251.83 90.7783 251.666 91.1182C251.502 91.458 251.42 91.8418 251.42 92.2695C251.42 92.709 251.502 93.0986 251.666 93.4385C251.83 93.7725 252.059 94.0332 252.352 94.2207C252.645 94.4082 252.979 94.502 253.354 94.502C253.729 94.502 254.062 94.4082 254.355 94.2207C254.654 94.0332 254.886 93.7725 255.05 93.4385C255.22 93.0986 255.305 92.709 255.305 92.2695C255.305 91.8418 255.22 91.458 255.05 91.1182C254.886 90.7783 254.654 90.5146 254.355 90.3271C254.057 90.1338 253.723 90.0371 253.354 90.0371ZM262.951 99.4941H261.369V91.6719H259.559V98.7559H257.977V84.0957H259.559V90.3008H261.369V83.7441H262.951V99.4941ZM270.703 87.752C270.703 88.707 270.87 89.6416 271.204 90.5557C271.544 91.4697 272.019 92.2812 272.628 92.9902C273.237 93.6992 273.938 94.2324 274.729 94.5898L273.709 95.9258C272.824 95.4863 272.051 94.8447 271.389 94.001C270.732 93.1572 270.229 92.1875 269.877 91.0918C269.525 92.2461 269.013 93.2744 268.339 94.1768C267.665 95.0732 266.883 95.7559 265.992 96.2246L264.938 94.8711C265.734 94.4902 266.44 93.9277 267.056 93.1836C267.677 92.4336 268.157 91.584 268.497 90.6348C268.843 89.6797 269.016 88.7188 269.016 87.752V85.0625H270.703V87.752ZM278.156 99.5293H276.504V90.3359H272.988V88.9824H276.504V83.7441H278.156V99.5293ZM298.494 99.4941H296.895V91.3555H294.855V98.6855H293.326V84.0605H294.855V89.9844H296.895V83.7441H298.494V99.4941ZM291.41 86.9961H287.174V94.291C288.205 94.2793 289.107 94.2441 289.881 94.1855C290.66 94.127 291.451 94.0215 292.254 93.8691L292.377 95.2402C291.492 95.4219 290.619 95.5449 289.758 95.6094C288.896 95.668 287.83 95.7031 286.559 95.7148H285.504V85.6426H291.41V86.9961ZM309.938 86.6797H300.551V85.3438H304.418V83.6738H306.088V85.3438H309.938V86.6797ZM305.244 87.3828C305.994 87.3887 306.656 87.5117 307.23 87.752C307.811 87.9863 308.259 88.3203 308.575 88.7539C308.897 89.1816 309.059 89.6797 309.059 90.248C309.059 90.8164 308.897 91.3174 308.575 91.751C308.259 92.1846 307.811 92.5215 307.23 92.7617C306.656 92.9961 305.994 93.1133 305.244 93.1133C304.488 93.1133 303.82 92.9961 303.24 92.7617C302.66 92.5215 302.209 92.1846 301.887 91.751C301.57 91.3174 301.412 90.8164 301.412 90.248C301.412 89.6797 301.57 89.1816 301.887 88.7539C302.209 88.3203 302.66 87.9863 303.24 87.752C303.82 87.5117 304.488 87.3887 305.244 87.3828ZM305.244 88.666C304.799 88.666 304.409 88.7305 304.075 88.8594C303.741 88.9883 303.48 89.1729 303.293 89.4131C303.111 89.6533 303.023 89.9316 303.029 90.248C303.023 90.7344 303.22 91.1182 303.618 91.3994C304.022 91.6748 304.564 91.8125 305.244 91.8125C305.918 91.8125 306.46 91.6748 306.87 91.3994C307.28 91.1182 307.488 90.7344 307.494 90.248C307.488 89.9316 307.392 89.6533 307.204 89.4131C307.017 89.1729 306.753 88.9883 306.413 88.8594C306.073 88.7305 305.684 88.666 305.244 88.666ZM312.908 88.0156H315.193V89.4043H312.908V93.5879H311.238V83.7441H312.908V88.0156ZM312.908 99.4941H311.238V95.75H302.502V94.3965H312.908V99.4941ZM323.262 84.0078C324.445 84.0078 325.456 84.1133 326.294 84.3242C327.138 84.5293 327.779 84.834 328.219 85.2383C328.664 85.6426 328.887 86.1348 328.887 86.7148C328.887 87.2949 328.664 87.79 328.219 88.2002C327.779 88.6045 327.138 88.9121 326.294 89.123C325.456 89.334 324.445 89.4395 323.262 89.4395C322.078 89.4395 321.064 89.334 320.221 89.123C319.383 88.9121 318.741 88.6045 318.296 88.2002C317.856 87.79 317.637 87.2949 317.637 86.7148C317.637 86.1348 317.856 85.6426 318.296 85.2383C318.741 84.834 319.383 84.5293 320.221 84.3242C321.064 84.1133 322.078 84.0078 323.262 84.0078ZM323.262 85.2383C322.008 85.2383 321.044 85.3672 320.37 85.625C319.696 85.8828 319.365 86.2461 319.377 86.7148C319.371 87.1953 319.699 87.5615 320.361 87.8135C321.029 88.0654 321.996 88.1914 323.262 88.1914C324.521 88.1914 325.485 88.0654 326.153 87.8135C326.827 87.5615 327.164 87.1953 327.164 86.7148C327.164 86.2461 326.824 85.8828 326.145 85.625C325.471 85.3672 324.51 85.2383 323.262 85.2383ZM330.451 91.7422H316.09V90.4062H330.451V91.7422ZM328.641 96.6465H319.465V98.0527H329.08V99.3359H317.83V95.4336H326.988V94.2031H317.812V92.9551H328.641V96.6465ZM104.203 107.592H98.666V115.273C100.072 115.268 101.265 115.229 102.243 115.159C103.222 115.089 104.203 114.957 105.188 114.764L105.381 116.135C104.285 116.34 103.207 116.48 102.146 116.557C101.086 116.627 99.7793 116.662 98.2266 116.662H96.9785V106.203H104.203V107.592ZM109.354 120.529H107.684V111.758H103.307V110.369H107.684V104.744H109.354V120.529ZM121.641 107.117C121.635 107.721 121.787 108.301 122.098 108.857C122.408 109.414 122.856 109.909 123.442 110.343C124.028 110.771 124.717 111.096 125.508 111.318L124.717 112.619C123.82 112.361 123.038 111.966 122.37 111.433C121.708 110.894 121.195 110.261 120.832 109.534C120.48 110.36 119.959 111.075 119.268 111.679C118.576 112.276 117.75 112.719 116.789 113.006L115.98 111.705C116.789 111.465 117.492 111.113 118.09 110.65C118.688 110.182 119.147 109.646 119.47 109.042C119.792 108.433 119.953 107.797 119.953 107.135V106.924H116.508V105.588H125.033V106.924H121.641V107.117ZM128.531 108.066H130.816V109.438H128.531V112.848H126.861V104.744H128.531V108.066ZM128.531 117.453H120.023V119.035H129.076V120.336H118.389V116.24H126.879V114.834H118.354V113.533H128.531V117.453ZM148.482 108.541H150.768V109.912H148.482V113.533H146.812V104.727H148.482V108.541ZM144.158 105.711C144.158 107.053 143.865 108.266 143.279 109.35C142.693 110.428 141.841 111.351 140.722 112.118C139.608 112.886 138.27 113.475 136.705 113.885L136.072 112.549C137.309 112.215 138.378 111.778 139.28 111.239C140.183 110.694 140.892 110.07 141.407 109.367C141.929 108.658 142.236 107.891 142.33 107.064H136.811V105.711H144.158ZM141.416 115.168C141.416 115.889 141.592 116.577 141.943 117.233C142.295 117.89 142.813 118.432 143.499 118.859C143.962 118.555 144.354 118.194 144.677 117.778C144.999 117.356 145.239 116.92 145.397 116.469C145.556 116.018 145.635 115.584 145.635 115.168V114.131H147.27V115.168C147.27 115.725 147.39 116.264 147.63 116.785C147.87 117.301 148.225 117.761 148.693 118.165C149.162 118.569 149.73 118.883 150.398 119.105L149.555 120.318C148.799 120.055 148.157 119.671 147.63 119.167C147.108 118.669 146.713 118.086 146.443 117.418C146.18 118.098 145.805 118.701 145.318 119.229C144.838 119.762 144.246 120.172 143.543 120.459C142.816 120.189 142.207 119.794 141.715 119.272C141.229 118.757 140.856 118.156 140.599 117.471C140.312 118.121 139.91 118.692 139.395 119.185C138.879 119.677 138.264 120.055 137.549 120.318L136.705 119.105C137.355 118.865 137.915 118.537 138.384 118.121C138.853 117.699 139.207 117.233 139.447 116.724C139.693 116.208 139.816 115.689 139.816 115.168V114.131H141.416V115.168ZM155.936 105.922C156.645 105.922 157.283 106.115 157.852 106.502C158.42 106.883 158.88 107.431 159.231 108.146C159.589 108.854 159.809 109.689 159.891 110.65H163.143V104.744H164.795V120.529H163.143V112.004H159.908C159.85 113.012 159.645 113.891 159.293 114.641C158.941 115.391 158.476 115.968 157.896 116.372C157.315 116.776 156.662 116.979 155.936 116.979C155.15 116.979 154.456 116.753 153.853 116.302C153.249 115.845 152.777 115.2 152.438 114.368C152.104 113.53 151.939 112.555 151.945 111.441C151.939 110.334 152.104 109.364 152.438 108.532C152.777 107.694 153.249 107.05 153.853 106.599C154.462 106.147 155.156 105.922 155.936 105.922ZM155.936 107.416C155.461 107.416 155.042 107.58 154.679 107.908C154.315 108.236 154.031 108.705 153.826 109.314C153.627 109.918 153.527 110.627 153.527 111.441C153.527 112.262 153.627 112.977 153.826 113.586C154.031 114.195 154.315 114.664 154.679 114.992C155.042 115.32 155.461 115.484 155.936 115.484C156.41 115.484 156.829 115.32 157.192 114.992C157.556 114.664 157.837 114.195 158.036 113.586C158.241 112.977 158.344 112.262 158.344 111.441C158.344 110.627 158.241 109.918 158.036 109.314C157.837 108.705 157.556 108.236 157.192 107.908C156.829 107.58 156.41 107.416 155.936 107.416ZM171.439 105.922C172.219 105.922 172.913 106.147 173.522 106.599C174.138 107.05 174.615 107.694 174.955 108.532C175.301 109.364 175.477 110.334 175.482 111.441C175.477 112.555 175.301 113.53 174.955 114.368C174.615 115.2 174.138 115.845 173.522 116.302C172.913 116.753 172.219 116.979 171.439 116.979C170.654 116.979 169.957 116.753 169.348 116.302C168.738 115.845 168.261 115.2 167.915 114.368C167.575 113.53 167.408 112.555 167.414 111.441C167.408 110.334 167.575 109.364 167.915 108.532C168.261 107.7 168.738 107.059 169.348 106.607C169.957 106.15 170.654 105.922 171.439 105.922ZM171.439 107.416C170.959 107.416 170.534 107.58 170.165 107.908C169.802 108.236 169.518 108.705 169.312 109.314C169.113 109.918 169.014 110.627 169.014 111.441C169.014 112.262 169.113 112.977 169.312 113.586C169.518 114.195 169.802 114.664 170.165 114.992C170.534 115.32 170.959 115.484 171.439 115.484C171.926 115.484 172.354 115.32 172.723 114.992C173.092 114.664 173.376 114.195 173.575 113.586C173.78 112.977 173.883 112.262 173.883 111.441C173.883 110.627 173.78 109.918 173.575 109.314C173.376 108.705 173.092 108.236 172.723 107.908C172.354 107.58 171.926 107.416 171.439 107.416ZM181.934 110.018H179.49V113.287H181.934V114.658H179.49V120.494H177.82V104.744H179.49V108.594H181.934V110.018ZM200.602 114.5H199.02V110.352H197.227V114.271H195.662V104.99H197.227V108.998H199.02V104.762H200.602V114.5ZM195.047 107.785H187.084V106.449H190.266V104.814H191.918V106.449H195.047V107.785ZM191.074 108.488C191.736 108.488 192.325 108.603 192.841 108.831C193.362 109.054 193.767 109.37 194.054 109.78C194.341 110.19 194.484 110.668 194.484 111.213C194.484 111.746 194.338 112.218 194.045 112.628C193.758 113.038 193.356 113.357 192.841 113.586C192.325 113.809 191.736 113.92 191.074 113.92C190.424 113.92 189.841 113.809 189.325 113.586C188.815 113.357 188.417 113.038 188.13 112.628C187.843 112.218 187.699 111.746 187.699 111.213C187.699 110.674 187.843 110.199 188.13 109.789C188.417 109.373 188.815 109.054 189.325 108.831C189.841 108.603 190.424 108.488 191.074 108.488ZM191.074 109.719C190.512 109.719 190.058 109.854 189.712 110.123C189.366 110.393 189.193 110.756 189.193 111.213C189.193 111.506 189.272 111.764 189.431 111.986C189.589 112.209 189.809 112.382 190.09 112.505C190.377 112.628 190.705 112.689 191.074 112.689C191.648 112.689 192.108 112.555 192.454 112.285C192.8 112.016 192.973 111.658 192.973 111.213C192.973 110.75 192.797 110.387 192.445 110.123C192.1 109.854 191.643 109.719 191.074 109.719ZM192.902 115.432C192.891 116.105 193.058 116.747 193.403 117.356C193.755 117.966 194.271 118.461 194.95 118.842C195.407 118.566 195.794 118.238 196.11 117.857C196.433 117.471 196.673 117.069 196.831 116.653C196.989 116.231 197.068 115.824 197.068 115.432V114.957H198.721V115.432C198.721 115.941 198.841 116.437 199.081 116.917C199.327 117.397 199.685 117.825 200.153 118.2C200.622 118.569 201.188 118.848 201.85 119.035L201.059 120.301C200.297 120.055 199.646 119.691 199.107 119.211C198.574 118.73 198.167 118.168 197.886 117.523C197.616 118.174 197.238 118.754 196.752 119.264C196.271 119.779 195.686 120.172 194.994 120.441C194.273 120.178 193.667 119.8 193.175 119.308C192.683 118.815 192.308 118.244 192.05 117.594C191.757 118.209 191.344 118.751 190.811 119.22C190.283 119.688 189.656 120.049 188.93 120.301L188.139 119.035C188.783 118.83 189.34 118.537 189.809 118.156C190.283 117.775 190.644 117.348 190.89 116.873C191.136 116.393 191.262 115.912 191.268 115.432V114.957H192.902V115.432ZM215.473 110.686H204.627V105.307H206.279V109.35H215.473V110.686ZM217.125 114.008H202.711V112.672H217.125V114.008ZM215.578 120.125H204.504V115.502H206.174V118.754H215.578V120.125ZM231.82 120.494H230.203V104.744H231.82V120.494ZM228.568 119.703H226.986V112.057H223.752V110.668H226.986V105.078H228.568V119.703ZM224.824 107.996H220.482V115.396C221.578 115.385 222.504 115.35 223.26 115.291C224.021 115.227 224.789 115.109 225.562 114.939L225.703 116.346C224.842 116.521 223.986 116.639 223.137 116.697C222.287 116.756 221.203 116.785 219.885 116.785H218.848V106.625H224.824V107.996ZM251.789 107.855H238.975V106.484H244.582V104.674H246.234V106.484H251.789V107.855ZM252.65 116.311H246.234V120.512H244.582V116.311H238.236V114.939H252.65V116.311ZM245.408 108.664C246.498 108.664 247.436 108.767 248.221 108.972C249.006 109.177 249.606 109.479 250.022 109.877C250.438 110.27 250.646 110.75 250.646 111.318C250.646 111.875 250.438 112.35 250.022 112.742C249.606 113.135 249.006 113.434 248.221 113.639C247.436 113.844 246.498 113.949 245.408 113.955C244.312 113.949 243.372 113.844 242.587 113.639C241.802 113.434 241.201 113.135 240.785 112.742C240.369 112.35 240.164 111.875 240.17 111.318C240.164 110.75 240.369 110.27 240.785 109.877C241.201 109.479 241.802 109.177 242.587 108.972C243.372 108.767 244.312 108.664 245.408 108.664ZM245.408 109.912C244.271 109.912 243.401 110.032 242.798 110.272C242.194 110.513 241.893 110.861 241.893 111.318C241.893 111.758 242.194 112.098 242.798 112.338C243.407 112.572 244.277 112.689 245.408 112.689C246.533 112.689 247.397 112.572 248.001 112.338C248.604 112.098 248.912 111.758 248.924 111.318C248.918 110.861 248.61 110.513 248.001 110.272C247.397 110.032 246.533 109.912 245.408 109.912ZM266.818 120.494H265.148V104.744H266.818V120.494ZM253.881 116.205C255.773 116.193 257.215 116.173 258.205 116.144V114.57C257.59 114.494 257.054 114.327 256.597 114.069C256.14 113.812 255.788 113.48 255.542 113.076C255.296 112.672 255.176 112.215 255.182 111.705C255.176 111.119 255.331 110.604 255.647 110.158C255.964 109.713 256.412 109.367 256.992 109.121C257.572 108.875 258.24 108.752 258.996 108.752C259.758 108.752 260.432 108.875 261.018 109.121C261.609 109.367 262.066 109.713 262.389 110.158C262.717 110.604 262.881 111.119 262.881 111.705C262.881 112.209 262.755 112.663 262.503 113.067C262.257 113.466 261.905 113.794 261.448 114.052C260.997 114.31 260.467 114.479 259.857 114.562V116.082C261.404 116.018 262.846 115.9 264.182 115.73L264.305 116.979C262.752 117.236 261.152 117.403 259.506 117.479C257.859 117.556 256.061 117.594 254.109 117.594L253.881 116.205ZM263.83 107.961H254.215V106.625H258.205V104.779H259.875V106.625H263.83V107.961ZM258.996 110.053C258.557 110.053 258.167 110.123 257.827 110.264C257.487 110.398 257.224 110.592 257.036 110.844C256.849 111.09 256.758 111.377 256.764 111.705C256.758 112.033 256.849 112.32 257.036 112.566C257.224 112.807 257.487 112.994 257.827 113.129C258.167 113.258 258.557 113.322 258.996 113.322C259.447 113.322 259.846 113.258 260.191 113.129C260.537 112.994 260.804 112.807 260.991 112.566C261.185 112.32 261.281 112.033 261.281 111.705C261.281 111.377 261.185 111.09 260.991 110.844C260.798 110.592 260.528 110.398 260.183 110.264C259.837 110.123 259.441 110.053 258.996 110.053ZM269.385 115.801C269.736 115.795 270.237 115.789 270.888 115.783C271.538 115.777 272.109 115.766 272.602 115.748V112.76H269.947V106.291H276.68V107.645H271.582V111.406H276.82V112.76H274.201V115.687C275.484 115.622 276.521 115.543 277.312 115.449L277.4 116.662C275.502 116.984 272.83 117.16 269.385 117.189L269.156 115.801H269.385ZM282.885 120.494H281.285V112.566H279.562V119.686H278.016V105.061H279.562V111.213H281.285V104.744H282.885V120.494ZM286.699 119.123C286.477 119.123 286.266 119.067 286.066 118.956C285.873 118.845 285.721 118.692 285.609 118.499C285.498 118.306 285.445 118.098 285.451 117.875C285.445 117.652 285.498 117.444 285.609 117.251C285.721 117.058 285.873 116.905 286.066 116.794C286.266 116.683 286.477 116.627 286.699 116.627C286.916 116.627 287.121 116.683 287.314 116.794C287.508 116.905 287.66 117.058 287.771 117.251C287.889 117.444 287.947 117.652 287.947 117.875C287.947 118.098 287.889 118.306 287.771 118.499C287.66 118.692 287.508 118.845 287.314 118.956C287.121 119.067 286.916 119.123 286.699 119.123ZM291.445 119.123C291.223 119.123 291.012 119.067 290.812 118.956C290.619 118.845 290.467 118.692 290.355 118.499C290.244 118.306 290.191 118.098 290.197 117.875C290.191 117.652 290.244 117.444 290.355 117.251C290.467 117.058 290.619 116.905 290.812 116.794C291.012 116.683 291.223 116.627 291.445 116.627C291.662 116.627 291.867 116.683 292.061 116.794C292.254 116.905 292.406 117.058 292.518 117.251C292.635 117.444 292.693 117.652 292.693 117.875C292.693 118.098 292.635 118.306 292.518 118.499C292.406 118.692 292.254 118.845 292.061 118.956C291.867 119.067 291.662 119.123 291.445 119.123ZM308.83 111.406H302.502V118.068H300.832V111.406H294.521V110.053H308.83V111.406ZM324.387 111.406H318.059V118.068H316.389V111.406H310.078V110.053H324.387V111.406Z" fill="white"/>
<rect x="0.5" y="212" width="430" height="277" rx="8" fill="white"/>
<g clip-path="url(#clip1_262_15403)">
<path d="M51.9365 289.713C59.0701 289.713 65.4668 292.853 69.8297 297.821C75.1591 292.888 78.4975 285.835 78.4975 278C78.5 263.089 66.4106 251 51.5 251C36.5894 251 24.5 263.089 24.5 278C24.5 286.075 28.0453 293.319 33.6623 298.268C38.0278 293.039 44.5936 289.713 51.9365 289.713Z" fill="#B2D7FF"/>
<path d="M69.8314 297.821C65.4685 292.85 59.0718 289.714 51.9383 289.714C44.8047 289.714 38.0295 293.04 33.6641 298.268C38.4206 302.459 44.6634 305 51.5017 305C58.34 305 65.0194 302.278 69.834 297.821H69.8314Z" fill="#FF5353"/>
<path d="M38.9716 272.946C42.8069 272.946 45.9159 269.837 45.9159 266.001C45.9159 262.166 42.8069 259.057 38.9716 259.057C35.1364 259.057 32.0273 262.166 32.0273 266.001C32.0273 269.837 35.1364 272.946 38.9716 272.946Z" fill="#222222"/>
<path d="M64.3564 272.946C68.1916 272.946 71.3007 269.837 71.3007 266.001C71.3007 262.166 68.1916 259.057 64.3564 259.057C60.5212 259.057 57.4121 262.166 57.4121 266.001C57.4121 269.837 60.5212 272.946 64.3564 272.946Z" fill="#222222"/>
<path d="M51.5014 269.249C48.9427 274.566 43.5023 278.237 37.2066 278.237C36.8306 278.237 36.4622 278.22 36.0938 278.194C36.7877 286.249 43.5402 292.57 51.7714 292.57C60.0026 292.57 66.7804 286.226 67.4541 278.151C66.9091 278.207 66.359 278.237 65.7988 278.237C59.503 278.237 54.0626 274.568 51.5039 269.249H51.5014Z" fill="#FFDDDD"/>
<path d="M51.5006 269.249C50.5014 267.17 49.9387 264.841 49.9387 262.38C49.9387 261.979 49.9588 261.583 49.9866 261.189C42.1314 262.075 36.0273 268.737 36.0273 276.827C36.0273 277.289 36.0526 277.743 36.0904 278.192C36.4588 278.217 36.8298 278.235 37.2032 278.235C43.499 278.235 48.9394 274.566 51.4981 269.247L51.5006 269.249Z" fill="#222222"/>
<path d="M53.009 261.139C53.0418 261.548 53.062 261.962 53.062 262.381C53.062 264.841 52.5018 267.17 51.5 269.249C54.0587 274.566 59.4991 278.237 65.7949 278.237C66.3525 278.237 66.9051 278.207 67.4502 278.152C67.4855 277.715 67.5107 277.274 67.5107 276.829C67.5107 268.553 61.1216 261.775 53.009 261.142V261.139Z" fill="#222222"/>
<path d="M49.9894 261.189C49.9591 261.583 49.9414 261.979 49.9414 262.38C49.9414 264.841 50.5016 267.17 51.5034 269.249C52.5026 267.17 53.0653 264.841 53.0653 262.38C53.0653 261.962 53.0451 261.55 53.0123 261.139C52.6036 261.106 52.1897 261.086 51.7734 261.086C51.1703 261.086 50.5773 261.124 49.9919 261.189H49.9894Z" fill="#222222"/>
<path d="M48.3391 283.15C50.2944 283.15 51.8794 281.57 51.8794 279.62C51.8794 277.67 50.2944 276.09 48.3391 276.09C46.3839 276.09 44.7988 277.67 44.7988 279.62C44.7988 281.57 46.3839 283.15 48.3391 283.15Z" fill="white"/>
<path d="M55.2024 283.15C57.1576 283.15 58.7427 281.57 58.7427 279.62C58.7427 277.67 57.1576 276.09 55.2024 276.09C53.2471 276.09 51.6621 277.67 51.6621 279.62C51.6621 281.57 53.2471 283.15 55.2024 283.15Z" fill="white"/>
<path d="M48.3384 281.591C49.509 281.591 50.458 280.645 50.458 279.479C50.458 278.312 49.509 277.367 48.3384 277.367C47.1677 277.367 46.2188 278.312 46.2188 279.479C46.2188 280.645 47.1677 281.591 48.3384 281.591Z" fill="#222222"/>
<path d="M55.2017 281.591C56.3723 281.591 57.3213 280.645 57.3213 279.479C57.3213 278.312 56.3723 277.367 55.2017 277.367C54.031 277.367 53.082 278.312 53.082 279.479C53.082 280.645 54.031 281.591 55.2017 281.591Z" fill="#222222"/>
<path d="M54.9121 283.74C54.9121 285.708 53.5066 287.303 51.7705 287.303C50.0344 287.303 48.6289 285.708 48.6289 283.74" fill="#FF5353"/>
<path d="M37.2814 284.203C38.7043 284.203 39.8578 283.049 39.8578 281.626C39.8578 280.203 38.7043 279.05 37.2814 279.05C35.8586 279.05 34.7051 280.203 34.7051 281.626C34.7051 283.049 35.8586 284.203 37.2814 284.203Z" fill="#FFDDDD"/>
<path d="M66.4787 284.203C67.9016 284.203 69.0551 283.049 69.0551 281.626C69.0551 280.203 67.9016 279.05 66.4787 279.05C65.0558 279.05 63.9023 280.203 63.9023 281.626C63.9023 283.049 65.0558 284.203 66.4787 284.203Z" fill="#FFDDDD"/>
</g>
<path d="M43.2422 317.984H31.9766V316.969H37.0391V315.297H38.2422V316.969H43.2422V317.984ZM44.0391 325.391H38.2422V329.297H37.0391V325.391H31.3203V324.375H44.0391V325.391ZM37.6484 318.781C38.5911 318.781 39.401 318.872 40.0781 319.055C40.7604 319.232 41.2812 319.495 41.6406 319.844C42 320.193 42.1797 320.615 42.1797 321.109C42.1797 321.594 41.9974 322.008 41.6328 322.352C41.2734 322.695 40.7552 322.958 40.0781 323.141C39.401 323.323 38.5911 323.417 37.6484 323.422C36.7005 323.417 35.8854 323.323 35.2031 323.141C34.526 322.958 34.0078 322.695 33.6484 322.352C33.2891 322.008 33.112 321.594 33.1172 321.109C33.112 320.615 33.2891 320.193 33.6484 319.844C34.0078 319.495 34.526 319.232 35.2031 319.055C35.8854 318.872 36.7005 318.781 37.6484 318.781ZM37.6484 319.719C36.612 319.719 35.8047 319.841 35.2266 320.086C34.6536 320.331 34.3724 320.672 34.3828 321.109C34.3776 321.536 34.6589 321.87 35.2266 322.109C35.7995 322.349 36.6068 322.469 37.6484 322.469C38.6745 322.469 39.474 322.349 40.0469 322.109C40.6198 321.87 40.9089 321.536 40.9141 321.109C40.9036 320.672 40.612 320.331 40.0391 320.086C39.4661 319.841 38.6693 319.719 37.6484 319.719ZM50.0859 319.109C50.0807 319.932 50.2474 320.75 50.5859 321.562C50.9245 322.37 51.3828 323.089 51.9609 323.719C52.5391 324.349 53.1693 324.818 53.8516 325.125L53.1016 326.094C52.3099 325.703 51.5911 325.122 50.9453 324.352C50.3047 323.576 49.8203 322.695 49.4922 321.711C49.1693 322.758 48.6849 323.695 48.0391 324.523C47.3932 325.346 46.6641 325.964 45.8516 326.375L45.0703 325.344C45.7526 325.026 46.3828 324.544 46.9609 323.898C47.5391 323.247 48 322.503 48.3438 321.664C48.6875 320.82 48.862 319.969 48.8672 319.109V316.578H50.0859V319.109ZM56.6016 329.297H55.3672V315.375H56.6016V329.297ZM66.3047 317.516H61.0547V322.109C62.487 322.109 63.6771 322.078 64.625 322.016C65.5729 321.948 66.5286 321.823 67.4922 321.641L67.6172 322.656C66.5911 322.839 65.5807 322.966 64.5859 323.039C63.5964 323.107 62.3776 323.141 60.9297 323.141H59.8203V316.5H66.3047V317.516ZM70.4297 325.484H69.2266V315.391H70.4297V325.484ZM70.8672 328.969H61.3203V324.641H62.5547V327.938H70.8672V328.969Z" fill="#222222"/>
<path d="M94.5 236C94.5 231.582 98.0817 228 102.5 228H370.5C374.918 228 378.5 231.582 378.5 236V287C378.5 291.418 374.918 295 370.5 295H94.5V236Z" fill="#F6F7F9"/>
<path d="M130.578 264.453H129.344V258.438H125.344V257.422H129.344V254.391H130.578V264.453ZM130.953 267.969H121.625V263.625H122.859V266.938H130.953V267.969ZM121.125 261.094C122.271 261.099 123.318 261.062 124.266 260.984C125.214 260.901 126.172 260.755 127.141 260.547L127.312 261.609C126.276 261.812 125.26 261.956 124.266 262.039C123.271 262.117 122.167 262.156 120.953 262.156H119.891V255.422H121.125V261.094ZM147.859 257.25C147.859 258.047 147.849 258.742 147.828 259.336C147.812 259.93 147.768 260.622 147.695 261.414C147.622 262.206 147.505 263.068 147.344 264L146.094 263.875C146.266 262.995 146.393 262.167 146.477 261.391C146.56 260.609 146.609 259.922 146.625 259.328C146.646 258.729 146.656 258.036 146.656 257.25V256.875H138.281V255.859H147.859V257.25ZM149.562 266.219H136.906V265.203H149.562V266.219ZM165.625 258H167.703V259.031H165.625V262.672H164.391V254.375H165.625V258ZM161.156 262.938C162.094 262.938 162.906 263.044 163.594 263.258C164.281 263.466 164.81 263.768 165.18 264.164C165.549 264.56 165.734 265.031 165.734 265.578C165.734 266.135 165.549 266.612 165.18 267.008C164.81 267.409 164.281 267.714 163.594 267.922C162.911 268.13 162.099 268.234 161.156 268.234C160.208 268.234 159.388 268.13 158.695 267.922C158.008 267.714 157.477 267.409 157.102 267.008C156.732 266.612 156.547 266.135 156.547 265.578C156.547 265.031 156.732 264.56 157.102 264.164C157.477 263.768 158.01 263.466 158.703 263.258C159.396 263.044 160.214 262.938 161.156 262.938ZM161.156 263.953C160.464 263.948 159.859 264.01 159.344 264.141C158.833 264.271 158.44 264.461 158.164 264.711C157.888 264.956 157.75 265.245 157.75 265.578C157.75 265.917 157.888 266.214 158.164 266.469C158.44 266.719 158.833 266.911 159.344 267.047C159.859 267.182 160.464 267.25 161.156 267.25C161.844 267.25 162.443 267.182 162.953 267.047C163.464 266.911 163.857 266.719 164.133 266.469C164.409 266.214 164.547 265.917 164.547 265.578C164.547 265.245 164.409 264.956 164.133 264.711C163.857 264.461 163.464 264.271 162.953 264.141C162.443 264.01 161.844 263.948 161.156 263.953ZM161.562 256.453H156.594V260.531C158.078 260.521 159.276 260.484 160.188 260.422C161.099 260.354 162 260.229 162.891 260.047L163.016 261.062C162.089 261.25 161.154 261.375 160.211 261.438C159.268 261.5 158.021 261.531 156.469 261.531H155.391V255.438H161.562V256.453ZM173.516 258.109C173.51 258.932 173.677 259.75 174.016 260.562C174.354 261.37 174.812 262.089 175.391 262.719C175.969 263.349 176.599 263.818 177.281 264.125L176.531 265.094C175.74 264.703 175.021 264.122 174.375 263.352C173.734 262.576 173.25 261.695 172.922 260.711C172.599 261.758 172.115 262.695 171.469 263.523C170.823 264.346 170.094 264.964 169.281 265.375L168.5 264.344C169.182 264.026 169.812 263.544 170.391 262.898C170.969 262.247 171.43 261.503 171.773 260.664C172.117 259.82 172.292 258.969 172.297 258.109V255.578H173.516V258.109ZM180.031 268.297H178.797V254.375H180.031V268.297ZM194.312 268.266H193.125V254.375H194.312V268.266ZM191.516 267.562H190.344V260.812H188.555C188.513 261.708 188.365 262.487 188.109 263.148C187.854 263.805 187.508 264.312 187.07 264.672C186.633 265.026 186.13 265.203 185.562 265.203C184.964 265.203 184.438 265.008 183.984 264.617C183.536 264.221 183.19 263.659 182.945 262.93C182.701 262.201 182.578 261.349 182.578 260.375C182.578 259.401 182.701 258.549 182.945 257.82C183.19 257.091 183.536 256.531 183.984 256.141C184.438 255.745 184.964 255.547 185.562 255.547C186.12 255.547 186.615 255.719 187.047 256.062C187.479 256.406 187.823 256.898 188.078 257.539C188.339 258.18 188.495 258.932 188.547 259.797H190.344V254.672H191.516V267.562ZM185.562 256.703C185.188 256.703 184.862 256.852 184.586 257.148C184.31 257.445 184.096 257.872 183.945 258.43C183.799 258.982 183.729 259.63 183.734 260.375C183.729 261.12 183.799 261.768 183.945 262.32C184.096 262.872 184.31 263.297 184.586 263.594C184.867 263.891 185.193 264.036 185.562 264.031C185.932 264.036 186.255 263.891 186.531 263.594C186.812 263.297 187.029 262.872 187.18 262.32C187.331 261.768 187.406 261.12 187.406 260.375C187.406 259.625 187.331 258.974 187.18 258.422C187.029 257.87 186.815 257.445 186.539 257.148C186.263 256.852 185.938 256.703 185.562 256.703ZM205.516 264.258C206.964 264.19 208.292 264.068 209.5 263.891L209.594 264.797C208.198 265.052 206.773 265.216 205.32 265.289C203.872 265.357 202.266 265.391 200.5 265.391L200.328 264.375C202.057 264.365 203.385 264.344 204.312 264.312V261.703H205.516V264.258ZM208.781 257.219H205.516C205.526 257.807 205.685 258.359 205.992 258.875C206.299 259.385 206.721 259.828 207.258 260.203C207.794 260.578 208.406 260.865 209.094 261.062L208.516 262.031C207.677 261.781 206.945 261.398 206.32 260.883C205.695 260.367 205.227 259.758 204.914 259.055C204.617 259.794 204.156 260.432 203.531 260.969C202.911 261.505 202.182 261.901 201.344 262.156L200.75 261.219C201.438 261.016 202.044 260.719 202.57 260.328C203.102 259.938 203.516 259.477 203.812 258.945C204.115 258.409 204.271 257.833 204.281 257.219H201.094V256.203H204.312V254.484H205.516V256.203H208.781V257.219ZM211.641 268.297H210.422V254.375H211.641V268.297ZM218.828 257C218.828 257.641 218.971 258.26 219.258 258.859C219.549 259.453 219.956 259.982 220.477 260.445C220.997 260.904 221.594 261.255 222.266 261.5L221.578 262.453C220.818 262.151 220.146 261.711 219.562 261.133C218.984 260.549 218.544 259.88 218.242 259.125C217.951 259.964 217.5 260.703 216.891 261.344C216.281 261.984 215.568 262.469 214.75 262.797L214.094 261.797C214.781 261.542 215.391 261.169 215.922 260.68C216.453 260.19 216.867 259.622 217.164 258.977C217.466 258.331 217.62 257.656 217.625 256.953V255.234H218.828V257ZM225.594 264.797H224.359V258.688H221.266V257.656H224.359V254.391H225.594V264.797ZM225.906 267.969H216.609V263.609H217.844V266.938H225.906V267.969ZM234.234 254.625C235.266 254.625 236.148 254.719 236.883 254.906C237.617 255.089 238.177 255.359 238.562 255.719C238.948 256.073 239.141 256.505 239.141 257.016C239.141 257.797 238.714 258.396 237.859 258.812C237.005 259.229 235.797 259.443 234.234 259.453C233.203 259.448 232.318 259.352 231.578 259.164C230.844 258.977 230.281 258.703 229.891 258.344C229.505 257.979 229.312 257.536 229.312 257.016C229.312 256.505 229.505 256.073 229.891 255.719C230.281 255.359 230.844 255.089 231.578 254.906C232.318 254.719 233.203 254.625 234.234 254.625ZM234.234 255.547C233.469 255.547 232.812 255.607 232.266 255.727C231.719 255.841 231.302 256.01 231.016 256.234C230.729 256.453 230.589 256.714 230.594 257.016C230.589 257.495 230.904 257.865 231.539 258.125C232.174 258.385 233.073 258.516 234.234 258.516C235.391 258.516 236.289 258.385 236.93 258.125C237.57 257.865 237.891 257.495 237.891 257.016C237.891 256.714 237.745 256.453 237.453 256.234C237.161 256.016 236.742 255.846 236.195 255.727C235.648 255.607 234.995 255.547 234.234 255.547ZM240.562 261.391H227.906V260.391H240.562V261.391ZM238.938 265.703H230.688V267.141H239.359V268.109H229.469V264.797H237.734V263.531H229.438V262.594H238.938V265.703ZM256.5 259.875H258.828V260.906H256.5V268.297H255.281V254.375H256.5V259.875ZM252.844 256.75H247.578V263.781C248.875 263.781 250.008 263.745 250.977 263.672C251.945 263.599 252.932 263.469 253.938 263.281L254.094 264.344C253.068 264.531 252.06 264.656 251.07 264.719C250.081 264.781 248.875 264.812 247.453 264.812H246.359V255.734H252.844V256.75ZM270.438 258.969H272.531V260H270.438V264.797H269.219V254.391H270.438V258.969ZM267.891 257.094H259.609V256.094H263.141V254.391H264.359V256.094H267.891V257.094ZM263.75 257.859C264.406 257.859 264.984 257.966 265.484 258.18C265.99 258.393 266.383 258.695 266.664 259.086C266.945 259.477 267.089 259.932 267.094 260.453C267.089 260.969 266.945 261.419 266.664 261.805C266.383 262.19 265.99 262.49 265.484 262.703C264.984 262.911 264.406 263.016 263.75 263.016C263.089 263.016 262.503 262.911 261.992 262.703C261.487 262.49 261.094 262.19 260.812 261.805C260.536 261.419 260.401 260.969 260.406 260.453C260.401 259.932 260.536 259.477 260.812 259.086C261.094 258.695 261.487 258.393 261.992 258.18C262.503 257.966 263.089 257.859 263.75 257.859ZM263.75 258.828C263.318 258.828 262.935 258.896 262.602 259.031C262.273 259.161 262.018 259.352 261.836 259.602C261.659 259.846 261.573 260.13 261.578 260.453C261.573 260.776 261.659 261.06 261.836 261.305C262.018 261.544 262.273 261.729 262.602 261.859C262.935 261.99 263.318 262.052 263.75 262.047C264.177 262.052 264.555 261.99 264.883 261.859C265.216 261.729 265.474 261.544 265.656 261.305C265.839 261.06 265.932 260.776 265.938 260.453C265.932 260.13 265.839 259.846 265.656 259.602C265.474 259.352 265.216 259.161 264.883 259.031C264.555 258.896 264.177 258.828 263.75 258.828ZM271.078 267.969H261.75V263.969H262.953V266.938H271.078V267.969ZM284.906 268.266H283.688V260.984H280.375V259.969H283.688V254.375H284.906V268.266ZM280.406 255.891C280.406 260.297 278.302 263.542 274.094 265.625L273.422 264.641C277 262.911 278.917 260.328 279.172 256.891H274.031V255.891H280.406ZM290.953 255.453C291.635 255.458 292.24 255.661 292.766 256.062C293.297 256.458 293.711 257.021 294.008 257.75C294.31 258.479 294.464 259.328 294.469 260.297C294.464 261.266 294.31 262.115 294.008 262.844C293.711 263.573 293.297 264.135 292.766 264.531C292.234 264.927 291.63 265.125 290.953 265.125C290.271 265.125 289.664 264.927 289.133 264.531C288.602 264.135 288.188 263.573 287.891 262.844C287.599 262.115 287.453 261.266 287.453 260.297C287.453 259.328 287.599 258.479 287.891 257.75C288.188 257.021 288.602 256.458 289.133 256.062C289.664 255.661 290.271 255.458 290.953 255.453ZM290.953 256.547C290.495 256.552 290.089 256.711 289.734 257.023C289.38 257.331 289.104 257.768 288.906 258.336C288.708 258.898 288.609 259.552 288.609 260.297C288.609 261.042 288.708 261.698 288.906 262.266C289.104 262.828 289.38 263.263 289.734 263.57C290.094 263.878 290.5 264.031 290.953 264.031C291.411 264.031 291.815 263.878 292.164 263.57C292.518 263.263 292.792 262.828 292.984 262.266C293.182 261.698 293.281 261.042 293.281 260.297C293.281 259.552 293.182 258.898 292.984 258.336C292.792 257.768 292.518 257.331 292.164 257.023C291.815 256.711 291.411 256.552 290.953 256.547ZM300.234 258.922H297.984V262.016H300.234V263.047H297.984V268.266H296.766V254.375H297.984V257.875H300.234V258.922ZM303.203 263.812H301.891L301.781 255.688H303.312L303.203 263.812ZM302.547 267.094C302.365 267.094 302.195 267.049 302.039 266.961C301.888 266.867 301.766 266.742 301.672 266.586C301.583 266.43 301.542 266.26 301.547 266.078C301.542 265.901 301.583 265.737 301.672 265.586C301.766 265.43 301.888 265.307 302.039 265.219C302.195 265.125 302.365 265.078 302.547 265.078C302.724 265.078 302.888 265.125 303.039 265.219C303.195 265.307 303.318 265.43 303.406 265.586C303.5 265.737 303.547 265.901 303.547 266.078C303.547 266.26 303.5 266.43 303.406 266.586C303.318 266.742 303.195 266.867 303.039 266.961C302.888 267.049 302.724 267.094 302.547 267.094ZM313.891 256.578C313.885 257.12 314.029 257.641 314.32 258.141C314.612 258.641 315.021 259.083 315.547 259.469C316.078 259.849 316.682 260.141 317.359 260.344L316.781 261.297C315.979 261.057 315.273 260.693 314.664 260.203C314.06 259.714 313.604 259.141 313.297 258.484C313 259.229 312.536 259.878 311.906 260.43C311.281 260.982 310.542 261.391 309.688 261.656L309.078 260.703C309.771 260.484 310.385 260.169 310.922 259.758C311.464 259.341 311.885 258.862 312.188 258.32C312.495 257.773 312.651 257.203 312.656 256.609V256.172H309.5V255.172H316.984V256.172H313.891V256.578ZM320.047 257.422H322.141V258.438H320.047V261.547H318.828V254.375H320.047V257.422ZM320.047 265.516H312.422V267.172H320.562V268.141H311.219V264.609H318.828V263.172H311.188V262.188H320.047V265.516ZM334.812 263H333.641V259.234H331.828V262.781H330.656V254.609H331.828V258.219H333.641V254.391H334.812V263ZM330.062 256.984H322.938V255.969H325.906V254.438H327.125V255.969H330.062V256.984ZM326.516 257.688C327.099 257.688 327.615 257.786 328.062 257.984C328.516 258.177 328.867 258.453 329.117 258.812C329.367 259.167 329.495 259.583 329.5 260.062C329.495 260.531 329.367 260.945 329.117 261.305C328.867 261.664 328.516 261.943 328.062 262.141C327.615 262.339 327.099 262.438 326.516 262.438C325.938 262.438 325.422 262.339 324.969 262.141C324.516 261.943 324.164 261.664 323.914 261.305C323.664 260.945 323.542 260.531 323.547 260.062C323.542 259.589 323.664 259.172 323.914 258.812C324.164 258.453 324.513 258.177 324.961 257.984C325.414 257.786 325.932 257.688 326.516 257.688ZM326.516 258.609C326.146 258.609 325.818 258.669 325.531 258.789C325.25 258.909 325.031 259.078 324.875 259.297C324.719 259.516 324.641 259.771 324.641 260.062C324.641 260.349 324.719 260.604 324.875 260.828C325.036 261.047 325.258 261.216 325.539 261.336C325.826 261.456 326.151 261.516 326.516 261.516C326.88 261.516 327.203 261.456 327.484 261.336C327.771 261.216 327.992 261.047 328.148 260.828C328.31 260.604 328.391 260.349 328.391 260.062C328.391 259.771 328.312 259.516 328.156 259.297C328 259.078 327.779 258.909 327.492 258.789C327.211 258.669 326.885 258.609 326.516 258.609ZM327.938 263.891C327.927 264.505 328.089 265.096 328.422 265.664C328.76 266.227 329.247 266.68 329.883 267.023C330.305 266.779 330.664 266.477 330.961 266.117C331.263 265.758 331.492 265.385 331.648 265C331.805 264.609 331.885 264.24 331.891 263.891V263.391H333.094V263.891C333.089 264.344 333.198 264.789 333.422 265.227C333.651 265.664 333.979 266.055 334.406 266.398C334.839 266.737 335.344 266.995 335.922 267.172L335.344 268.109C334.661 267.87 334.076 267.526 333.586 267.078C333.096 266.635 332.727 266.125 332.477 265.547C332.253 266.135 331.922 266.667 331.484 267.141C331.052 267.615 330.526 267.974 329.906 268.219C329.26 267.979 328.719 267.63 328.281 267.172C327.849 266.719 327.523 266.198 327.305 265.609C327.044 266.167 326.672 266.664 326.188 267.102C325.708 267.539 325.146 267.875 324.5 268.109L323.906 267.172C324.469 266.979 324.964 266.706 325.391 266.352C325.823 265.997 326.154 265.604 326.383 265.172C326.617 264.74 326.734 264.312 326.734 263.891V263.391H327.938V263.891ZM340.578 255.453C341.203 255.458 341.763 255.633 342.258 255.977C342.758 256.32 343.161 256.81 343.469 257.445C343.776 258.081 343.961 258.828 344.023 259.688H347.141V254.375H348.359V268.297H347.141V260.703H344.039C343.992 261.599 343.818 262.38 343.516 263.047C343.214 263.714 342.807 264.227 342.297 264.586C341.792 264.945 341.219 265.125 340.578 265.125C339.901 265.125 339.297 264.927 338.766 264.531C338.24 264.135 337.828 263.573 337.531 262.844C337.24 262.115 337.094 261.266 337.094 260.297C337.094 259.328 337.24 258.479 337.531 257.75C337.828 257.021 338.24 256.458 338.766 256.062C339.292 255.661 339.896 255.458 340.578 255.453ZM340.578 256.547C340.125 256.552 339.721 256.711 339.367 257.023C339.018 257.331 338.747 257.768 338.555 258.336C338.362 258.898 338.266 259.552 338.266 260.297C338.266 261.042 338.362 261.698 338.555 262.266C338.747 262.828 339.018 263.263 339.367 263.57C339.721 263.878 340.125 264.031 340.578 264.031C341.026 264.031 341.424 263.878 341.773 263.57C342.128 263.263 342.401 262.828 342.594 262.266C342.792 261.698 342.891 261.042 342.891 260.297C342.891 259.552 342.792 258.898 342.594 258.336C342.401 257.768 342.13 257.331 341.781 257.023C341.432 256.711 341.031 256.552 340.578 256.547ZM352.141 267.094C351.958 267.094 351.789 267.049 351.633 266.961C351.482 266.867 351.359 266.742 351.266 266.586C351.177 266.43 351.135 266.26 351.141 266.078C351.135 265.901 351.177 265.737 351.266 265.586C351.359 265.43 351.482 265.307 351.633 265.219C351.789 265.125 351.958 265.078 352.141 265.078C352.318 265.078 352.482 265.125 352.633 265.219C352.789 265.307 352.911 265.43 353 265.586C353.094 265.737 353.141 265.901 353.141 266.078C353.141 266.26 353.094 266.43 353 266.586C352.911 266.742 352.789 266.867 352.633 266.961C352.482 267.049 352.318 267.094 352.141 267.094Z" fill="#4E4E4E"/>
<rect x="94.5" y="305" width="68" height="27" rx="8" fill="#FFB74D"/>
<path d="M108.297 320.875H105.453L104.938 324H103.797L104.312 320.875H102.641L102.828 319.75H104.492L104.961 316.938H103.312L103.484 315.812H105.141L105.656 312.688H106.797L106.281 315.812H109.125L109.641 312.688H110.781L110.266 315.812H111.953L111.766 316.938H110.086L109.617 319.75H111.281L111.094 320.875H109.438L108.922 324H107.781L108.297 320.875ZM108.477 319.75L108.945 316.938H106.102L105.633 319.75H108.477ZM123.703 313.156C123.703 313.927 123.682 314.622 123.641 315.242C123.599 315.862 123.495 316.562 123.328 317.344H125.359V318.359H112.656V317.344H122.078C122.255 316.552 122.367 315.849 122.414 315.234C122.461 314.615 122.484 313.922 122.484 313.156V313.141H114.266V312.125H123.703V313.156ZM118.984 320.016C119.974 320.016 120.831 320.12 121.555 320.328C122.284 320.536 122.844 320.839 123.234 321.234C123.625 321.625 123.823 322.094 123.828 322.641C123.823 323.188 123.625 323.654 123.234 324.039C122.844 324.424 122.286 324.716 121.562 324.914C120.839 325.117 119.979 325.219 118.984 325.219C117.979 325.219 117.109 325.117 116.375 324.914C115.646 324.716 115.086 324.424 114.695 324.039C114.305 323.654 114.109 323.188 114.109 322.641C114.109 322.094 114.305 321.625 114.695 321.234C115.091 320.839 115.654 320.536 116.383 320.328C117.117 320.12 117.984 320.016 118.984 320.016ZM118.984 321.016C118.229 321.016 117.578 321.081 117.031 321.211C116.49 321.336 116.073 321.521 115.781 321.766C115.495 322.01 115.354 322.302 115.359 322.641C115.354 322.964 115.495 323.245 115.781 323.484C116.073 323.724 116.492 323.906 117.039 324.031C117.586 324.161 118.234 324.229 118.984 324.234C119.719 324.229 120.357 324.161 120.898 324.031C121.44 323.906 121.857 323.724 122.148 323.484C122.44 323.245 122.589 322.964 122.594 322.641C122.589 322.302 122.44 322.01 122.148 321.766C121.857 321.521 121.44 321.336 120.898 321.211C120.362 321.081 119.724 321.016 118.984 321.016ZM138 319.656H136.766V316.016H133.969V315H136.766V311.375H138V319.656ZM133.391 320.094C134.354 320.094 135.185 320.195 135.883 320.398C136.581 320.602 137.115 320.896 137.484 321.281C137.859 321.667 138.047 322.13 138.047 322.672C138.047 323.214 137.859 323.677 137.484 324.062C137.115 324.453 136.581 324.75 135.883 324.953C135.185 325.156 134.354 325.26 133.391 325.266C132.427 325.26 131.596 325.156 130.898 324.953C130.201 324.75 129.664 324.453 129.289 324.062C128.919 323.677 128.734 323.214 128.734 322.672C128.734 322.13 128.919 321.667 129.289 321.281C129.664 320.896 130.201 320.602 130.898 320.398C131.596 320.195 132.427 320.094 133.391 320.094ZM133.391 321.047C132.688 321.047 132.076 321.112 131.555 321.242C131.034 321.372 130.635 321.56 130.359 321.805C130.083 322.049 129.948 322.339 129.953 322.672C129.948 323 130.083 323.286 130.359 323.531C130.635 323.771 131.034 323.956 131.555 324.086C132.076 324.216 132.688 324.281 133.391 324.281C134.094 324.281 134.703 324.216 135.219 324.086C135.74 323.956 136.138 323.771 136.414 323.531C136.69 323.286 136.828 323 136.828 322.672C136.828 322.339 136.69 322.049 136.414 321.805C136.138 321.56 135.74 321.372 135.219 321.242C134.703 321.112 134.094 321.047 133.391 321.047ZM131.312 313.922C131.312 314.521 131.456 315.102 131.742 315.664C132.029 316.221 132.43 316.719 132.945 317.156C133.466 317.589 134.062 317.922 134.734 318.156L134.094 319.141C133.318 318.859 132.635 318.443 132.047 317.891C131.464 317.339 131.023 316.701 130.727 315.977C130.424 316.789 129.964 317.508 129.344 318.133C128.729 318.753 128.01 319.219 127.188 319.531L126.547 318.547C127.229 318.297 127.839 317.938 128.375 317.469C128.911 316.995 129.328 316.451 129.625 315.836C129.927 315.221 130.078 314.589 130.078 313.938V313.422H126.938V312.391H134.422V313.422H131.312V313.922ZM151.156 315.281H153.234V316.328H151.156V320.266H149.922V311.391H151.156V315.281ZM146.672 320.391C147.62 320.391 148.435 320.487 149.117 320.68C149.799 320.867 150.323 321.143 150.688 321.508C151.057 321.867 151.245 322.302 151.25 322.812C151.245 323.318 151.057 323.753 150.688 324.117C150.323 324.482 149.797 324.758 149.109 324.945C148.427 325.138 147.615 325.234 146.672 325.234C145.729 325.234 144.914 325.138 144.227 324.945C143.544 324.758 143.021 324.482 142.656 324.117C142.292 323.753 142.109 323.318 142.109 322.812C142.109 322.302 142.292 321.867 142.656 321.508C143.021 321.143 143.544 320.867 144.227 320.68C144.909 320.487 145.724 320.391 146.672 320.391ZM146.672 321.344C145.979 321.344 145.378 321.404 144.867 321.523C144.362 321.638 143.974 321.807 143.703 322.031C143.438 322.25 143.307 322.51 143.312 322.812C143.307 323.115 143.438 323.375 143.703 323.594C143.974 323.807 144.362 323.971 144.867 324.086C145.378 324.206 145.979 324.266 146.672 324.266C147.359 324.266 147.956 324.206 148.461 324.086C148.966 323.971 149.354 323.807 149.625 323.594C149.896 323.375 150.031 323.115 150.031 322.812C150.031 322.51 149.896 322.25 149.625 322.031C149.354 321.807 148.966 321.638 148.461 321.523C147.956 321.404 147.359 321.344 146.672 321.344ZM140.297 318.328C141.719 318.328 142.943 318.31 143.969 318.273V316.969C143.391 316.911 142.885 316.771 142.453 316.547C142.021 316.323 141.688 316.031 141.453 315.672C141.219 315.307 141.104 314.896 141.109 314.438C141.104 313.938 141.245 313.497 141.531 313.117C141.818 312.732 142.221 312.435 142.742 312.227C143.263 312.013 143.865 311.906 144.547 311.906C145.224 311.906 145.823 312.013 146.344 312.227C146.87 312.435 147.276 312.732 147.562 313.117C147.854 313.497 148 313.938 148 314.438C148 314.891 147.885 315.297 147.656 315.656C147.427 316.01 147.102 316.302 146.68 316.531C146.258 316.755 145.766 316.898 145.203 316.961V318.219C146.62 318.151 147.896 318.036 149.031 317.875L149.125 318.766C147.818 318.99 146.445 319.138 145.008 319.211C143.57 319.279 142.052 319.312 140.453 319.312L140.297 318.328ZM144.547 312.844C144.094 312.844 143.693 312.911 143.344 313.047C143 313.177 142.732 313.365 142.539 313.609C142.352 313.849 142.26 314.125 142.266 314.438C142.26 314.76 142.352 315.049 142.539 315.305C142.732 315.555 143 315.75 143.344 315.891C143.693 316.026 144.094 316.094 144.547 316.094C144.995 316.094 145.391 316.026 145.734 315.891C146.083 315.75 146.354 315.555 146.547 315.305C146.74 315.049 146.839 314.76 146.844 314.438C146.839 314.125 146.74 313.849 146.547 313.609C146.354 313.365 146.083 313.177 145.734 313.047C145.391 312.911 144.995 312.844 144.547 312.844Z" fill="white"/>
<path d="M24.5 356C24.5 351.582 28.0817 348 32.5 348H324.5C328.918 348 332.5 351.582 332.5 356V434H32.5C28.0817 434 24.5 430.418 24.5 426V356Z" fill="#F6F7F9"/>
<path d="M60.0156 377.25C60.0156 378.047 60.0052 378.742 59.9844 379.336C59.9688 379.93 59.9245 380.622 59.8516 381.414C59.7786 382.206 59.6615 383.068 59.5 384L58.25 383.875C58.4219 382.995 58.5495 382.167 58.6328 381.391C58.7161 380.609 58.7656 379.922 58.7812 379.328C58.8021 378.729 58.8125 378.036 58.8125 377.25V376.875H50.4375V375.859H60.0156V377.25ZM61.7188 386.219H49.0625V385.203H61.7188V386.219ZM75.2188 376.875H66.9375V375.875H70.4688V374.312H71.6875V375.875H75.2188V376.875ZM71.0781 377.594C71.7396 377.599 72.3203 377.706 72.8203 377.914C73.3255 378.117 73.7161 378.409 73.9922 378.789C74.2734 379.164 74.4167 379.604 74.4219 380.109C74.4167 380.609 74.2734 381.049 73.9922 381.43C73.7161 381.805 73.3255 382.096 72.8203 382.305C72.3203 382.508 71.7396 382.609 71.0781 382.609C70.4167 382.609 69.8307 382.508 69.3203 382.305C68.8151 382.096 68.4219 381.805 68.1406 381.43C67.8646 381.049 67.7292 380.609 67.7344 380.109C67.7292 379.604 67.8646 379.164 68.1406 378.789C68.4219 378.409 68.8151 378.117 69.3203 377.914C69.8307 377.706 70.4167 377.599 71.0781 377.594ZM71.0781 378.547C70.6458 378.552 70.263 378.62 69.9297 378.75C69.6016 378.88 69.3464 379.062 69.1641 379.297C68.987 379.531 68.901 379.802 68.9062 380.109C68.901 380.411 68.987 380.677 69.1641 380.906C69.3464 381.135 69.6016 381.312 69.9297 381.438C70.263 381.562 70.6458 381.625 71.0781 381.625C71.5052 381.625 71.8828 381.562 72.2109 381.438C72.5443 381.312 72.8021 381.135 72.9844 380.906C73.1667 380.677 73.2604 380.411 73.2656 380.109C73.2604 379.802 73.1667 379.531 72.9844 379.297C72.8021 379.062 72.5443 378.88 72.2109 378.75C71.8828 378.62 71.5052 378.552 71.0781 378.547ZM77.7656 378.234H79.8594V379.266H77.7656V383.062H76.5469V374.375H77.7656V378.234ZM77.7656 388.266H76.5469V384.828H68.6719V383.828H77.7656V388.266ZM91.8906 377.328C91.8906 378.12 91.8828 378.794 91.8672 379.352C91.8516 379.909 91.8073 380.536 91.7344 381.234C91.6615 381.932 91.5469 382.682 91.3906 383.484L90.1875 383.344C90.3438 382.583 90.4583 381.862 90.5312 381.18C90.6042 380.492 90.6484 379.872 90.6641 379.32C90.6797 378.768 90.6875 378.104 90.6875 377.328V376.797H82.0625V375.781H91.8906V377.328ZM93.3906 386.297H80.7344V385.281H83.875V380.703H85.0938V385.281H87.3438V380.703H88.5469V385.281H93.3906V386.297ZM107.266 381.797H94.5469V380.828H107.266V381.797ZM105.672 385.859H97.3281V387.188H106.125V388.078H96.0938V385.016H104.453V383.828H96.0781V382.906H105.672V385.859ZM105.625 377.672H97.4219V378.891H105.875V379.781H96.2031V376.828H104.391V375.688H96.1562V374.797H105.625V377.672ZM123.156 380.031H125.406V381.062H123.156V388.266H121.938V374.375H123.156V380.031ZM119.562 375.875C119.562 377.943 119.044 379.818 118.008 381.5C116.971 383.177 115.365 384.552 113.188 385.625L112.5 384.656C114.286 383.766 115.669 382.667 116.648 381.359C117.628 380.047 118.188 378.562 118.328 376.906H113.141V375.875H119.562ZM131.125 378.109C131.125 378.932 131.286 379.745 131.609 380.547C131.932 381.349 132.37 382.062 132.922 382.688C133.474 383.307 134.083 383.771 134.75 384.078L134.016 385.078C133.229 384.672 132.526 384.076 131.906 383.289C131.286 382.503 130.823 381.615 130.516 380.625C130.203 381.672 129.737 382.612 129.117 383.445C128.503 384.279 127.802 384.906 127.016 385.328L126.219 384.344C126.891 384.016 127.505 383.523 128.062 382.867C128.62 382.206 129.06 381.458 129.383 380.625C129.711 379.786 129.875 378.948 129.875 378.109V375.578H131.125V378.109ZM137.75 388.297H136.531V380.125H133.234V379.125H136.531V374.375H137.75V388.297ZM151.094 382.031H144.672V375.641H151.094V382.031ZM145.875 381.047H149.906V376.641H145.875V381.047ZM154.938 378.609H157.031V379.641H154.938V384.562H153.719V374.375H154.938V378.609ZM155.578 387.969H146.25V383.594H147.453V386.938H155.578V387.969ZM159.812 380.859C160.896 380.865 161.951 380.823 162.977 380.734C164.003 380.646 165.047 380.49 166.109 380.266L166.25 381.281C165.146 381.516 164.065 381.68 163.008 381.773C161.951 381.862 160.844 381.906 159.688 381.906H158.578V375.391H159.812V380.859ZM168.766 378.516H170.859V379.578H168.766V384.422H167.547V374.391H168.766V378.516ZM169.266 387.969H160.125V383.438H161.344V386.938H169.266V387.969ZM187.219 384.656H186V374.391H187.219V384.656ZM187.656 387.969H178.25V383.703H179.469V386.938H187.656V387.969ZM180.797 377.625C180.797 378.229 180.948 378.807 181.25 379.359C181.552 379.906 181.971 380.385 182.508 380.797C183.049 381.208 183.667 381.521 184.359 381.734L183.75 382.719C182.932 382.458 182.214 382.062 181.594 381.531C180.979 380.995 180.516 380.367 180.203 379.648C179.896 380.424 179.435 381.102 178.82 381.68C178.206 382.253 177.484 382.682 176.656 382.969L176.031 382C176.719 381.776 177.331 381.445 177.867 381.008C178.404 380.565 178.823 380.052 179.125 379.469C179.427 378.88 179.578 378.266 179.578 377.625V377.25H176.375V376.266H179.578V374.453H180.812V376.266H183.984V377.25H180.797V377.625ZM200.562 376.5C200.562 377.396 200.539 378.19 200.492 378.883C200.451 379.576 200.341 380.365 200.164 381.25H202.234V382.266H196.5V388.297H195.266V382.266H189.578V381.25H198.922C199.109 380.365 199.227 379.573 199.273 378.875C199.32 378.177 199.344 377.385 199.344 376.5V376.297H191.172V375.281H200.562V376.5ZM216.078 381.203H203.406V380.219H216.078V381.203ZM214.562 379.078H205.094V374.859H214.422V375.844H206.328V378.078H214.562V379.078ZM214.438 385.672H206.188V387.109H214.859V388.109H204.969V384.75H213.234V383.406H204.938V382.453H214.438V385.672ZM224.938 376.641V376.859C224.927 377.688 224.896 378.513 224.844 379.336C224.792 380.154 224.688 381.094 224.531 382.156L223.297 382.047C223.464 381.016 223.573 380.094 223.625 379.281C223.677 378.464 223.703 377.677 223.703 376.922H217.875V375.922H224.938V376.641ZM221.297 384.109C223.01 384.047 224.531 383.938 225.859 383.781L225.922 384.703C224.708 384.896 223.43 385.029 222.086 385.102C220.742 385.169 219.349 385.203 217.906 385.203H217.25L217.094 384.188C218.422 384.177 219.422 384.164 220.094 384.148V379.891H221.297V384.109ZM227.953 380.188H230.203V381.25H227.953V388.266H226.734V374.375H227.953V380.188ZM236.766 379.094H239.781V375.703H240.922V384.797H235.594V375.703H236.766V379.094ZM239.781 383.781V380.094H236.766V383.781H239.781ZM246.984 388.266H245.797V380.906H243.859V387.562H242.688V374.672H243.859V379.891H245.797V374.375H246.984V388.266ZM261.609 382.453H255.969V385.297H254.734V382.453H248.891V381.438H261.609V382.453ZM260.188 387.969H250.531V383.906H251.766V386.922H260.188V387.969ZM255.234 374.734C256.219 374.74 257.078 374.857 257.812 375.086C258.552 375.31 259.122 375.633 259.523 376.055C259.924 376.471 260.125 376.964 260.125 377.531C260.125 378.099 259.924 378.591 259.523 379.008C259.122 379.424 258.552 379.745 257.812 379.969C257.078 380.188 256.219 380.297 255.234 380.297C254.25 380.297 253.388 380.188 252.648 379.969C251.909 379.745 251.336 379.424 250.93 379.008C250.529 378.591 250.328 378.099 250.328 377.531C250.328 376.964 250.529 376.471 250.93 376.055C251.336 375.633 251.909 375.31 252.648 375.086C253.388 374.857 254.25 374.74 255.234 374.734ZM255.234 375.734C254.521 375.734 253.891 375.807 253.344 375.953C252.797 376.099 252.375 376.307 252.078 376.578C251.781 376.849 251.635 377.167 251.641 377.531C251.635 377.885 251.781 378.195 252.078 378.461C252.38 378.727 252.802 378.932 253.344 379.078C253.891 379.224 254.521 379.297 255.234 379.297C255.948 379.297 256.576 379.227 257.117 379.086C257.659 378.94 258.078 378.734 258.375 378.469C258.677 378.198 258.828 377.885 258.828 377.531C258.828 377.167 258.68 376.849 258.383 376.578C258.086 376.307 257.664 376.099 257.117 375.953C256.576 375.807 255.948 375.734 255.234 375.734ZM54.0312 397.641C54.0312 398.406 54.2005 399.169 54.5391 399.93C54.8776 400.685 55.3333 401.359 55.9062 401.953C56.4844 402.542 57.1146 402.984 57.7969 403.281L57.1094 404.25C56.2917 403.875 55.5547 403.31 54.8984 402.555C54.2422 401.794 53.7526 400.938 53.4297 399.984C53.1068 401.005 52.6172 401.93 51.9609 402.758C51.3099 403.581 50.5885 404.193 49.7969 404.594L49.0625 403.625C49.7188 403.307 50.3307 402.828 50.8984 402.188C51.4714 401.547 51.9297 400.826 52.2734 400.023C52.6172 399.216 52.7917 398.422 52.7969 397.641V395.828H49.5156V394.812H57.3438V395.828H54.0312V397.641ZM60.5156 407.266H59.2812V393.375H60.5156V407.266ZM67.8125 395.391C67.8073 396.057 67.9531 396.693 68.25 397.297C68.5469 397.901 68.9609 398.432 69.4922 398.891C70.0286 399.349 70.6406 399.698 71.3281 399.938L70.7031 400.906C69.8958 400.615 69.1875 400.18 68.5781 399.602C67.9688 399.023 67.5078 398.349 67.1953 397.578C66.8932 398.401 66.4323 399.125 65.8125 399.75C65.1979 400.37 64.4844 400.839 63.6719 401.156L63.0312 400.188C63.7188 399.932 64.3281 399.562 64.8594 399.078C65.3958 398.589 65.8125 398.023 66.1094 397.383C66.4115 396.742 66.5625 396.078 66.5625 395.391V394.062H67.8125V395.391ZM74.3594 407.266H73.1406V403.453H65.0156V402.438H74.3594V407.266ZM74.3594 401.75H73.1406V393.375H74.3594V401.75ZM89.3906 400.203H76.7188V399.219H89.3906V400.203ZM87.875 398.078H78.4062V393.859H87.7344V394.844H79.6406V397.078H87.875V398.078ZM87.75 404.672H79.5V406.109H88.1719V407.109H78.2812V403.75H86.5469V402.406H78.25V401.453H87.75V404.672ZM103.266 405.547H90.5469V404.516H96.2656V401.891H92.1406V397.609H100.453V395.422H92.1094V394.406H101.656V398.609H93.3594V400.875H101.984V401.891H97.4688V404.516H103.266V405.547ZM115.406 401.031H108.984V394.641H115.406V401.031ZM110.188 400.047H114.219V395.641H110.188V400.047ZM119.25 397.609H121.344V398.641H119.25V403.562H118.031V393.375H119.25V397.609ZM119.891 406.969H110.562V402.594H111.766V405.938H119.891V406.969ZM134.891 400.203H122.219V399.219H134.891V400.203ZM133.375 398.078H123.906V393.859H133.234V394.844H125.141V397.078H133.375V398.078ZM133.25 404.672H125V406.109H133.672V407.109H123.781V403.75H132.047V402.406H123.75V401.453H133.25V404.672ZM139.781 394.453C140.406 394.458 140.966 394.633 141.461 394.977C141.961 395.32 142.365 395.81 142.672 396.445C142.979 397.081 143.164 397.828 143.227 398.688H146.344V393.375H147.562V407.297H146.344V399.703H143.242C143.195 400.599 143.021 401.38 142.719 402.047C142.417 402.714 142.01 403.227 141.5 403.586C140.995 403.945 140.422 404.125 139.781 404.125C139.104 404.125 138.5 403.927 137.969 403.531C137.443 403.135 137.031 402.573 136.734 401.844C136.443 401.115 136.297 400.266 136.297 399.297C136.297 398.328 136.443 397.479 136.734 396.75C137.031 396.021 137.443 395.458 137.969 395.062C138.495 394.661 139.099 394.458 139.781 394.453ZM139.781 395.547C139.328 395.552 138.924 395.711 138.57 396.023C138.221 396.331 137.951 396.768 137.758 397.336C137.565 397.898 137.469 398.552 137.469 399.297C137.469 400.042 137.565 400.698 137.758 401.266C137.951 401.828 138.221 402.263 138.57 402.57C138.924 402.878 139.328 403.031 139.781 403.031C140.229 403.031 140.628 402.878 140.977 402.57C141.331 402.263 141.604 401.828 141.797 401.266C141.995 400.698 142.094 400.042 142.094 399.297C142.094 398.552 141.995 397.898 141.797 397.336C141.604 396.768 141.333 396.331 140.984 396.023C140.635 395.711 140.234 395.552 139.781 395.547ZM154.875 396.359C154.875 396.974 155.026 397.565 155.328 398.133C155.63 398.695 156.052 399.19 156.594 399.617C157.135 400.039 157.75 400.359 158.438 400.578L157.812 401.562C157 401.286 156.286 400.875 155.672 400.328C155.057 399.781 154.594 399.141 154.281 398.406C153.979 399.198 153.516 399.893 152.891 400.492C152.271 401.091 151.547 401.542 150.719 401.844L150.078 400.859C150.766 400.615 151.38 400.263 151.922 399.805C152.464 399.346 152.885 398.82 153.188 398.227C153.49 397.628 153.641 397.005 153.641 396.359V395.547H150.391V394.547H158.078V395.547H154.875V396.359ZM161.344 403.578H160.125V393.391H161.344V403.578ZM161.781 406.969H152.375V402.609H153.594V405.938H161.781V406.969ZM172.688 397.641C172.688 398.406 172.857 399.169 173.195 399.93C173.534 400.685 173.99 401.359 174.562 401.953C175.141 402.542 175.771 402.984 176.453 403.281L175.766 404.25C174.948 403.875 174.211 403.31 173.555 402.555C172.898 401.794 172.409 400.938 172.086 399.984C171.763 401.005 171.273 401.93 170.617 402.758C169.966 403.581 169.245 404.193 168.453 404.594L167.719 403.625C168.375 403.307 168.987 402.828 169.555 402.188C170.128 401.547 170.586 400.826 170.93 400.023C171.273 399.216 171.448 398.422 171.453 397.641V395.828H168.172V394.812H176V395.828H172.688V397.641ZM179.172 407.266H177.938V393.375H179.172V407.266ZM192.594 395.156C192.594 395.906 192.573 396.583 192.531 397.188C192.49 397.786 192.388 398.469 192.227 399.234H194.266V400.25H181.547V399.234H190.992C191.159 398.464 191.263 397.779 191.305 397.18C191.352 396.581 191.375 395.906 191.375 395.156V395.141H183.156V394.125H192.594V395.156ZM192.656 407.078H183.109V402.172H192.656V407.078ZM184.328 406.078H191.438V403.141H184.328V406.078ZM199.922 394.391C200.646 394.391 201.289 394.529 201.852 394.805C202.419 395.081 202.862 395.466 203.18 395.961C203.497 396.456 203.656 397.021 203.656 397.656C203.656 398.292 203.497 398.857 203.18 399.352C202.862 399.846 202.419 400.232 201.852 400.508C201.289 400.784 200.646 400.922 199.922 400.922C199.198 400.922 198.549 400.784 197.977 400.508C197.409 400.232 196.964 399.846 196.641 399.352C196.323 398.857 196.167 398.292 196.172 397.656C196.167 397.021 196.323 396.456 196.641 395.961C196.964 395.466 197.409 395.081 197.977 394.805C198.549 394.529 199.198 394.391 199.922 394.391ZM199.922 395.469C199.432 395.469 198.992 395.562 198.602 395.75C198.216 395.932 197.914 396.19 197.695 396.523C197.477 396.852 197.37 397.229 197.375 397.656C197.37 398.083 197.477 398.464 197.695 398.797C197.914 399.125 198.216 399.383 198.602 399.57C198.992 399.753 199.432 399.844 199.922 399.844C200.406 399.844 200.841 399.753 201.227 399.57C201.612 399.383 201.911 399.125 202.125 398.797C202.344 398.464 202.453 398.083 202.453 397.656C202.453 397.229 202.344 396.852 202.125 396.523C201.911 396.19 201.612 395.932 201.227 395.75C200.841 395.562 200.406 395.469 199.922 395.469ZM206.766 407.297H205.547V393.375H206.766V407.297ZM195.453 403.188C197.255 403.188 198.893 403.159 200.367 403.102C201.846 403.044 203.266 402.917 204.625 402.719L204.719 403.625C203.323 403.885 201.898 404.052 200.445 404.125C198.997 404.198 197.391 404.234 195.625 404.234L195.453 403.188ZM224.75 407.297H223.516V398.984H219.188V397.969H223.516V393.375H224.75V407.297ZM215.219 402.891C216.391 402.88 217.456 402.836 218.414 402.758C219.372 402.674 220.339 402.531 221.312 402.328L221.469 403.344C220.411 403.557 219.378 403.708 218.367 403.797C217.357 403.88 216.25 403.922 215.047 403.922H213.984V394.938H215.219V402.891ZM238.281 398.578H228.766V393.891H229.984V397.594H238.281V398.578ZM239.75 401.469H227.031V400.469H239.75V401.469ZM238.359 406.922H228.688V402.891H229.906V405.906H238.359V406.922ZM247.656 403.266H250.188V401.531H251.328V407.078H246.5V401.531H247.656V403.266ZM250.188 406.109V404.203H247.656V406.109H250.188ZM255.297 402.625C255.292 403.125 255.385 403.615 255.578 404.094C255.776 404.568 256.068 404.995 256.453 405.375C256.844 405.755 257.312 406.047 257.859 406.25L257.219 407.188C256.599 406.938 256.073 406.583 255.641 406.125C255.214 405.667 254.891 405.138 254.672 404.539C254.443 405.128 254.115 405.651 253.688 406.109C253.26 406.573 252.75 406.932 252.156 407.188L251.516 406.25C252.057 406.026 252.521 405.721 252.906 405.336C253.292 404.951 253.583 404.523 253.781 404.055C253.979 403.581 254.078 403.104 254.078 402.625V401.438H255.297V402.625ZM248.719 394C249.333 394 249.893 394.109 250.398 394.328C250.904 394.547 251.318 394.859 251.641 395.266C251.969 395.667 252.177 396.13 252.266 396.656H255.172V393.375H256.406V400.734H255.172V397.672H252.273C252.195 398.214 251.992 398.69 251.664 399.102C251.341 399.513 250.924 399.831 250.414 400.055C249.904 400.279 249.339 400.391 248.719 400.391C248.021 400.391 247.398 400.258 246.852 399.992C246.305 399.721 245.878 399.344 245.57 398.859C245.263 398.37 245.109 397.812 245.109 397.188C245.109 396.568 245.263 396.016 245.57 395.531C245.878 395.047 246.305 394.672 246.852 394.406C247.398 394.135 248.021 394 248.719 394ZM248.719 395.031C248.25 395.031 247.831 395.122 247.461 395.305C247.091 395.487 246.802 395.742 246.594 396.07C246.385 396.398 246.281 396.771 246.281 397.188C246.281 397.609 246.385 397.987 246.594 398.32C246.802 398.648 247.091 398.906 247.461 399.094C247.831 399.281 248.25 399.375 248.719 399.375C249.182 399.375 249.596 399.281 249.961 399.094C250.326 398.906 250.609 398.648 250.812 398.32C251.021 397.987 251.125 397.609 251.125 397.188C251.125 396.771 251.021 396.398 250.812 396.07C250.609 395.742 250.326 395.487 249.961 395.305C249.596 395.122 249.182 395.031 248.719 395.031ZM265.047 393.625C266.078 393.625 266.961 393.719 267.695 393.906C268.43 394.089 268.99 394.359 269.375 394.719C269.76 395.073 269.953 395.505 269.953 396.016C269.953 396.797 269.526 397.396 268.672 397.812C267.818 398.229 266.609 398.443 265.047 398.453C264.016 398.448 263.13 398.352 262.391 398.164C261.656 397.977 261.094 397.703 260.703 397.344C260.318 396.979 260.125 396.536 260.125 396.016C260.125 395.505 260.318 395.073 260.703 394.719C261.094 394.359 261.656 394.089 262.391 393.906C263.13 393.719 264.016 393.625 265.047 393.625ZM265.047 394.547C264.281 394.547 263.625 394.607 263.078 394.727C262.531 394.841 262.115 395.01 261.828 395.234C261.542 395.453 261.401 395.714 261.406 396.016C261.401 396.495 261.716 396.865 262.352 397.125C262.987 397.385 263.885 397.516 265.047 397.516C266.203 397.516 267.102 397.385 267.742 397.125C268.383 396.865 268.703 396.495 268.703 396.016C268.703 395.714 268.557 395.453 268.266 395.234C267.974 395.016 267.555 394.846 267.008 394.727C266.461 394.607 265.807 394.547 265.047 394.547ZM271.375 400.391H258.719V399.391H271.375V400.391ZM269.75 404.703H261.5V406.141H270.172V407.109H260.281V403.797H268.547V402.531H260.25V401.594H269.75V404.703ZM288.062 407.266H286.844V399.984H283.531V398.969H286.844V393.375H288.062V407.266ZM283.562 394.891C283.562 399.297 281.458 402.542 277.25 404.625L276.578 403.641C280.156 401.911 282.073 399.328 282.328 395.891H277.188V394.891H283.562ZM294.109 394.453C294.792 394.458 295.396 394.661 295.922 395.062C296.453 395.458 296.867 396.021 297.164 396.75C297.466 397.479 297.62 398.328 297.625 399.297C297.62 400.266 297.466 401.115 297.164 401.844C296.867 402.573 296.453 403.135 295.922 403.531C295.391 403.927 294.786 404.125 294.109 404.125C293.427 404.125 292.82 403.927 292.289 403.531C291.758 403.135 291.344 402.573 291.047 401.844C290.755 401.115 290.609 400.266 290.609 399.297C290.609 398.328 290.755 397.479 291.047 396.75C291.344 396.021 291.758 395.458 292.289 395.062C292.82 394.661 293.427 394.458 294.109 394.453ZM294.109 395.547C293.651 395.552 293.245 395.711 292.891 396.023C292.536 396.331 292.26 396.768 292.062 397.336C291.865 397.898 291.766 398.552 291.766 399.297C291.766 400.042 291.865 400.698 292.062 401.266C292.26 401.828 292.536 402.263 292.891 402.57C293.25 402.878 293.656 403.031 294.109 403.031C294.568 403.031 294.971 402.878 295.32 402.57C295.674 402.263 295.948 401.828 296.141 401.266C296.339 400.698 296.438 400.042 296.438 399.297C296.438 398.552 296.339 397.898 296.141 397.336C295.948 396.768 295.674 396.331 295.32 396.023C294.971 395.711 294.568 395.552 294.109 395.547ZM303.391 397.922H301.141V401.016H303.391V402.047H301.141V407.266H299.922V393.375H301.141V396.875H303.391V397.922ZM305.688 406.094C305.505 406.094 305.336 406.049 305.18 405.961C305.029 405.867 304.906 405.742 304.812 405.586C304.724 405.43 304.682 405.26 304.688 405.078C304.682 404.901 304.724 404.737 304.812 404.586C304.906 404.43 305.029 404.307 305.18 404.219C305.336 404.125 305.505 404.078 305.688 404.078C305.865 404.078 306.029 404.125 306.18 404.219C306.336 404.307 306.458 404.43 306.547 404.586C306.641 404.737 306.688 404.901 306.688 405.078C306.688 405.26 306.641 405.43 306.547 405.586C306.458 405.742 306.336 405.867 306.18 405.961C306.029 406.049 305.865 406.094 305.688 406.094Z" fill="#4E4E4E"/>
<rect x="265" y="446" width="68" height="27" rx="8" fill="#FFB74D"/>
<path d="M278.797 461.875H275.953L275.438 465H274.297L274.812 461.875H273.141L273.328 460.75H274.992L275.461 457.938H273.812L273.984 456.812H275.641L276.156 453.688H277.297L276.781 456.812H279.625L280.141 453.688H281.281L280.766 456.812H282.453L282.266 457.938H280.586L280.117 460.75H281.781L281.594 461.875H279.938L279.422 465H278.281L278.797 461.875ZM278.977 460.75L279.445 457.938H276.602L276.133 460.75H278.977ZM288.156 455.359C288.156 455.974 288.307 456.565 288.609 457.133C288.911 457.695 289.333 458.19 289.875 458.617C290.417 459.039 291.031 459.359 291.719 459.578L291.094 460.562C290.281 460.286 289.568 459.875 288.953 459.328C288.339 458.781 287.875 458.141 287.562 457.406C287.26 458.198 286.797 458.893 286.172 459.492C285.552 460.091 284.828 460.542 284 460.844L283.359 459.859C284.047 459.615 284.661 459.263 285.203 458.805C285.745 458.346 286.167 457.82 286.469 457.227C286.771 456.628 286.922 456.005 286.922 455.359V454.547H283.672V453.547H291.359V454.547H288.156V455.359ZM294.625 462.578H293.406V452.391H294.625V462.578ZM295.062 465.969H285.656V461.609H286.875V464.938H295.062V465.969ZM301.953 456.641C301.953 457.406 302.122 458.169 302.461 458.93C302.799 459.685 303.255 460.359 303.828 460.953C304.406 461.542 305.036 461.984 305.719 462.281L305.031 463.25C304.214 462.875 303.477 462.31 302.82 461.555C302.164 460.794 301.674 459.938 301.352 458.984C301.029 460.005 300.539 460.93 299.883 461.758C299.232 462.581 298.51 463.193 297.719 463.594L296.984 462.625C297.641 462.307 298.253 461.828 298.82 461.188C299.393 460.547 299.852 459.826 300.195 459.023C300.539 458.216 300.714 457.422 300.719 456.641V454.828H297.438V453.812H305.266V454.828H301.953V456.641ZM308.438 466.266H307.203V452.375H308.438V466.266ZM321.656 456.281H323.734V457.328H321.656V461.266H320.422V452.391H321.656V456.281ZM317.172 461.391C318.12 461.391 318.935 461.487 319.617 461.68C320.299 461.867 320.823 462.143 321.188 462.508C321.557 462.867 321.745 463.302 321.75 463.812C321.745 464.318 321.557 464.753 321.188 465.117C320.823 465.482 320.297 465.758 319.609 465.945C318.927 466.138 318.115 466.234 317.172 466.234C316.229 466.234 315.414 466.138 314.727 465.945C314.044 465.758 313.521 465.482 313.156 465.117C312.792 464.753 312.609 464.318 312.609 463.812C312.609 463.302 312.792 462.867 313.156 462.508C313.521 462.143 314.044 461.867 314.727 461.68C315.409 461.487 316.224 461.391 317.172 461.391ZM317.172 462.344C316.479 462.344 315.878 462.404 315.367 462.523C314.862 462.638 314.474 462.807 314.203 463.031C313.938 463.25 313.807 463.51 313.812 463.812C313.807 464.115 313.938 464.375 314.203 464.594C314.474 464.807 314.862 464.971 315.367 465.086C315.878 465.206 316.479 465.266 317.172 465.266C317.859 465.266 318.456 465.206 318.961 465.086C319.466 464.971 319.854 464.807 320.125 464.594C320.396 464.375 320.531 464.115 320.531 463.812C320.531 463.51 320.396 463.25 320.125 463.031C319.854 462.807 319.466 462.638 318.961 462.523C318.456 462.404 317.859 462.344 317.172 462.344ZM310.797 459.328C312.219 459.328 313.443 459.31 314.469 459.273V457.969C313.891 457.911 313.385 457.771 312.953 457.547C312.521 457.323 312.188 457.031 311.953 456.672C311.719 456.307 311.604 455.896 311.609 455.438C311.604 454.938 311.745 454.497 312.031 454.117C312.318 453.732 312.721 453.435 313.242 453.227C313.763 453.013 314.365 452.906 315.047 452.906C315.724 452.906 316.323 453.013 316.844 453.227C317.37 453.435 317.776 453.732 318.062 454.117C318.354 454.497 318.5 454.938 318.5 455.438C318.5 455.891 318.385 456.297 318.156 456.656C317.927 457.01 317.602 457.302 317.18 457.531C316.758 457.755 316.266 457.898 315.703 457.961V459.219C317.12 459.151 318.396 459.036 319.531 458.875L319.625 459.766C318.318 459.99 316.945 460.138 315.508 460.211C314.07 460.279 312.552 460.312 310.953 460.312L310.797 459.328ZM315.047 453.844C314.594 453.844 314.193 453.911 313.844 454.047C313.5 454.177 313.232 454.365 313.039 454.609C312.852 454.849 312.76 455.125 312.766 455.438C312.76 455.76 312.852 456.049 313.039 456.305C313.232 456.555 313.5 456.75 313.844 456.891C314.193 457.026 314.594 457.094 315.047 457.094C315.495 457.094 315.891 457.026 316.234 456.891C316.583 456.75 316.854 456.555 317.047 456.305C317.24 456.049 317.339 455.76 317.344 455.438C317.339 455.125 317.24 454.849 317.047 454.609C316.854 454.365 316.583 454.177 316.234 454.047C315.891 453.911 315.495 453.844 315.047 453.844Z" fill="white"/>
<g clip-path="url(#clip2_262_15403)">
<path d="M376 446C390.912 446 403 433.912 403 419C403 404.088 390.912 392 376 392C361.088 392 349 404.088 349 419C349 433.912 361.088 446 376 446Z" fill="#E8D9FF"/>
<path d="M361.795 425.167C363.218 425.167 364.371 424.013 364.371 422.591C364.371 421.168 363.218 420.014 361.795 420.014C360.372 420.014 359.219 421.168 359.219 422.591C359.219 424.013 360.372 425.167 361.795 425.167Z" fill="#FFDDDD"/>
<path d="M390.994 425.167C392.417 425.167 393.571 424.013 393.571 422.591C393.571 421.168 392.417 420.014 390.994 420.014C389.571 420.014 388.418 421.168 388.418 422.591C388.418 424.013 389.571 425.167 390.994 425.167Z" fill="#FFDDDD"/>
<path d="M394.367 438.821C390.004 433.85 383.607 430.713 376.473 430.713C369.34 430.713 362.565 434.039 358.199 439.268C362.956 443.459 369.199 446 376.037 446C382.875 446 389.555 443.277 394.369 438.821H394.367Z" fill="#007AFF"/>
<path d="M376.282 433.398C384.9 433.398 391.887 426.412 391.887 417.794C391.887 409.176 384.9 402.189 376.282 402.189C367.664 402.189 360.678 409.176 360.678 417.794C360.678 426.412 367.664 433.398 376.282 433.398Z" fill="#FFDDDD"/>
<path d="M366.244 413.86C369.653 413.86 372.417 411.097 372.417 407.688C372.417 404.279 369.653 401.516 366.244 401.516C362.836 401.516 360.072 404.279 360.072 407.688C360.072 411.097 362.836 413.86 366.244 413.86Z" fill="#222222"/>
<path d="M371.19 411.654C374.599 411.654 377.362 408.891 377.362 405.482C377.362 402.073 374.599 399.31 371.19 399.31C367.781 399.31 365.018 402.073 365.018 405.482C365.018 408.891 367.781 411.654 371.19 411.654Z" fill="#222222"/>
<path d="M376.715 412.502C380.151 412.502 382.937 409.716 382.937 406.28C382.937 402.843 380.151 400.057 376.715 400.057C373.278 400.057 370.492 402.843 370.492 406.28C370.492 409.716 373.278 412.502 376.715 412.502Z" fill="#222222"/>
<path d="M381.547 411.046C384.983 411.046 387.769 408.26 387.769 404.824C387.769 401.387 384.983 398.601 381.547 398.601C378.11 398.601 375.324 401.387 375.324 404.824C375.324 408.26 378.11 411.046 381.547 411.046Z" fill="#222222"/>
<path d="M376 410.35C379.437 410.35 382.223 407.564 382.223 404.127C382.223 400.691 379.437 397.905 376 397.905C372.563 397.905 369.777 400.691 369.777 404.127C369.777 407.564 372.563 410.35 376 410.35Z" fill="#222222"/>
<path d="M386.275 414.983C389.881 414.983 392.805 412.059 392.805 408.452C392.805 404.846 389.881 401.922 386.275 401.922C382.668 401.922 379.744 404.846 379.744 408.452C379.744 412.059 382.668 414.983 386.275 414.983Z" fill="#222222"/>
<path d="M361.543 419.565C362.712 419.565 363.66 416.201 363.66 412.051C363.66 407.901 362.712 404.536 361.543 404.536C360.374 404.536 359.426 407.901 359.426 412.051C359.426 416.201 360.374 419.565 361.543 419.565Z" fill="#222222"/>
<path d="M391.084 419.565C392.253 419.565 393.201 416.201 393.201 412.051C393.201 407.901 392.253 404.536 391.084 404.536C389.915 404.536 388.967 407.901 388.967 412.051C388.967 416.201 389.915 419.565 391.084 419.565Z" fill="#222222"/>
<path d="M373.282 421.452C375.238 421.452 376.823 419.872 376.823 417.922C376.823 415.973 375.238 414.392 373.282 414.392C371.327 414.392 369.742 415.973 369.742 417.922C369.742 419.872 371.327 421.452 373.282 421.452Z" fill="white"/>
<path d="M380.146 421.452C382.101 421.452 383.686 419.872 383.686 417.922C383.686 415.973 382.101 414.392 380.146 414.392C378.191 414.392 376.605 415.973 376.605 417.922C376.605 419.872 378.191 421.452 380.146 421.452Z" fill="white"/>
<path d="M373.282 419.893C374.452 419.893 375.401 418.947 375.401 417.781C375.401 416.615 374.452 415.669 373.282 415.669C372.111 415.669 371.162 416.615 371.162 417.781C371.162 418.947 372.111 419.893 373.282 419.893Z" fill="#222222"/>
<path d="M380.145 419.893C381.316 419.893 382.265 418.947 382.265 417.781C382.265 416.615 381.316 415.669 380.145 415.669C378.974 415.669 378.025 416.615 378.025 417.781C378.025 418.947 378.974 419.893 380.145 419.893Z" fill="#222222"/>
<path d="M368.382 423.002C368.317 422.924 368.281 422.876 368.281 422.876C368.281 422.876 368.314 422.929 368.382 423.002Z" fill="#222222"/>
<path d="M371.979 421.766C369.877 424.228 368.713 423.363 368.383 423.002C368.842 423.552 370.83 425.72 373.48 425.404C376.513 425.043 376.715 421.13 376.715 421.13C376.715 421.13 374.504 418.806 371.979 421.766Z" fill="#222222"/>
<path d="M381.451 421.766C378.925 418.806 376.715 421.13 376.715 421.13C376.715 421.13 376.917 425.043 379.95 425.404C382.602 425.72 384.59 423.552 385.047 423.002C384.716 423.363 383.553 424.228 381.451 421.766Z" fill="#222222"/>
<path d="M385.047 423.002C385.112 422.929 385.148 422.876 385.148 422.876C385.148 422.876 385.112 422.921 385.047 423.002Z" fill="#222222"/>
</g>
<path d="M375.656 458.984H364.391V457.969H369.453V456.297H370.656V457.969H375.656V458.984ZM376.453 466.391H370.656V470.297H369.453V466.391H363.734V465.375H376.453V466.391ZM370.062 459.781C371.005 459.781 371.815 459.872 372.492 460.055C373.174 460.232 373.695 460.495 374.055 460.844C374.414 461.193 374.594 461.615 374.594 462.109C374.594 462.594 374.411 463.008 374.047 463.352C373.688 463.695 373.169 463.958 372.492 464.141C371.815 464.323 371.005 464.417 370.062 464.422C369.115 464.417 368.299 464.323 367.617 464.141C366.94 463.958 366.422 463.695 366.062 463.352C365.703 463.008 365.526 462.594 365.531 462.109C365.526 461.615 365.703 461.193 366.062 460.844C366.422 460.495 366.94 460.232 367.617 460.055C368.299 459.872 369.115 459.781 370.062 459.781ZM370.062 460.719C369.026 460.719 368.219 460.841 367.641 461.086C367.068 461.331 366.786 461.672 366.797 462.109C366.792 462.536 367.073 462.87 367.641 463.109C368.214 463.349 369.021 463.469 370.062 463.469C371.089 463.469 371.888 463.349 372.461 463.109C373.034 462.87 373.323 462.536 373.328 462.109C373.318 461.672 373.026 461.331 372.453 461.086C371.88 460.841 371.083 460.719 370.062 460.719ZM390.219 465.812H384.484V470.297H383.281V465.812H377.562V464.781H390.219V465.812ZM384.5 459.125C384.5 459.682 384.732 460.216 385.195 460.727C385.659 461.232 386.268 461.661 387.023 462.016C387.779 462.37 388.573 462.604 389.406 462.719L388.953 463.703C388.234 463.594 387.542 463.404 386.875 463.133C386.214 462.862 385.622 462.526 385.102 462.125C384.586 461.724 384.185 461.276 383.898 460.781C383.612 461.281 383.206 461.732 382.68 462.133C382.159 462.534 381.565 462.87 380.898 463.141C380.232 463.406 379.536 463.594 378.812 463.703L378.359 462.719C379.193 462.604 379.987 462.372 380.742 462.023C381.497 461.669 382.109 461.24 382.578 460.734C383.047 460.224 383.281 459.688 383.281 459.125V459.109H378.797V458.109H383.281V456.375H384.484V458.109H389V459.109H384.5V459.125Z" fill="#222222"/>
<defs>
<clipPath id="clip0_262_15403">
<rect width="344" height="196" fill="white" transform="translate(43.5)"/>
</clipPath>
<clipPath id="clip1_262_15403">
<rect width="54" height="54" fill="white" transform="translate(24.5 251)"/>
</clipPath>
<clipPath id="clip2_262_15403">
<rect width="54" height="54" fill="white" transform="translate(349 392)"/>
</clipPath>
</defs>
</svg>
