<svg width="24" height="24" viewBox="0 0 24 24" fill="none" xmlns="http://www.w3.org/2000/svg">
<path d="M9.35002 4.70418H6.63169C5.54435 4.70418 5.00069 4.70418 4.58517 4.91582C4.21984 5.10197 3.92282 5.39899 3.73667 5.76432C3.52502 6.17984 3.52502 6.72351 3.52502 7.81084V17.1308C3.52502 18.2182 3.52502 18.7618 3.73667 19.1773C3.92282 19.5427 4.21984 19.8397 4.58517 20.0258C4.99972 20.2375 5.54338 20.2375 6.62877 20.2375H15.9546C17.04 20.2375 17.5827 20.2375 17.9972 20.0258C18.3632 19.8394 18.6603 19.5424 18.8467 19.1773C19.0583 18.7618 19.0583 18.2191 19.0583 17.1337V14.4125M15.175 5.67501L9.35002 11.5V14.4125H12.2625L18.0875 8.5875M15.175 5.67501L18.0875 2.76251L21 5.67501L18.0875 8.5875M15.175 5.67501L18.0875 8.5875" stroke="#222222" stroke-width="1.5" stroke-linecap="round" stroke-linejoin="round"/>
</svg>
